{
copyright = "Copyright (c) 2013 by Alessio Laiso (alessio.laiso@gmail.com). Licensed under the SIL Open Font License, Version 1.2.2";
customParameters = (
{
name = license;

glyphs = (
{
glyphname = .notdef;
layers = (
{
layerId = "18B4A443-2C69-4DCB-9619-77A7DD6AC8EC";
name = Light;
paths = (
{
closed = 1;
nodes = (
"221 546 LINE SMOOTH",
"223 542 OFFCURVE",
"225 541 OFFCURVE",
"230 541 CURVE SMOOTH",
"232 541 OFFCURVE",
"236 543 OFFCURVE",
"241 547 CURVE SMOOTH",
"246 551 OFFCURVE",
"253 555 OFFCURVE",
"261 560 CURVE SMOOTH",
"269 565 OFFCURVE",
"280 569 OFFCURVE",
"291 573 CURVE SMOOTH",
"302 577 OFFCURVE",
"316 578 OFFCURVE",
"331 578 CURVE SMOOTH",
"343 578 OFFCURVE",
"354 577 OFFCURVE",
"364 573 CURVE SMOOTH",
"374 569 OFFCURVE",
"382 564 OFFCURVE",
"389 558 CURVE SMOOTH",
"396 552 OFFCURVE",
"401 543 OFFCURVE",
"405 534 CURVE SMOOTH",
"409 525 OFFCURVE",
"409 514 OFFCURVE",
"408 502 CURVE",
"406 486 OFFCURVE",
"402 473 OFFCURVE",
"395 462 CURVE SMOOTH",
"388 451 OFFCURVE",
"379 441 OFFCURVE",
"370 432 CURVE SMOOTH",
"361 423 OFFCURVE",
"351 416 OFFCURVE",
"340 409 CURVE SMOOTH",
"329 402 OFFCURVE",
"319 395 OFFCURVE",
"310 388 CURVE SMOOTH",
"301 381 OFFCURVE",
"293 373 OFFCURVE",
"287 365 CURVE SMOOTH",
"281 357 OFFCURVE",
"278 348 OFFCURVE",
"277 338 CURVE SMOOTH",
"273 277 LINE",
"305 277 LINE",
"317 334 LINE",
"319 342 OFFCURVE",
"323 350 OFFCURVE",
"330 356 CURVE SMOOTH",
"337 362 OFFCURVE",
"345 369 OFFCURVE",
"354 376 CURVE SMOOTH",
"363 383 OFFCURVE",
"373 389 OFFCURVE",
"384 397 CURVE SMOOTH",
"395 405 OFFCURVE",
"405 413 OFFCURVE",
"414 423 CURVE SMOOTH",
"423 433 OFFCURVE",
"432 445 OFFCURVE",
"439 458 CURVE SMOOTH",
"446 471 OFFCURVE",
"451 487 OFFCURVE",
"453 505 CURVE SMOOTH",
"455 522 OFFCURVE",
"454 538 OFFCURVE",
"449 552 CURVE SMOOTH",
"444 566 OFFCURVE",
"436 577 OFFCURVE",
"426 587 CURVE SMOOTH",
"416 597 OFFCURVE",
"404 605 OFFCURVE",
"389 610 CURVE SMOOTH",
"374 615 OFFCURVE",
"357 618 OFFCURVE",
"339 618 CURVE SMOOTH",
"325 618 OFFCURVE",
"312 616 OFFCURVE",
"300 613 CURVE SMOOTH",
"288 610 OFFCURVE",
"277 607 OFFCURVE",
"266 602 CURVE SMOOTH",
"255 597 OFFCURVE",
"245 592 OFFCURVE",
"236 586 CURVE SMOOTH",
"227 580 OFFCURVE",
"219 574 OFFCURVE",
"211 567 CURVE"
);
},
{
closed = 1;
nodes = (
"230 122 OFFCURVE",
"233 113 OFFCURVE",
"239 105 CURVE SMOOTH",
"245 97 OFFCURVE",
"254 94 OFFCURVE",
"265 94 CURVE SMOOTH",
"276 94 OFFCURVE",
"285 97 OFFCURVE",
"293 105 CURVE SMOOTH",
"301 113 OFFCURVE",
"307 122 OFFCURVE",
"308 133 CURVE SMOOTH",
"309 144 OFFCURVE",
"306 152 OFFCURVE",
"300 160 CURVE SMOOTH",
"294 168 OFFCURVE",
"286 172 OFFCURVE",
"275 172 CURVE SMOOTH",
"264 172 OFFCURVE",
"254 168 OFFCURVE",
"246 160 CURVE SMOOTH",
"238 152 OFFCURVE",
"232 144 OFFCURVE",
"231 133 CURVE SMOOTH"
);
},
{
closed = 1;
nodes = (
"120 708 LINE",
"34 0 LINE",
"499 0 LINE",
"586 708 LINE"
);
},
{
closed = 1;
nodes = (
"53 18 LINE",
"136 690 LINE",
"565 690 LINE",
"483 18 LINE"
);
}
);
width = 622;
}
);
note = .notdef;
},
{
color = 4;
glyphname = exclam;
lastChange = "2015-10-08 14:48:18 +0000";
layers = (
{
layerId = "18B4A443-2C69-4DCB-9619-77A7DD6AC8EC";
name = Light;
paths = (
{
closed = 1;
nodes = (
"180 708 LINE",
"133 708 LINE",
"98 422 LINE SMOOTH",
"93 380 OFFCURVE",
"85 286 OFFCURVE",
"83 244 CURVE",
"116 244 LINE",
"125 286 OFFCURVE",
"139 380 OFFCURVE",
"144 422 CURVE SMOOTH"
);
},
{
closed = 1;
nodes = (
"92 -8 OFFCURVE",
"116 14 OFFCURVE",
"118 39 CURVE SMOOTH",
"121 63 OFFCURVE",
"104 85 OFFCURVE",
"78 85 CURVE SMOOTH",
"52 85 OFFCURVE",
"28 63 OFFCURVE",
"26 39 CURVE SMOOTH",
"24 14 OFFCURVE",
"41 -8 OFFCURVE",
"67 -8 CURVE SMOOTH"
);
}
);
width = 216;
}
);
note = exclam;
unicode = 0021;
},
{
color = 4;
glyphname = quotedbl;
lastChange = "2015-10-08 14:48:40 +0000";
layers = (
{
layerId = "18B4A443-2C69-4DCB-9619-77A7DD6AC8EC";
name = Light;
paths = (
{
closed = 1;
nodes = (
"130 708 LINE",
"89 708 LINE",
"71 562 LINE",
"66 485 LINE",
"66 478 OFFCURVE",
"67 467 OFFCURVE",
"80 467 CURVE SMOOTH",
"90 467 OFFCURVE",
"97 476 OFFCURVE",
"99 485 CURVE SMOOTH",
"112 562 LINE"
);
},
{
closed = 1;
nodes = (
"275 708 LINE",
"234 708 LINE",
"216 562 LINE",
"211 485 LINE",
"211 478 OFFCURVE",
"212 467 OFFCURVE",
"225 467 CURVE SMOOTH",
"235 467 OFFCURVE",
"242 476 OFFCURVE",
"244 485 CURVE SMOOTH",
"257 562 LINE"
);
}
);
width = 323;
}
);
note = quotedbl;
unicode = 0022;
},
{
color = 4;
glyphname = numbersign;
lastChange = "2015-10-08 14:49:19 +0000";
layers = (
{
layerId = "18B4A443-2C69-4DCB-9619-77A7DD6AC8EC";
name = Light;
paths = (
{
closed = 1;
nodes = (
"358 222 LINE",
"488 222 LINE",
"493 244 LINE",
"494 253 OFFCURVE",
"490 256 OFFCURVE",
"480 256 CURVE SMOOTH",
"367 256 LINE",
"432 451 LINE",
"524 451 LINE SMOOTH",
"537 451 OFFCURVE",
"546 457 OFFCURVE",
"549 468 CURVE SMOOTH",
"554 486 LINE",
"441 486 LINE",
"511 692 LINE",
"512 702 OFFCURVE",
"507 708 OFFCURVE",
"497 708 CURVE SMOOTH",
"476 708 LINE",
"401 486 LINE",
"252 486 LINE",
"327 708 LINE",
"306 708 LINE SMOOTH",
"297 708 OFFCURVE",
"286 703 OFFCURVE",
"281 688 CURVE SMOOTH",
"212 486 LINE",
"106 486 LINE SMOOTH",
"93 486 OFFCURVE",
"85 481 OFFCURVE",
"82 470 CURVE SMOOTH",
"77 451 LINE",
"203 451 LINE",
"138 256 LINE",
"29 256 LINE",
"24 236 LINE",
"23 230 OFFCURVE",
"25 222 OFFCURVE",
"37 222 CURVE SMOOTH",
"129 222 LINE",
"55 0 LINE",
"76 0 LINE SMOOTH",
"91 0 OFFCURVE",
"95 7 OFFCURVE",
"101 20 CURVE",
"169 222 LINE",
"318 222 LINE",
"249 16 LINE",
"247 6 OFFCURVE",
"253 0 OFFCURVE",
"263 0 CURVE SMOOTH",
"284 0 LINE"
);
},
{
closed = 1;
nodes = (
"178 256 LINE",
"243 451 LINE",
"392 451 LINE",
"327 256 LINE"
);
}
);
width = 577;
}
);
note = numbersign;
unicode = 0023;
},
{
color = 4;
glyphname = dollar;
lastChange = "2015-10-08 14:51:04 +0000";
layers = (
{
layerId = "18B4A443-2C69-4DCB-9619-77A7DD6AC8EC";
name = Light;
paths = (
{
closed = 1;
nodes = (
"176 -128 LINE",
"194 -128 LINE SMOOTH",
"204 -128 OFFCURVE",
"208 -122 OFFCURVE",
"210 -113 CURVE",
"229 -8 LINE",
"360 0 OFFCURVE",
"452 81 OFFCURVE",
"469 206 CURVE",
"480 315 OFFCURVE",
"415 348 OFFCURVE",
"297 387 CURVE",
"346 673 LINE",
"390 669 OFFCURVE",
"432 652 OFFCURVE",
"460 624 CURVE SMOOTH",
"469 615 OFFCURVE",
"479 613 OFFCURVE",
"489 624 CURVE",
"502 641 LINE",
"464 686 OFFCURVE",
"413 709 OFFCURVE",
"353 713 CURVE",
"371 814 LINE",
"353 814 LINE SMOOTH",
"345 814 OFFCURVE",
"338 806 OFFCURVE",
"336 798 CURVE SMOOTH",
"321 714 LINE",
"213 710 OFFCURVE",
"115 642 OFFCURVE",
"101 532 CURVE SMOOTH",
"88 428 OFFCURVE",
"148 385 OFFCURVE",
"259 350 CURVE",
"204 32 LINE",
"144 34 OFFCURVE",
"100 60 OFFCURVE",
"54 106 CURVE SMOOTH",
"47 113 OFFCURVE",
"38 115 OFFCURVE",
"29 104 CURVE",
"13 84 LINE",
"58 26 OFFCURVE",
"122 -4 OFFCURVE",
"197 -8 CURVE"
);
},
{
closed = 1;
nodes = (
"410 101 OFFCURVE",
"336 39 OFFCURVE",
"236 32 CURVE",
"289 341 LINE",
"369 316 OFFCURVE",
"434 283 OFFCURVE",
"423 199 CURVE SMOOTH"
);
},
{
closed = 1;
nodes = (
"155 614 OFFCURVE",
"225 670 OFFCURVE",
"314 674 CURVE",
"266 398 LINE",
"188 424 OFFCURVE",
"135 460 OFFCURVE",
"146 536 CURVE SMOOTH"
);
}
);
width = 525;
}
);
note = dollar;
unicode = 0024;
},
{
color = 4;
glyphname = percent;
lastChange = "2015-10-08 14:58:43 +0000";
layers = (
{
layerId = "18B4A443-2C69-4DCB-9619-77A7DD6AC8EC";
name = Light;
paths = (
{
closed = 1;
nodes = (
"362 637 OFFCURVE",
"316 716 OFFCURVE",
"221 716 CURVE SMOOTH",
"128 716 OFFCURVE",
"66 645 OFFCURVE",
"51 538 CURVE SMOOTH",
"39 443 OFFCURVE",
"78 361 OFFCURVE",
"178 361 CURVE SMOOTH",
"270 361 OFFCURVE",
"333 432 OFFCURVE",
"348 538 CURVE SMOOTH"
);
},
{
closed = 1;
nodes = (
"300 453 OFFCURVE",
"257 393 OFFCURVE",
"182 393 CURVE SMOOTH",
"104 393 OFFCURVE",
"80 456 OFFCURVE",
"89 538 CURVE SMOOTH",
"98 613 OFFCURVE",
"138 683 OFFCURVE",
"217 683 CURVE SMOOTH",
"291 683 OFFCURVE",
"320 627 OFFCURVE",
"310 538 CURVE SMOOTH"
);
},
{
closed = 1;
nodes = (
"44 0 LINE",
"78 0 LINE SMOOTH",
"85 0 OFFCURVE",
"91 3 OFFCURVE",
"96 9 CURVE SMOOTH",
"690 708 LINE",
"656 708 LINE SMOOTH",
"649 708 OFFCURVE",
"640 703 OFFCURVE",
"637 698 CURVE"
);
},
{
closed = 1;
nodes = (
"699 269 OFFCURVE",
"654 346 OFFCURVE",
"558 346 CURVE SMOOTH",
"463 346 OFFCURVE",
"402 273 OFFCURVE",
"388 168 CURVE SMOOTH",
"375 73 OFFCURVE",
"416 -8 OFFCURVE",
"515 -8 CURVE SMOOTH",
"608 -8 OFFCURVE",
"670 62 OFFCURVE",
"685 168 CURVE SMOOTH"
);
},
{
closed = 1;
nodes = (
"637 85 OFFCURVE",
"594 24 OFFCURVE",
"519 24 CURVE SMOOTH",
"442 24 OFFCURVE",
"416 87 OFFCURVE",
"426 168 CURVE SMOOTH",
"434 244 OFFCURVE",
"474 314 OFFCURVE",
"555 314 CURVE SMOOTH",
"628 314 OFFCURVE",
"657 257 OFFCURVE",
"647 168 CURVE SMOOTH"
);
}
);
width = 730;
}
);
note = percent;
unicode = 0025;
},
{
color = 4;
glyphname = ampersand;
lastChange = "2015-10-08 15:00:53 +0000";
layers = (
{
layerId = "18B4A443-2C69-4DCB-9619-77A7DD6AC8EC";
name = Light;
paths = (
{
closed = 1;
nodes = (
"270 716 OFFCURVE",
"186 650 OFFCURVE",
"173 552 CURVE SMOOTH",
"165 491 OFFCURVE",
"184 448 OFFCURVE",
"224 394 CURVE",
"130 360 OFFCURVE",
"43 281 OFFCURVE",
"29 181 CURVE SMOOTH",
"15 75 OFFCURVE",
"94 -8 OFFCURVE",
"209 -8 CURVE SMOOTH",
"304 -8 OFFCURVE",
"410 40 OFFCURVE",
"475 112 CURVE",
"565 11 LINE",
"572 3 OFFCURVE",
"579 0 OFFCURVE",
"591 0 CURVE SMOOTH",
"636 0 LINE",
"505 146 LINE",
"550 202 OFFCURVE",
"583 270 OFFCURVE",
"594 338 CURVE",
"566 338 LINE SMOOTH",
"559 338 OFFCURVE",
"554 332 OFFCURVE",
"552 324 CURVE SMOOTH",
"539 273 OFFCURVE",
"512 216 OFFCURVE",
"480 174 CURVE",
"284 394 LINE SMOOTH",
"237 446 OFFCURVE",
"211 492 OFFCURVE",
"218 553 CURVE SMOOTH",
"227 624 OFFCURVE",
"286 678 OFFCURVE",
"367 678 CURVE SMOOTH",
"428 678 OFFCURVE",
"471 636 OFFCURVE",
"477 580 CURVE",
"478 573 OFFCURVE",
"484 567 OFFCURVE",
"497 569 CURVE",
"519 574 LINE",
"527 654 OFFCURVE",
"454 716 OFFCURVE",
"371 716 CURVE SMOOTH"
);
},
{
closed = 1;
nodes = (
"87 263 OFFCURVE",
"155 334 OFFCURVE",
"244 369 CURVE",
"451 138 LINE",
"388 71 OFFCURVE",
"310 31 OFFCURVE",
"221 31 CURVE SMOOTH",
"135 31 OFFCURVE",
"67 91 OFFCURVE",
"78 184 CURVE SMOOTH"
);
}
);
width = 662;
}
);
note = ampersand;
unicode = 0026;
},
{
color = 4;
glyphname = quotesingle;
lastChange = "2015-10-08 15:01:03 +0000";
layers = (
{
layerId = "18B4A443-2C69-4DCB-9619-77A7DD6AC8EC";
name = Light;
paths = (
{
closed = 1;
nodes = (
"130 708 LINE",
"89 708 LINE",
"71 562 LINE",
"66 485 LINE",
"66 478 OFFCURVE",
"67 467 OFFCURVE",
"80 467 CURVE SMOOTH",
"90 467 OFFCURVE",
"97 476 OFFCURVE",
"99 485 CURVE SMOOTH",
"112 562 LINE"
);
}
);
width = 178;
}
);
note = quotesingle;
unicode = 0027;
},
{
color = 4;
glyphname = parenleft;
lastChange = "2015-10-08 15:04:41 +0000";
layers = (
{
layerId = "18B4A443-2C69-4DCB-9619-77A7DD6AC8EC";
name = Light;
paths = (
{
closed = 1;
nodes = (
"141 570 OFFCURVE",
"260 729 CURVE SMOOTH",
"263 732 OFFCURVE",
"269 745 OFFCURVE",
"259 750 CURVE",
"240 763 LINE",
"106 588 OFFCURVE",
"41 423 OFFCURVE",
"41 202 CURVE SMOOTH",
"41 87 OFFCURVE",
"73 -28 OFFCURVE",
"130 -133 CURVE",
"152 -120 LINE",
"160 -115 OFFCURVE",
"163 -107 OFFCURVE",
"159 -98 CURVE SMOOTH",
"111 -3 OFFCURVE",
"86 97 OFFCURVE",
"83 203 CURVE SMOOTH",
"78 388 OFFCURVE"
);
}
);
width = 282;
}
);
note = parenleft;
unicode = 0028;
},
{
color = 4;
glyphname = parenright;
lastChange = "2015-10-08 15:05:02 +0000";
layers = (
{
layerId = "18B4A443-2C69-4DCB-9619-77A7DD6AC8EC";
name = Light;
paths = (
{
closed = 1;
nodes = (
"141 60 OFFCURVE",
"22 -99 CURVE SMOOTH",
"19 -102 OFFCURVE",
"13 -115 OFFCURVE",
"23 -120 CURVE",
"42 -133 LINE",
"176 42 OFFCURVE",
"241 207 OFFCURVE",
"241 428 CURVE SMOOTH",
"241 543 OFFCURVE",
"209 658 OFFCURVE",
"152 763 CURVE",
"130 750 LINE",
"122 745 OFFCURVE",
"119 737 OFFCURVE",
"123 728 CURVE SMOOTH",
"171 633 OFFCURVE",
"196 533 OFFCURVE",
"199 427 CURVE SMOOTH",
"204 242 OFFCURVE"
);
}
);
width = 288;
}
);
note = parenright;
unicode = 0029;
},
{
color = 4;
glyphname = asterisk;
lastChange = "2015-10-08 15:05:37 +0000";
layers = (
{
layerId = "18B4A443-2C69-4DCB-9619-77A7DD6AC8EC";
name = Light;
paths = (
{
closed = 1;
nodes = (
"159 448 LINE",
"185 448 LINE",
"198 556 LINE",
"200 565 OFFCURVE",
"198 568 OFFCURVE",
"195 586 CURVE",
"198 582 OFFCURVE",
"208 570 OFFCURVE",
"216 565 CURVE SMOOTH",
"305 510 LINE",
"320 532 LINE",
"232 588 LINE SMOOTH",
"224 593 OFFCURVE",
"216 595 OFFCURVE",
"204 597 CURVE",
"216 599 OFFCURVE",
"219 599 OFFCURVE",
"235 608 CURVE",
"335 662 LINE",
"325 684 LINE",
"224 630 LINE SMOOTH",
"214 625 OFFCURVE",
"206 618 OFFCURVE",
"198 608 CURVE",
"204 621 OFFCURVE",
"206 626 OFFCURVE",
"208 640 CURVE",
"221 746 LINE",
"195 746 LINE",
"182 639 LINE",
"181 630 OFFCURVE",
"183 617 OFFCURVE",
"186 607 CURVE",
"182 613 OFFCURVE",
"173 625 OFFCURVE",
"164 630 CURVE SMOOTH",
"76 685 LINE",
"60 662 LINE",
"149 607 LINE",
"152 605 OFFCURVE",
"164 599 OFFCURVE",
"176 597 CURVE",
"171 596 OFFCURVE",
"154 592 OFFCURVE",
"146 587 CURVE",
"46 532 LINE",
"55 510 LINE",
"156 565 LINE",
"167 571 OFFCURVE",
"172 572 OFFCURVE",
"182 585 CURVE",
"177 576 OFFCURVE",
"175 571 OFFCURVE",
"172 555 CURVE"
);
}
);
width = 372;
}
);
note = asterisk;
unicode = 002A;
},
{
color = 4;
glyphname = plus;
lastChange = "2015-10-08 15:05:41 +0000";
layers = (
{
layerId = "18B4A443-2C69-4DCB-9619-77A7DD6AC8EC";
name = Light;
paths = (
{
closed = 1;
nodes = (
"326 579 LINE",
"287 579 LINE",
"259 354 LINE",
"44 354 LINE",
"40 317 LINE",
"255 317 LINE",
"227 90 LINE",
"266 90 LINE",
"294 317 LINE",
"510 317 LINE",
"514 354 LINE",
"298 354 LINE"
);
}
);
width = 551;
}
);
note = plus;
unicode = 002B;
},
{
color = 4;
glyphname = comma;
lastChange = "2015-10-08 17:15:30 +0000";
layers = (
{
layerId = "18B4A443-2C69-4DCB-9619-77A7DD6AC8EC";
name = Light;
paths = (
{
closed = 1;
nodes = (
"66 17 OFFCURVE",
"82 -2 OFFCURVE",
"107 -2 CURVE SMOOTH",
"113 -2 OFFCURVE",
"119 -1 OFFCURVE",
"122 0 CURVE",
"113 -35 OFFCURVE",
"82 -83 OFFCURVE",
"59 -101 CURVE",
"52 -108 OFFCURVE",
"50 -112 OFFCURVE",
"56 -119 CURVE",
"63 -126 LINE",
"110 -88 OFFCURVE",
"150 -26 OFFCURVE",
"158 31 CURVE SMOOTH",
"162 62 OFFCURVE",
"149 85 OFFCURVE",
"119 85 CURVE SMOOTH",
"95 85 OFFCURVE",
"72 65 OFFCURVE",
"70 42 CURVE"
);
}
);
width = 226;
}
);
note = comma;
unicode = 002C;
},
{
color = 4;
glyphname = hyphen;
lastChange = "2015-10-08 15:05:58 +0000";
layers = (
{
layerId = "18B4A443-2C69-4DCB-9619-77A7DD6AC8EC";
name = Light;
paths = (
{
closed = 1;
nodes = (
"69 317 LINE",
"64 276 LINE",
"296 276 LINE",
"301 317 LINE"
);
}
);
width = 363;
}
);
note = hyphen;
unicode = 002D;
},
{
color = 4;
glyphname = period;
lastChange = "2015-10-08 17:13:00 +0000";
layers = (
{
layerId = "18B4A443-2C69-4DCB-9619-77A7DD6AC8EC";
name = Light;
paths = (
{
closed = 1;
nodes = (
"124 -8 OFFCURVE",
"148 14 OFFCURVE",
"150 39 CURVE SMOOTH",
"153 63 OFFCURVE",
"136 85 OFFCURVE",
"110 85 CURVE SMOOTH",
"84 85 OFFCURVE",
"60 63 OFFCURVE",
"58 39 CURVE SMOOTH",
"56 14 OFFCURVE",
"73 -8 OFFCURVE",
"99 -8 CURVE SMOOTH"
);
}
);
width = 220;
}
);
note = period;
unicode = 002E;
},
{
color = 4;
glyphname = slash;
lastChange = "2015-10-08 17:13:21 +0000";
layers = (
{
layerId = "18B4A443-2C69-4DCB-9619-77A7DD6AC8EC";
name = Light;
paths = (
{
closed = 1;
nodes = (
"472 728 LINE",
"452 728 LINE SMOOTH",
"439 728 OFFCURVE",
"430 721 OFFCURVE",
"423 709 CURVE",
"20 -42 LINE",
"39 -42 LINE SMOOTH",
"48 -42 OFFCURVE",
"64 -36 OFFCURVE",
"70 -22 CURVE"
);
}
);
width = 493;
}
);
note = slash;
unicode = 002F;
},
{
color = 4;
glyphname = zero;
lastChange = "2015-10-09 07:38:48 +0000";
layers = (
{
layerId = "18B4A443-2C69-4DCB-9619-77A7DD6AC8EC";
name = Light;
paths = (
{
closed = 1;
nodes = (
"582 552 OFFCURVE",
"519 716 OFFCURVE",
"347 716 CURVE SMOOTH",
"171 716 OFFCURVE",
"74 550 OFFCURVE",
"49 354 CURVE SMOOTH",
"25 163 OFFCURVE",
"79 -8 OFFCURVE",
"258 -8 CURVE SMOOTH",
"429 -8 OFFCURVE",
"530 151 OFFCURVE",
"556 354 CURVE SMOOTH"
);
},
{
closed = 1;
nodes = (
"485 179 OFFCURVE",
"407 33 OFFCURVE",
"263 33 CURVE SMOOTH",
"114 33 OFFCURVE",
"77 190 OFFCURVE",
"98 354 CURVE SMOOTH",
"119 515 OFFCURVE",
"191 676 OFFCURVE",
"342 676 CURVE SMOOTH",
"486 676 OFFCURVE",
"528 532 OFFCURVE",
"506 354 CURVE SMOOTH"
);
}
);
width = 606;
}
);
note = zero;
unicode = 0030;
},
{
color = 4;
glyphname = one;
lastChange = "2015-10-09 07:40:20 +0000";
layers = (
{
layerId = "18B4A443-2C69-4DCB-9619-77A7DD6AC8EC";
name = Light;
paths = (
{
closed = 1;
nodes = (
"387 0 LINE",
"389 16 LINE SMOOTH",
"390 25 OFFCURVE",
"385 30 OFFCURVE",
"374 31 CURVE",
"237 38 LINE",
"319 710 LINE",
"282 710 LINE",
"56 530 LINE",
"68 510 LINE",
"73 503 OFFCURVE",
"84 502 OFFCURVE",
"92 508 CURVE SMOOTH",
"265 647 LINE",
"260 611 LINE",
"189 38 LINE",
"189 38 OFFCURVE",
"45 31 OFFCURVE",
"42 31 CURVE",
"31 30 OFFCURVE",
"25 25 OFFCURVE",
"24 16 CURVE SMOOTH",
"22 0 LINE"
);
}
);
width = 414;
}
);
note = one;
unicode = 0031;
},
{
color = 4;
glyphname = two;
lastChange = "2015-10-09 07:41:48 +0000";
layers = (
{
layerId = "18B4A443-2C69-4DCB-9619-77A7DD6AC8EC";
name = Light;
paths = (
{
closed = 1;
nodes = (
"471 134 LINE SMOOTH",
"457 134 OFFCURVE",
"449 126 OFFCURVE",
"446 110 CURVE",
"433 45 LINE",
"161 45 LINE SMOOTH",
"145 45 OFFCURVE",
"111 42 OFFCURVE",
"92 37 CURVE",
"341 263 LINE SMOOTH",
"443 356 OFFCURVE",
"514 423 OFFCURVE",
"526 525 CURVE SMOOTH",
"541 644 OFFCURVE",
"467 715 OFFCURVE",
"346 715 CURVE SMOOTH",
"225 715 OFFCURVE",
"135 642 OFFCURVE",
"104 524 CURVE",
"127 520 LINE",
"139 518 OFFCURVE",
"149 522 OFFCURVE",
"155 537 CURVE",
"181 623 OFFCURVE",
"254 675 OFFCURVE",
"339 675 CURVE SMOOTH",
"430 675 OFFCURVE",
"488 621 OFFCURVE",
"477 523 CURVE SMOOTH",
"466 433 OFFCURVE",
"404 369 OFFCURVE",
"308 282 CURVE SMOOTH",
"36 38 LINE",
"32 34 OFFCURVE",
"26 26 OFFCURVE",
"24 17 CURVE",
"22 0 LINE",
"478 0 LINE",
"495 134 LINE"
);
}
);
width = 563;
}
);
note = two;
unicode = 0032;
},
{
color = 4;
glyphname = three;
lastChange = "2015-10-09 07:43:28 +0000";
layers = (
{
layerId = "18B4A443-2C69-4DCB-9619-77A7DD6AC8EC";
name = Light;
paths = (
{
closed = 1;
nodes = (
"213 716 OFFCURVE",
"120 646 OFFCURVE",
"88 524 CURVE",
"112 520 LINE",
"125 518 OFFCURVE",
"134 525 OFFCURVE",
"138 538 CURVE SMOOTH",
"166 621 OFFCURVE",
"237 675 OFFCURVE",
"323 675 CURVE SMOOTH",
"416 675 OFFCURVE",
"470 619 OFFCURVE",
"459 529 CURVE SMOOTH",
"445 431 OFFCURVE",
"361 383 OFFCURVE",
"253 380 CURVE",
"249 346 LINE",
"366 346 OFFCURVE",
"450 306 OFFCURVE",
"435 193 CURVE SMOOTH",
"425 105 OFFCURVE",
"335 32 OFFCURVE",
"235 32 CURVE SMOOTH",
"140 32 OFFCURVE",
"90 77 OFFCURVE",
"70 171 CURVE SMOOTH",
"67 184 OFFCURVE",
"51 185 OFFCURVE",
"41 181 CURVE",
"22 173 LINE",
"38 52 OFFCURVE",
"99 -8 OFFCURVE",
"230 -8 CURVE SMOOTH",
"356 -8 OFFCURVE",
"467 75 OFFCURVE",
"483 194 CURVE SMOOTH",
"495 287 OFFCURVE",
"447 349 OFFCURVE",
"346 369 CURVE",
"429 389 OFFCURVE",
"496 449 OFFCURVE",
"507 537 CURVE SMOOTH",
"521 642 OFFCURVE",
"447 716 OFFCURVE",
"330 716 CURVE SMOOTH"
);
}
);
width = 548;
}
);
note = three;
unicode = 0033;
},
{
color = 4;
glyphname = four;
lastChange = "2015-10-09 07:44:15 +0000";
layers = (
{
layerId = "18B4A443-2C69-4DCB-9619-77A7DD6AC8EC";
name = Light;
paths = (
{
closed = 1;
nodes = (
"424 241 LINE",
"481 708 LINE",
"439 708 LINE",
"26 238 LINE",
"27 215 LINE",
"28 206 OFFCURVE",
"35 203 OFFCURVE",
"43 203 CURVE SMOOTH",
"376 203 LINE",
"351 0 LINE",
"394 0 LINE",
"419 203 LINE",
"535 203 LINE SMOOTH",
"544 203 OFFCURVE",
"549 207 OFFCURVE",
"550 215 CURVE",
"553 241 LINE"
);
},
{
closed = 1;
nodes = (
"426 612 LINE",
"381 241 LINE",
"78 241 LINE",
"433 649 LINE"
);
}
);
width = 579;
}
);
note = four;
unicode = 0034;
},
{
color = 4;
glyphname = five;
lastChange = "2015-10-09 07:45:10 +0000";
layers = (
{
layerId = "18B4A443-2C69-4DCB-9619-77A7DD6AC8EC";
name = Light;
paths = (
{
closed = 1;
nodes = (
"510 708 LINE",
"192 708 LINE",
"98 394 LINE",
"127 384 LINE",
"166 395 OFFCURVE",
"221 404 OFFCURVE",
"258 404 CURVE SMOOTH",
"373 404 OFFCURVE",
"435 342 OFFCURVE",
"422 230 CURVE SMOOTH",
"409 116 OFFCURVE",
"323 34 OFFCURVE",
"203 34 CURVE SMOOTH",
"159 34 OFFCURVE",
"109 50 OFFCURVE",
"70 74 CURVE SMOOTH",
"56 83 OFFCURVE",
"47 86 OFFCURVE",
"37 74 CURVE",
"20 55 LINE",
"63 17 OFFCURVE",
"129 -8 OFFCURVE",
"196 -8 CURVE SMOOTH",
"340 -8 OFFCURVE",
"450 90 OFFCURVE",
"470 232 CURVE SMOOTH",
"487 361 OFFCURVE",
"412 444 OFFCURVE",
"272 444 CURVE SMOOTH",
"241 444 OFFCURVE",
"185 437 OFFCURVE",
"149 428 CURVE",
"220 664 LINE",
"476 664 LINE SMOOTH",
"490 664 OFFCURVE",
"504 668 OFFCURVE",
"507 687 CURVE SMOOTH"
);
}
);
width = 538;
}
);
note = five;
unicode = 0035;
},
{
color = 4;
glyphname = six;
lastChange = "2015-10-09 07:46:39 +0000";
layers = (
{
layerId = "18B4A443-2C69-4DCB-9619-77A7DD6AC8EC";
name = Light;
paths = (
{
closed = 1;
nodes = (
"241 423 OFFCURVE",
"185 400 OFFCURVE",
"138 358 CURVE",
"148 373 OFFCURVE",
"164 391 OFFCURVE",
"199 432 CURVE SMOOTH",
"444 708 LINE",
"402 708 LINE SMOOTH",
"391 708 OFFCURVE",
"382 704 OFFCURVE",
"375 696 CURVE SMOOTH",
"150 436 LINE SMOOTH",
"94 371 OFFCURVE",
"41 291 OFFCURVE",
"34 225 CURVE SMOOTH",
"18 82 OFFCURVE",
"90 -8 OFFCURVE",
"227 -8 CURVE SMOOTH",
"364 -8 OFFCURVE",
"473 83 OFFCURVE",
"488 213 CURVE SMOOTH",
"504 337 OFFCURVE",
"430 423 OFFCURVE",
"304 423 CURVE SMOOTH"
);
},
{
closed = 1;
nodes = (
"93 314 OFFCURVE",
"184 386 OFFCURVE",
"287 386 CURVE SMOOTH",
"393 386 OFFCURVE",
"452 316 OFFCURVE",
"440 210 CURVE SMOOTH",
"428 107 OFFCURVE",
"345 32 OFFCURVE",
"232 32 CURVE SMOOTH",
"123 32 OFFCURVE",
"67 107 OFFCURVE",
"79 214 CURVE SMOOTH"
);
}
);
width = 527;
}
);
note = six;
unicode = 0036;
},
{
color = 4;
glyphname = seven;
lastChange = "2015-10-09 07:47:27 +0000";
layers = (
{
layerId = "18B4A443-2C69-4DCB-9619-77A7DD6AC8EC";
name = Light;
paths = (
{
closed = 1;
nodes = (
"61 707 LINE",
"44 573 LINE",
"68 573 LINE SMOOTH",
"82 573 OFFCURVE",
"90 581 OFFCURVE",
"93 597 CURVE",
"104 664 LINE",
"476 664 LINE",
"458 640 LINE",
"53 0 LINE",
"85 0 LINE SMOOTH",
"96 0 OFFCURVE",
"107 4 OFFCURVE",
"116 18 CURVE SMOOTH",
"519 661 LINE SMOOTH",
"524 669 OFFCURVE",
"527 679 OFFCURVE",
"528 686 CURVE SMOOTH",
"531 708 LINE"
);
}
);
width = 557;
}
);
note = seven;
unicode = 0037;
},
{
color = 4;
glyphname = eight;
lastChange = "2015-10-09 07:48:36 +0000";
layers = (
{
layerId = "18B4A443-2C69-4DCB-9619-77A7DD6AC8EC";
name = Light;
paths = (
{
closed = 1;
nodes = (
"363 -8 OFFCURVE",
"473 59 OFFCURVE",
"490 187 CURVE SMOOTH",
"501 283 OFFCURVE",
"453 349 OFFCURVE",
"358 370 CURVE",
"440 393 OFFCURVE",
"499 453 OFFCURVE",
"507 535 CURVE SMOOTH",
"520 647 OFFCURVE",
"439 716 OFFCURVE",
"325 716 CURVE SMOOTH",
"208 716 OFFCURVE",
"112 644 OFFCURVE",
"98 535 CURVE SMOOTH",
"91 455 OFFCURVE",
"125 395 OFFCURVE",
"207 370 CURVE",
"109 349 OFFCURVE",
"41 284 OFFCURVE",
"30 187 CURVE SMOOTH",
"14 64 OFFCURVE",
"107 -8 OFFCURVE",
"236 -8 CURVE SMOOTH"
);
},
{
closed = 1;
nodes = (
"135 30 OFFCURVE",
"66 91 OFFCURVE",
"79 188 CURVE SMOOTH",
"92 291 OFFCURVE",
"174 348 OFFCURVE",
"280 348 CURVE SMOOTH",
"388 348 OFFCURVE",
"455 290 OFFCURVE",
"441 188 CURVE SMOOTH",
"429 88 OFFCURVE",
"345 30 OFFCURVE",
"241 30 CURVE SMOOTH"
);
},
{
closed = 1;
nodes = (
"189 387 OFFCURVE",
"136 440 OFFCURVE",
"145 534 CURVE SMOOTH",
"155 620 OFFCURVE",
"225 678 OFFCURVE",
"321 678 CURVE SMOOTH",
"410 678 OFFCURVE",
"470 630 OFFCURVE",
"460 534 CURVE SMOOTH",
"451 448 OFFCURVE",
"382 387 OFFCURVE",
"285 387 CURVE SMOOTH"
);
}
);
width = 551;
}
);
note = eight;
unicode = 0038;
},
{
color = 4;
glyphname = nine;
lastChange = "2015-10-09 07:51:17 +0000";
layers = (
{
layerId = "18B4A443-2C69-4DCB-9619-77A7DD6AC8EC";
name = Light;
paths = (
{
closed = 1;
nodes = (
"284 301 OFFCURVE",
"341 324 OFFCURVE",
"387 368 CURVE",
"382 360 OFFCURVE",
"340 307 OFFCURVE",
"327 292 CURVE SMOOTH",
"82 0 LINE",
"125 0 LINE SMOOTH",
"136 0 OFFCURVE",
"145 4 OFFCURVE",
"151 12 CURVE SMOOTH",
"370 284 LINE SMOOTH",
"430 359 OFFCURVE",
"474 421 OFFCURVE",
"482 494 CURVE SMOOTH",
"498 622 OFFCURVE",
"423 716 OFFCURVE",
"296 716 CURVE SMOOTH",
"171 716 OFFCURVE",
"61 626 OFFCURVE",
"44 503 CURVE SMOOTH",
"28 389 OFFCURVE",
"98 301 OFFCURVE",
"220 301 CURVE SMOOTH"
);
},
{
closed = 1;
nodes = (
"428 412 OFFCURVE",
"340 338 OFFCURVE",
"238 338 CURVE SMOOTH",
"139 338 OFFCURVE",
"80 401 OFFCURVE",
"92 506 CURVE SMOOTH",
"104 602 OFFCURVE",
"184 676 OFFCURVE",
"290 676 CURVE SMOOTH",
"387 676 OFFCURVE",
"449 606 OFFCURVE",
"437 502 CURVE SMOOTH"
);
}
);
width = 517;
}
);
note = nine;
unicode = 0039;
},
{
color = 4;
glyphname = colon;
lastChange = "2015-10-08 21:02:43 +0000";
layers = (
{
layerId = "18B4A443-2C69-4DCB-9619-77A7DD6AC8EC";
name = Light;
paths = (
{
closed = 1;
nodes = (
"111 -8 OFFCURVE",
"135 14 OFFCURVE",
"137 39 CURVE SMOOTH",
"140 63 OFFCURVE",
"123 85 OFFCURVE",
"97 85 CURVE SMOOTH",
"71 85 OFFCURVE",
"47 63 OFFCURVE",
"45 39 CURVE SMOOTH",
"43 14 OFFCURVE",
"60 -8 OFFCURVE",
"86 -8 CURVE SMOOTH"
);
},
{
closed = 1;
nodes = (
"160 391 OFFCURVE",
"184 413 OFFCURVE",
"186 438 CURVE SMOOTH",
"189 462 OFFCURVE",
"172 484 OFFCURVE",
"146 484 CURVE SMOOTH",
"120 484 OFFCURVE",
"96 462 OFFCURVE",
"94 438 CURVE SMOOTH",
"92 413 OFFCURVE",
"109 391 OFFCURVE",
"135 391 CURVE SMOOTH"
);
}
);
width = 235;
}
);
note = colon;
unicode = 003A;
},
{
color = 4;
glyphname = less;
lastChange = "2015-10-08 17:18:36 +0000";
layers = (
{
layerId = "18B4A443-2C69-4DCB-9619-77A7DD6AC8EC";
name = Light;
paths = (
{
closed = 1;
nodes = (
"45 346 LINE",
"42 326 LINE",
"393 132 LINE",
"397 165 LINE",
"397 174 OFFCURVE",
"394 177 OFFCURVE",
"386 182 CURVE",
"127 323 LINE SMOOTH",
"118 328 OFFCURVE",
"106 332 OFFCURVE",
"92 335 CURVE",
"105 338 OFFCURVE",
"118 342 OFFCURVE",
"130 348 CURVE SMOOTH",
"424 488 LINE",
"429 491 OFFCURVE",
"437 496 OFFCURVE",
"439 506 CURVE",
"443 538 LINE"
);
}
);
width = 482;
}
);
note = less;
unicode = 003C;
},
{
color = 4;
glyphname = equal;
lastChange = "2015-10-08 15:06:03 +0000";
layers = (
{
layerId = "18B4A443-2C69-4DCB-9619-77A7DD6AC8EC";
name = Light;
paths = (
{
closed = 1;
nodes = (
"65 278 LINE",
"60 241 LINE",
"474 241 LINE",
"478 278 LINE"
);
},
{
closed = 1;
nodes = (
"84 434 LINE",
"79 398 LINE",
"493 398 LINE",
"497 434 LINE"
);
}
);
width = 552;
}
);
note = equal;
unicode = 003D;
},
{
color = 4;
glyphname = greater;
lastChange = "2015-10-08 21:02:36 +0000";
layers = (
{
layerId = "18B4A443-2C69-4DCB-9619-77A7DD6AC8EC";
name = Light;
paths = (
{
closed = 1;
nodes = (
"432 324 LINE",
"435 344 LINE",
"84 538 LINE",
"80 505 LINE",
"80 496 OFFCURVE",
"83 493 OFFCURVE",
"91 488 CURVE",
"350 347 LINE SMOOTH",
"359 342 OFFCURVE",
"371 338 OFFCURVE",
"385 335 CURVE",
"372 332 OFFCURVE",
"359 328 OFFCURVE",
"347 322 CURVE SMOOTH",
"53 182 LINE",
"48 179 OFFCURVE",
"40 174 OFFCURVE",
"38 164 CURVE",
"34 132 LINE"
);
}
);
width = 472;
}
);
note = greater;
unicode = 003E;
},
{
color = 4;
glyphname = question;
lastChange = "2015-10-08 21:04:03 +0000";
layers = (
{
layerId = "18B4A443-2C69-4DCB-9619-77A7DD6AC8EC";
name = Light;
paths = (
{
closed = 1;
nodes = (
"45 630 LINE SMOOTH",
"52 619 OFFCURVE",
"60 621 OFFCURVE",
"69 629 CURVE SMOOTH",
"102 657 OFFCURVE",
"148 676 OFFCURVE",
"199 676 CURVE SMOOTH",
"271 676 OFFCURVE",
"323 632 OFFCURVE",
"315 562 CURVE SMOOTH",
"307 504 OFFCURVE",
"272 463 OFFCURVE",
"218 427 CURVE SMOOTH",
"163 390 OFFCURVE",
"131 367 OFFCURVE",
"126 331 CURVE",
"118 243 LINE",
"150 243 LINE",
"166 325 LINE SMOOTH",
"173 358 OFFCURVE",
"205 373 OFFCURVE",
"261 414 CURVE",
"313 448 OFFCURVE",
"353 499 OFFCURVE",
"360 564 CURVE SMOOTH",
"372 654 OFFCURVE",
"302 716 OFFCURVE",
"208 716 CURVE SMOOTH",
"148 716 OFFCURVE",
"81 687 OFFCURVE",
"35 646 CURVE"
);
},
{
closed = 1;
nodes = (
"128 -8 OFFCURVE",
"152 14 OFFCURVE",
"154 39 CURVE SMOOTH",
"157 63 OFFCURVE",
"140 85 OFFCURVE",
"114 85 CURVE SMOOTH",
"88 85 OFFCURVE",
"64 63 OFFCURVE",
"62 39 CURVE SMOOTH",
"60 14 OFFCURVE",
"77 -8 OFFCURVE",
"103 -8 CURVE SMOOTH"
);
}
);
width = 392;
}
);
note = question;
unicode = 003F;
},
{
color = 4;
glyphname = at;
lastChange = "2015-10-08 21:08:13 +0000";
layers = (
{
layerId = "18B4A443-2C69-4DCB-9619-77A7DD6AC8EC";
name = Light;
paths = (
{
closed = 1;
nodes = (
"664 94 OFFCURVE",
"750 215 OFFCURVE",
"764 339 CURVE SMOOTH",
"789 535 OFFCURVE",
"660 666 OFFCURVE",
"463 666 CURVE SMOOTH",
"252 666 OFFCURVE",
"69 495 OFFCURVE",
"41 274 CURVE SMOOTH",
"11 40 OFFCURVE",
"149 -119 OFFCURVE",
"385 -119 CURVE SMOOTH",
"481 -119 OFFCURVE",
"583 -95 OFFCURVE",
"667 -42 CURVE",
"661 -24 LINE",
"659 -18 OFFCURVE",
"651 -15 OFFCURVE",
"643 -19 CURVE",
"574 -61 OFFCURVE",
"480 -86 OFFCURVE",
"389 -86 CURVE SMOOTH",
"178 -86 OFFCURVE",
"50 55 OFFCURVE",
"77 274 CURVE SMOOTH",
"100 471 OFFCURVE",
"264 632 OFFCURVE",
"459 632 CURVE SMOOTH",
"640 632 OFFCURVE",
"751 525 OFFCURVE",
"728 339 CURVE SMOOTH",
"714 234 OFFCURVE",
"655 126 OFFCURVE",
"558 126 CURVE SMOOTH",
"489 126 OFFCURVE",
"485 181 OFFCURVE",
"521 270 CURVE SMOOTH",
"588 444 LINE",
"565 455 OFFCURVE",
"527 462 OFFCURVE",
"498 462 CURVE SMOOTH",
"363 462 OFFCURVE",
"239 351 OFFCURVE",
"225 222 CURVE SMOOTH",
"217 147 OFFCURVE",
"248 96 OFFCURVE",
"319 96 CURVE SMOOTH",
"381 96 OFFCURVE",
"431 130 OFFCURVE",
"469 184 CURVE",
"463 125 OFFCURVE",
"489 94 OFFCURVE",
"548 94 CURVE SMOOTH"
);
},
{
closed = 1;
nodes = (
"279 129 OFFCURVE",
"256 173 OFFCURVE",
"264 223 CURVE SMOOTH",
"277 328 OFFCURVE",
"376 430 OFFCURVE",
"488 430 CURVE SMOOTH",
"512 430 OFFCURVE",
"517 428 OFFCURVE",
"542 422 CURVE",
"483 268 LINE SMOOTH",
"456 193 OFFCURVE",
"405 129 OFFCURVE",
"332 129 CURVE SMOOTH"
);
}
);
width = 806;
}
);
note = at;
unicode = 0040;
},
{
color = 6;
glyphname = A;
lastChange = "2015-10-08 14:01:27 +0000";
layers = (
{
anchors = (
{
name = bottom;
position = "{377, 0}";
},
{
name = ogonek;
position = "{679, 10}";
},
{
name = top;
position = "{446, 708}";
}
);
components = (
{
name = serifBottom;
transform = "{1, 0, 0, 1, -58, 0}";
},
{
name = serifBottom;
transform = "{1, 0, 0, 1, 494, 0}";
}
);
layerId = "18B4A443-2C69-4DCB-9619-77A7DD6AC8EC";
name = Light;
paths = (
{
closed = 1;
nodes = (
"104 0 LINE",
"128 46 LINE",
"225 232 LINE",
"563 232 LINE",
"615 46 LINE",
"628 0 LINE",
"681 0 LINE",
"667 46 LINE",
"478 708 LINE",
"427 708 LINE",
"75 46 LINE",
"49 0 LINE"
);
},
{
closed = 1;
nodes = (
"427 614 LINE SMOOTH",
"432 624 OFFCURVE",
"442 644 OFFCURVE",
"446 656 CURVE",
"448 644 OFFCURVE",
"453 625 OFFCURVE",
"455 615 CURVE",
"552 270 LINE",
"246 270 LINE"
);
}
);
width = 754;
}
);
leftKerningGroup = A;
note = A;
unicode = 0041;
},
{
color = 4;
glyphname = B;
lastChange = "2015-10-08 14:57:22 +0000";
layers = (
{
layerId = "18B4A443-2C69-4DCB-9619-77A7DD6AC8EC";
name = Light;
paths = (
{
closed = 1;
nodes = (
"548 346 OFFCURVE",
"440 362 CURVE",
"524 383 OFFCURVE",
"596 445 OFFCURVE",
"605 527 CURVE SMOOTH",
"618 657 OFFCURVE",
"533 708 OFFCURVE",
"392 708 CURVE SMOOTH",
"104 708 LINE",
"101 689 LINE",
"100 678 OFFCURVE",
"106 672 OFFCURVE",
"119 671 CURVE",
"183 669 LINE",
"106 40 LINE",
"41 38 LINE",
"28 37 OFFCURVE",
"20 31 OFFCURVE",
"19 20 CURVE SMOOTH",
"17 0 LINE",
"331 0 LINE SMOOTH",
"470 0 OFFCURVE",
"575 60 OFFCURVE",
"593 193 CURVE SMOOTH",
"605 289 OFFCURVE"
);
},
{
closed = 1;
nodes = (
"234 668 LINE",
"387 668 LINE SMOOTH",
"496 668 OFFCURVE",
"567 629 OFFCURVE",
"554 522 CURVE SMOOTH",
"544 430 OFFCURVE",
"455 376 OFFCURVE",
"352 376 CURVE SMOOTH",
"198 376 LINE"
);
},
{
closed = 1;
nodes = (
"453 41 OFFCURVE",
"335 41 CURVE SMOOTH",
"157 41 LINE",
"194 339 LINE",
"372 339 LINE SMOOTH",
"476 339 OFFCURVE",
"556 293 OFFCURVE",
"542 194 CURVE SMOOTH",
"529 90 OFFCURVE"
);
}
);
width = 639;
}
);
note = B;
unicode = 0042;
},
{
color = 4;
glyphname = C;
lastChange = "2015-10-08 14:56:31 +0000";
layers = (
{
anchors = (
{
name = bottom;
position = "{328, 0}";
},
{
name = top;
position = "{328, 708}";
}
);
layerId = "18B4A443-2C69-4DCB-9619-77A7DD6AC8EC";
name = Light;
paths = (
{
closed = 1;
nodes = (
"574 115 LINE",
"569 121 OFFCURVE",
"560 118 OFFCURVE",
"555 114 CURVE",
"489 60 OFFCURVE",
"427 36 OFFCURVE",
"334 36 CURVE SMOOTH",
"160 36 OFFCURVE",
"68 167 OFFCURVE",
"90 354 CURVE SMOOTH",
"112 538 OFFCURVE",
"241 671 OFFCURVE",
"423 671 CURVE SMOOTH",
"487 671 OFFCURVE",
"544 661 OFFCURVE",
"593 638 CURVE",
"585 529 LINE",
"584 513 OFFCURVE",
"590 505 OFFCURVE",
"604 505 CURVE SMOOTH",
"628 505 LINE",
"648 665 LINE",
"568 699 OFFCURVE",
"494 715 OFFCURVE",
"428 715 CURVE SMOOTH",
"218 715 OFFCURVE",
"65 566 OFFCURVE",
"37 354 CURVE SMOOTH",
"11 152 OFFCURVE",
"118 -8 OFFCURVE",
"325 -8 CURVE SMOOTH",
"427 -8 OFFCURVE",
"518 25 OFFCURVE",
"591 94 CURVE"
);
}
);
width = 655;
}
);
note = C;
unicode = 0043;
},
{
glyphname = D;
layers = (
{
layerId = "18B4A443-2C69-4DCB-9619-77A7DD6AC8EC";
name = Light;
paths = (
{
closed = 1;
nodes = (
"710 545 OFFCURVE",
"692 581 OFFCURVE",
"666 612 CURVE SMOOTH",
"640 643 OFFCURVE",
"607 667 OFFCURVE",
"568 683 CURVE SMOOTH",
"529 699 OFFCURVE",
"483 707 OFFCURVE",
"433 707 CURVE SMOOTH",
"188 707 LINE",
"103 707 LINE",
"101 688 LINE SMOOTH",
"100 677 OFFCURVE",
"106 671 OFFCURVE",
"119 670 CURVE",
"128 670 LINE SMOOTH",
"133 670 OFFCURVE",
"140 669 OFFCURVE",
"150 669 CURVE SMOOTH",
"160 669 OFFCURVE",
"171 668 OFFCURVE",
"183 668 CURVE",
"106 40 LINE",
"94 40 OFFCURVE",
"83 39 OFFCURVE",
"73 39 CURVE SMOOTH",
"63 39 OFFCURVE",
"55 38 OFFCURVE",
"50 38 CURVE SMOOTH",
"41 38 LINE",
"28 37 OFFCURVE",
"20 31 OFFCURVE",
"19 20 CURVE",
"16 0 LINE",
"101 0 LINE",
"346 0 LINE SMOOTH",
"396 0 OFFCURVE",
"444 8 OFFCURVE",
"487 24 CURVE SMOOTH",
"530 40 OFFCURVE",
"569 64 OFFCURVE",
"602 95 CURVE SMOOTH",
"635 126 OFFCURVE",
"663 163 OFFCURVE",
"685 207 CURVE SMOOTH",
"707 251 OFFCURVE",
"720 299 OFFCURVE",
"727 354 CURVE SMOOTH",
"734 408 OFFCURVE",
"732 457 OFFCURVE",
"721 501 CURVE SMOOTH"
);
},
{
closed = 1;
nodes = (
"620 182 OFFCURVE",
"596 150 OFFCURVE",
"568 123 CURVE SMOOTH",
"540 96 OFFCURVE",
"507 76 OFFCURVE",
"470 62 CURVE SMOOTH",
"433 48 OFFCURVE",
"394 41 OFFCURVE",
"351 41 CURVE SMOOTH",
"157 41 LINE",
"234 666 LINE",
"428 666 LINE SMOOTH",
"471 666 OFFCURVE",
"509 659 OFFCURVE",
"542 645 CURVE SMOOTH",
"575 631 OFFCURVE",
"602 611 OFFCURVE",
"624 584 CURVE SMOOTH",
"646 557 OFFCURVE",
"661 525 OFFCURVE",
"670 486 CURVE SMOOTH",
"679 447 OFFCURVE",
"680 403 OFFCURVE",
"674 354 CURVE SMOOTH",
"668 304 OFFCURVE",
"656 260 OFFCURVE",
"638 221 CURVE SMOOTH"
);
}
);
width = 763;
}
);
note = D;
unicode = 0044;
},
{
glyphname = E;
layers = (
{
layerId = "18B4A443-2C69-4DCB-9619-77A7DD6AC8EC";
name = Light;
paths = (
{
closed = 1;
nodes = (
"188 707 LINE",
"103 707 LINE",
"101 688 LINE SMOOTH",
"100 677 OFFCURVE",
"106 671 OFFCURVE",
"119 670 CURVE",
"128 670 LINE SMOOTH",
"133 670 OFFCURVE",
"140 669 OFFCURVE",
"150 669 CURVE SMOOTH",
"160 669 OFFCURVE",
"171 668 OFFCURVE",
"183 668 CURVE",
"106 40 LINE",
"94 40 OFFCURVE",
"83 39 OFFCURVE",
"73 39 CURVE SMOOTH",
"63 39 OFFCURVE",
"55 38 OFFCURVE",
"50 38 CURVE SMOOTH",
"41 38 LINE",
"28 37 OFFCURVE",
"20 31 OFFCURVE",
"19 20 CURVE",
"16 0 LINE",
"101 0 LINE",
"525 0 LINE",
"530 43 LINE",
"543 147 LINE",
"518 147 LINE SMOOTH",
"504 147 OFFCURVE",
"497 138 OFFCURVE",
"494 122 CURVE",
"494 120 OFFCURVE",
"493 116 OFFCURVE",
"492 109 CURVE SMOOTH",
"491 102 OFFCURVE",
"489 92 OFFCURVE",
"486 77 CURVE SMOOTH",
"483 62 OFFCURVE",
"481 52 OFFCURVE",
"480 43 CURVE",
"157 43 LINE",
"194 338 LINE",
"475 338 LINE",
"480 379 LINE",
"199 379 LINE",
"234 665 LINE",
"557 665 LINE",
"554 621 OFFCURVE",
"552 594 OFFCURVE",
"551 585 CURVE",
"550 569 OFFCURVE",
"555 561 OFFCURVE",
"569 561 CURVE SMOOTH",
"594 561 LINE",
"606 665 LINE",
"612 707 LINE"
);
}
);
width = 622;
}
);
note = E;
unicode = 0045;
},
{
glyphname = F;
layers = (
{
layerId = "18B4A443-2C69-4DCB-9619-77A7DD6AC8EC";
name = Light;
paths = (
{
closed = 1;
nodes = (
"612 707 LINE",
"587 707 LINE",
"188 707 LINE",
"103 707 LINE",
"101 688 LINE SMOOTH",
"100 677 OFFCURVE",
"106 671 OFFCURVE",
"119 670 CURVE",
"128 670 LINE SMOOTH",
"133 670 OFFCURVE",
"140 669 OFFCURVE",
"150 669 CURVE SMOOTH",
"160 669 OFFCURVE",
"171 668 OFFCURVE",
"183 668 CURVE",
"106 40 LINE",
"94 40 OFFCURVE",
"83 39 OFFCURVE",
"73 39 CURVE SMOOTH",
"63 39 OFFCURVE",
"55 38 OFFCURVE",
"50 38 CURVE SMOOTH",
"41 38 LINE",
"28 37 OFFCURVE",
"20 31 OFFCURVE",
"19 20 CURVE",
"16 0 LINE",
"101 0 LINE",
"152 0 LINE",
"236 0 LINE",
"239 20 LINE",
"240 31 OFFCURVE",
"234 37 OFFCURVE",
"221 38 CURVE",
"212 38 LINE SMOOTH",
"207 38 OFFCURVE",
"200 39 OFFCURVE",
"190 39 CURVE SMOOTH",
"180 39 OFFCURVE",
"169 40 OFFCURVE",
"157 40 CURVE",
"192 325 LINE",
"456 325 LINE",
"462 368 LINE",
"197 368 LINE",
"234 665 LINE",
"563 665 LINE",
"559 617 OFFCURVE",
"557 590 OFFCURVE",
"557 585 CURVE",
"556 569 OFFCURVE",
"562 561 OFFCURVE",
"576 561 CURVE SMOOTH",
"600 561 LINE",
"618 707 LINE"
);
}
);
width = 629;
}
);
note = F;
unicode = 0046;
},
{
glyphname = G;
layers = (
{
layerId = "18B4A443-2C69-4DCB-9619-77A7DD6AC8EC";
name = Light;
paths = (
{
closed = 1;
nodes = (
"449 321 LINE",
"446 293 LINE",
"446 290 OFFCURVE",
"447 287 OFFCURVE",
"449 285 CURVE SMOOTH",
"451 283 OFFCURVE",
"453 282 OFFCURVE",
"457 282 CURVE SMOOTH",
"593 282 LINE",
"570 91 LINE",
"553 82 OFFCURVE",
"536 74 OFFCURVE",
"520 67 CURVE SMOOTH",
"504 60 OFFCURVE",
"487 53 OFFCURVE",
"469 48 CURVE SMOOTH",
"451 43 OFFCURVE",
"432 39 OFFCURVE",
"412 37 CURVE SMOOTH",
"392 35 OFFCURVE",
"369 34 OFFCURVE",
"345 34 CURVE SMOOTH",
"301 34 OFFCURVE",
"262 41 OFFCURVE",
"228 56 CURVE SMOOTH",
"194 71 OFFCURVE",
"165 92 OFFCURVE",
"143 119 CURVE SMOOTH",
"121 146 OFFCURVE",
"104 180 OFFCURVE",
"95 220 CURVE SMOOTH",
"86 260 OFFCURVE",
"84 304 OFFCURVE",
"90 354 CURVE SMOOTH",
"96 403 OFFCURVE",
"108 447 OFFCURVE",
"127 486 CURVE SMOOTH",
"146 525 OFFCURVE",
"170 559 OFFCURVE",
"200 586 CURVE SMOOTH",
"230 613 OFFCURVE",
"264 634 OFFCURVE",
"303 649 CURVE SMOOTH",
"342 664 OFFCURVE",
"384 671 OFFCURVE",
"430 671 CURVE SMOOTH",
"514 671 OFFCURVE",
"579 660 OFFCURVE",
"625 637 CURVE",
"620 572 OFFCURVE",
"618 536 OFFCURVE",
"617 529 CURVE",
"616 513 OFFCURVE",
"622 505 OFFCURVE",
"636 505 CURVE SMOOTH",
"660 505 LINE",
"679 665 LINE",
"649 679 OFFCURVE",
"611 691 OFFCURVE",
"563 701 CURVE SMOOTH",
"515 711 OFFCURVE",
"473 715 OFFCURVE",
"437 715 CURVE SMOOTH",
"383 715 OFFCURVE",
"332 707 OFFCURVE",
"286 690 CURVE SMOOTH",
"240 673 OFFCURVE",
"201 648 OFFCURVE",
"166 617 CURVE SMOOTH",
"131 586 OFFCURVE",
"103 548 OFFCURVE",
"81 503 CURVE SMOOTH",
"59 459 OFFCURVE",
"44 409 OFFCURVE",
"37 354 CURVE SMOOTH",
"30 299 OFFCURVE",
"33 250 OFFCURVE",
"44 205 CURVE SMOOTH",
"55 160 OFFCURVE",
"74 123 OFFCURVE",
"100 91 CURVE SMOOTH",
"126 59 OFFCURVE",
"160 35 OFFCURVE",
"200 18 CURVE SMOOTH",
"240 1 OFFCURVE",
"285 -8 OFFCURVE",
"336 -8 CURVE SMOOTH",
"366 -8 OFFCURVE",
"394 -6 OFFCURVE",
"419 -3 CURVE",
"444 1 OFFCURVE",
"469 6 OFFCURVE",
"491 12 CURVE SMOOTH",
"514 19 OFFCURVE",
"535 27 OFFCURVE",
"555 37 CURVE SMOOTH",
"575 47 OFFCURVE",
"595 58 OFFCURVE",
"614 70 CURVE",
"645 321 LINE"
);
}
);
width = 696;
}
);
note = G;
unicode = 0047;
},
{
glyphname = H;
layers = (
{
layerId = "18B4A443-2C69-4DCB-9619-77A7DD6AC8EC";
name = Light;
paths = (
{
closed = 1;
nodes = (
"793 670 LINE",
"806 671 OFFCURVE",
"814 677 OFFCURVE",
"815 688 CURVE",
"818 707 LINE",
"734 707 LINE",
"682 707 LINE",
"598 707 LINE",
"595 688 LINE",
"594 677 OFFCURVE",
"600 671 OFFCURVE",
"613 670 CURVE",
"623 670 LINE SMOOTH",
"628 670 OFFCURVE",
"635 669 OFFCURVE",
"645 669 CURVE SMOOTH",
"655 669 OFFCURVE",
"665 668 OFFCURVE",
"677 668 CURVE",
"642 378 LINE",
"199 378 LINE",
"234 668 LINE",
"246 668 OFFCURVE",
"257 669 OFFCURVE",
"267 669 CURVE SMOOTH",
"277 669 OFFCURVE",
"284 670 OFFCURVE",
"289 670 CURVE SMOOTH",
"299 670 LINE",
"312 671 OFFCURVE",
"320 677 OFFCURVE",
"321 688 CURVE SMOOTH",
"323 707 LINE",
"239 707 LINE",
"188 707 LINE",
"103 707 LINE",
"101 688 LINE SMOOTH",
"100 677 OFFCURVE",
"106 671 OFFCURVE",
"119 670 CURVE",
"128 670 LINE SMOOTH",
"133 670 OFFCURVE",
"140 669 OFFCURVE",
"150 669 CURVE SMOOTH",
"160 669 OFFCURVE",
"171 668 OFFCURVE",
"183 668 CURVE",
"106 40 LINE",
"94 40 OFFCURVE",
"83 39 OFFCURVE",
"73 39 CURVE SMOOTH",
"63 39 OFFCURVE",
"55 38 OFFCURVE",
"50 38 CURVE SMOOTH",
"41 38 LINE",
"28 37 OFFCURVE",
"20 31 OFFCURVE",
"19 20 CURVE",
"16 0 LINE",
"101 0 LINE",
"152 0 LINE",
"236 0 LINE",
"239 20 LINE",
"240 31 OFFCURVE",
"234 37 OFFCURVE",
"221 38 CURVE",
"212 38 LINE SMOOTH",
"207 38 OFFCURVE",
"200 39 OFFCURVE",
"190 39 CURVE SMOOTH",
"180 39 OFFCURVE",
"169 40 OFFCURVE",
"157 40 CURVE",
"194 339 LINE",
"637 339 LINE",
"600 40 LINE",
"588 40 OFFCURVE",
"577 39 OFFCURVE",
"567 39 CURVE SMOOTH",
"557 39 OFFCURVE",
"550 38 OFFCURVE",
"545 38 CURVE SMOOTH",
"535 38 LINE",
"522 37 OFFCURVE",
"514 31 OFFCURVE",
"513 20 CURVE SMOOTH",
"511 0 LINE",
"595 0 LINE",
"647 0 LINE",
"731 0 LINE",
"733 20 LINE SMOOTH",
"734 31 OFFCURVE",
"729 37 OFFCURVE",
"716 38 CURVE",
"706 38 LINE SMOOTH",
"701 38 OFFCURVE",
"694 39 OFFCURVE",
"684 39 CURVE SMOOTH",
"674 39 OFFCURVE",
"664 40 OFFCURVE",
"652 40 CURVE",
"729 668 LINE",
"741 668 OFFCURVE",
"752 669 OFFCURVE",
"762 669 CURVE SMOOTH",
"772 669 OFFCURVE",
"779 670 OFFCURVE",
"784 670 CURVE SMOOTH"
);
}
);
width = 827;
}
);
note = H;
unicode = 0048;
},
{
glyphname = I;
layers = (
{
layerId = "18B4A443-2C69-4DCB-9619-77A7DD6AC8EC";
name = Light;
paths = (
{
closed = 1;
nodes = (
"299 670 LINE",
"312 671 OFFCURVE",
"320 677 OFFCURVE",
"321 688 CURVE SMOOTH",
"323 708 LINE",
"239 708 LINE",
"188 708 LINE",
"103 708 LINE",
"101 688 LINE SMOOTH",
"100 677 OFFCURVE",
"106 671 OFFCURVE",
"119 670 CURVE",
"128 670 LINE SMOOTH",
"133 670 OFFCURVE",
"140 669 OFFCURVE",
"150 669 CURVE SMOOTH",
"160 669 OFFCURVE",
"171 668 OFFCURVE",
"183 668 CURVE",
"106 40 LINE",
"94 40 OFFCURVE",
"83 39 OFFCURVE",
"73 39 CURVE SMOOTH",
"63 39 OFFCURVE",
"55 38 OFFCURVE",
"50 38 CURVE SMOOTH",
"41 38 LINE",
"28 37 OFFCURVE",
"20 31 OFFCURVE",
"19 20 CURVE",
"16 0 LINE",
"101 0 LINE",
"152 0 LINE",
"236 0 LINE",
"239 20 LINE",
"240 31 OFFCURVE",
"234 37 OFFCURVE",
"221 38 CURVE",
"212 38 LINE SMOOTH",
"207 38 OFFCURVE",
"200 39 OFFCURVE",
"190 39 CURVE SMOOTH",
"180 39 OFFCURVE",
"169 40 OFFCURVE",
"157 40 CURVE",
"234 668 LINE",
"246 668 OFFCURVE",
"257 669 OFFCURVE",
"267 669 CURVE SMOOTH",
"277 669 OFFCURVE",
"284 670 OFFCURVE",
"289 670 CURVE SMOOTH"
);
}
);
width = 332;
}
);
note = I;
unicode = 0049;
},
{
glyphname = J;
layers = (
{
layerId = "18B4A443-2C69-4DCB-9619-77A7DD6AC8EC";
name = Light;
paths = (
{
closed = 1;
nodes = (
"410 708 LINE",
"358 708 LINE",
"267 708 LINE",
"264 688 LINE",
"263 677 OFFCURVE",
"269 671 OFFCURVE",
"282 670 CURVE",
"293 670 LINE SMOOTH",
"299 670 OFFCURVE",
"308 669 OFFCURVE",
"319 669 CURVE SMOOTH",
"330 669 OFFCURVE",
"341 668 OFFCURVE",
"353 668 CURVE",
"300 235 LINE SMOOTH",
"296 201 OFFCURVE",
"289 171 OFFCURVE",
"278 146 CURVE SMOOTH",
"267 121 OFFCURVE",
"253 100 OFFCURVE",
"237 84 CURVE SMOOTH",
"221 68 OFFCURVE",
"202 55 OFFCURVE",
"181 47 CURVE SMOOTH",
"160 39 OFFCURVE",
"136 35 OFFCURVE",
"111 35 CURVE SMOOTH",
"101 35 OFFCURVE",
"92 36 OFFCURVE",
"85 37 CURVE SMOOTH",
"78 38 OFFCURVE",
"71 40 OFFCURVE",
"65 41 CURVE SMOOTH",
"59 42 OFFCURVE",
"55 43 OFFCURVE",
"51 44 CURVE SMOOTH",
"47 45 OFFCURVE",
"43 46 OFFCURVE",
"40 46 CURVE SMOOTH",
"35 46 OFFCURVE",
"32 45 OFFCURVE",
"30 43 CURVE SMOOTH",
"28 41 OFFCURVE",
"26 38 OFFCURVE",
"25 35 CURVE",
"24 30 OFFCURVE",
"23 26 OFFCURVE",
"22 21 CURVE SMOOTH",
"21 16 OFFCURVE",
"20 12 OFFCURVE",
"19 7 CURVE",
"35 2 OFFCURVE",
"50 -2 OFFCURVE",
"65 -4 CURVE SMOOTH",
"80 -6 OFFCURVE",
"95 -8 OFFCURVE",
"110 -8 CURVE SMOOTH",
"143 -8 OFFCURVE",
"173 -2 OFFCURVE",
"200 8 CURVE SMOOTH",
"227 19 OFFCURVE",
"252 34 OFFCURVE",
"273 55 CURVE SMOOTH",
"294 76 OFFCURVE",
"310 101 OFFCURVE",
"324 131 CURVE SMOOTH",
"338 161 OFFCURVE",
"347 196 OFFCURVE",
"352 236 CURVE SMOOTH",
"405 668 LINE",
"417 668 OFFCURVE",
"428 669 OFFCURVE",
"438 669 CURVE SMOOTH",
"448 669 OFFCURVE",
"455 670 OFFCURVE",
"460 670 CURVE SMOOTH",
"469 670 LINE",
"482 671 OFFCURVE",
"490 677 OFFCURVE",
"491 688 CURVE",
"494 708 LINE"
);
}
);
width = 503;
}
);
note = J;
unicode = 004A;
},
{
glyphname = K;
layers = (
{
layerId = "18B4A443-2C69-4DCB-9619-77A7DD6AC8EC";
name = Light;
paths = (
{
closed = 1;
nodes = (
"622 38 LINE",
"609 38 LINE SMOOTH",
"603 38 OFFCURVE",
"597 39 OFFCURVE",
"590 39 CURVE",
"338 340 LINE",
"333 347 OFFCURVE",
"328 352 OFFCURVE",
"323 356 CURVE SMOOTH",
"318 360 OFFCURVE",
"313 363 OFFCURVE",
"306 365 CURVE",
"312 367 OFFCURVE",
"318 370 OFFCURVE",
"323 374 CURVE SMOOTH",
"328 378 OFFCURVE",
"335 383 OFFCURVE",
"342 390 CURVE",
"647 669 LINE",
"666 669 LINE SMOOTH",
"672 669 OFFCURVE",
"676 670 OFFCURVE",
"679 670 CURVE SMOOTH",
"685 670 LINE",
"698 671 OFFCURVE",
"706 677 OFFCURVE",
"707 688 CURVE SMOOTH",
"709 708 LINE",
"639 708 LINE",
"630 708 LINE",
"502 708 LINE",
"499 688 LINE",
"498 677 OFFCURVE",
"504 671 OFFCURVE",
"517 670 CURVE",
"529 670 LINE SMOOTH",
"536 670 OFFCURVE",
"545 669 OFFCURVE",
"557 669 CURVE SMOOTH",
"589 669 LINE",
"293 400 LINE",
"289 396 OFFCURVE",
"286 392 OFFCURVE",
"282 390 CURVE SMOOTH",
"278 388 OFFCURVE",
"274 387 OFFCURVE",
"270 385 CURVE",
"266 384 OFFCURVE",
"262 382 OFFCURVE",
"257 382 CURVE",
"252 381 OFFCURVE",
"247 381 OFFCURVE",
"241 381 CURVE SMOOTH",
"199 381 LINE",
"234 669 LINE",
"246 669 OFFCURVE",
"257 670 OFFCURVE",
"267 670 CURVE SMOOTH",
"277 670 OFFCURVE",
"284 671 OFFCURVE",
"289 671 CURVE SMOOTH",
"298 671 LINE",
"311 672 OFFCURVE",
"319 678 OFFCURVE",
"320 689 CURVE",
"323 708 LINE",
"239 708 LINE",
"188 708 LINE",
"103 708 LINE",
"101 689 LINE SMOOTH",
"100 678 OFFCURVE",
"106 672 OFFCURVE",
"119 671 CURVE",
"128 671 LINE SMOOTH",
"133 671 OFFCURVE",
"140 670 OFFCURVE",
"150 670 CURVE SMOOTH",
"160 670 OFFCURVE",
"171 669 OFFCURVE",
"183 669 CURVE",
"106 40 LINE",
"94 40 OFFCURVE",
"83 39 OFFCURVE",
"73 39 CURVE SMOOTH",
"63 39 OFFCURVE",
"55 38 OFFCURVE",
"50 38 CURVE SMOOTH",
"41 38 LINE",
"28 37 OFFCURVE",
"20 31 OFFCURVE",
"19 20 CURVE",
"16 0 LINE",
"101 0 LINE",
"152 0 LINE",
"236 0 LINE",
"238 20 LINE SMOOTH",
"239 31 OFFCURVE",
"234 37 OFFCURVE",
"221 38 CURVE",
"211 38 LINE SMOOTH",
"206 38 OFFCURVE",
"199 39 OFFCURVE",
"189 39 CURVE SMOOTH",
"179 39 OFFCURVE",
"169 40 OFFCURVE",
"157 40 CURVE",
"194 341 LINE",
"239 341 LINE SMOOTH",
"247 341 OFFCURVE",
"254 341 OFFCURVE",
"259 340 CURVE SMOOTH",
"264 339 OFFCURVE",
"268 338 OFFCURVE",
"272 336 CURVE SMOOTH",
"276 334 OFFCURVE",
"279 332 OFFCURVE",
"282 329 CURVE SMOOTH",
"285 326 OFFCURVE",
"287 324 OFFCURVE",
"290 320 CURVE",
"531 39 LINE",
"521 39 OFFCURVE",
"510 38 OFFCURVE",
"498 38 CURVE SMOOTH",
"468 38 LINE",
"455 38 LINE",
"442 37 OFFCURVE",
"434 31 OFFCURVE",
"433 20 CURVE SMOOTH",
"431 0 LINE",
"564 0 LINE",
"568 0 LINE",
"581 0 LINE",
"622 0 LINE",
"643 0 LINE",
"646 20 LINE",
"647 31 OFFCURVE",
"641 37 OFFCURVE",
"628 38 CURVE"
);
}
);
width = 718;
}
);
note = K;
unicode = 004B;
},
{
glyphname = L;
layers = (
{
layerId = "18B4A443-2C69-4DCB-9619-77A7DD6AC8EC";
name = Light;
paths = (
{
closed = 1;
nodes = (
"488 132 LINE SMOOTH",
"474 132 OFFCURVE",
"466 124 OFFCURVE",
"463 108 CURVE",
"463 107 OFFCURVE",
"462 103 OFFCURVE",
"461 99 CURVE SMOOTH",
"460 95 OFFCURVE",
"459 88 OFFCURVE",
"457 79 CURVE SMOOTH",
"455 70 OFFCURVE",
"452 58 OFFCURVE",
"450 44 CURVE",
"157 44 LINE",
"234 668 LINE",
"246 668 OFFCURVE",
"257 669 OFFCURVE",
"267 669 CURVE SMOOTH",
"277 669 OFFCURVE",
"284 670 OFFCURVE",
"289 670 CURVE SMOOTH",
"298 670 LINE",
"311 671 OFFCURVE",
"319 677 OFFCURVE",
"320 688 CURVE",
"323 707 LINE",
"238 707 LINE",
"188 707 LINE",
"103 707 LINE",
"101 688 LINE SMOOTH",
"100 677 OFFCURVE",
"106 671 OFFCURVE",
"119 670 CURVE",
"128 670 LINE SMOOTH",
"133 670 OFFCURVE",
"140 669 OFFCURVE",
"150 669 CURVE SMOOTH",
"160 669 OFFCURVE",
"171 668 OFFCURVE",
"183 668 CURVE",
"106 40 LINE",
"94 40 OFFCURVE",
"83 39 OFFCURVE",
"73 39 CURVE SMOOTH",
"63 39 OFFCURVE",
"55 38 OFFCURVE",
"50 38 CURVE SMOOTH",
"41 38 LINE",
"28 37 OFFCURVE",
"20 31 OFFCURVE",
"19 20 CURVE",
"16 0 LINE",
"101 0 LINE",
"478 0 LINE",
"487 0 LINE",
"496 0 LINE",
"498 19 LINE",
"503 59 LINE",
"512 132 LINE",
"492 132 LINE"
);
}
);
width = 556;
}
);
note = L;
unicode = 004C;
},
{
glyphname = M;
layers = (
{
layerId = "18B4A443-2C69-4DCB-9619-77A7DD6AC8EC";
name = Light;
paths = (
{
closed = 1;
nodes = (
"946 670 LINE",
"959 671 OFFCURVE",
"967 677 OFFCURVE",
"968 688 CURVE",
"971 707 LINE",
"887 707 LINE",
"851 707 LINE SMOOTH",
"846 707 OFFCURVE",
"843 707 OFFCURVE",
"840 706 CURVE SMOOTH",
"837 705 OFFCURVE",
"834 702 OFFCURVE",
"831 698 CURVE",
"493 207 LINE",
"484 192 LINE SMOOTH",
"481 187 OFFCURVE",
"478 181 OFFCURVE",
"475 176 CURVE",
"473 187 OFFCURVE",
"470 197 OFFCURVE",
"466 206 CURVE SMOOTH",
"241 698 LINE SMOOTH",
"239 702 OFFCURVE",
"237 705 OFFCURVE",
"234 706 CURVE SMOOTH",
"231 707 OFFCURVE",
"228 707 OFFCURVE",
"223 707 CURVE SMOOTH",
"188 707 LINE",
"103 707 LINE",
"101 688 LINE SMOOTH",
"100 677 OFFCURVE",
"106 671 OFFCURVE",
"119 670 CURVE",
"128 670 LINE SMOOTH",
"133 670 OFFCURVE",
"140 669 OFFCURVE",
"150 669 CURVE SMOOTH",
"160 669 OFFCURVE",
"171 668 OFFCURVE",
"183 668 CURVE",
"106 40 LINE",
"94 40 OFFCURVE",
"83 39 OFFCURVE",
"73 39 CURVE SMOOTH",
"63 39 OFFCURVE",
"55 38 OFFCURVE",
"50 38 CURVE SMOOTH",
"41 38 LINE",
"28 37 OFFCURVE",
"20 31 OFFCURVE",
"19 20 CURVE",
"16 0 LINE",
"101 0 LINE",
"145 0 LINE",
"232 0 LINE",
"234 20 LINE SMOOTH",
"235 31 OFFCURVE",
"229 37 OFFCURVE",
"216 38 CURVE",
"206 38 LINE SMOOTH",
"201 38 OFFCURVE",
"193 39 OFFCURVE",
"183 39 CURVE SMOOTH",
"173 39 OFFCURVE",
"162 40 OFFCURVE",
"150 40 CURVE",
"219 603 LINE SMOOTH",
"220 612 OFFCURVE",
"221 621 OFFCURVE",
"221 631 CURVE",
"446 136 LINE SMOOTH",
"450 127 OFFCURVE",
"457 123 OFFCURVE",
"465 123 CURVE SMOOTH",
"473 123 LINE SMOOTH",
"482 123 OFFCURVE",
"488 127 OFFCURVE",
"494 136 CURVE SMOOTH",
"834 631 LINE",
"832 621 OFFCURVE",
"830 612 OFFCURVE",
"829 603 CURVE SMOOTH",
"760 40 LINE",
"748 40 OFFCURVE",
"736 39 OFFCURVE",
"726 39 CURVE SMOOTH",
"716 39 OFFCURVE",
"708 38 OFFCURVE",
"703 38 CURVE SMOOTH",
"693 38 LINE",
"680 37 OFFCURVE",
"672 31 OFFCURVE",
"671 20 CURVE",
"668 0 LINE",
"755 0 LINE",
"800 0 LINE",
"884 0 LINE",
"886 20 LINE SMOOTH",
"887 31 OFFCURVE",
"882 37 OFFCURVE",
"869 38 CURVE",
"859 38 LINE SMOOTH",
"854 38 OFFCURVE",
"847 39 OFFCURVE",
"837 39 CURVE SMOOTH",
"827 39 OFFCURVE",
"817 40 OFFCURVE",
"805 40 CURVE",
"882 668 LINE",
"894 668 OFFCURVE",
"905 669 OFFCURVE",
"915 669 CURVE SMOOTH",
"925 669 OFFCURVE",
"932 670 OFFCURVE",
"937 670 CURVE SMOOTH"
);
}
);
width = 980;
}
);
note = M;
unicode = 004D;
},
{
glyphname = N;
layers = (
{
layerId = "18B4A443-2C69-4DCB-9619-77A7DD6AC8EC";
name = Light;
paths = (
{
closed = 1;
nodes = (
"734 707 LINE",
"689 707 LINE",
"602 707 LINE",
"600 688 LINE SMOOTH",
"599 677 OFFCURVE",
"604 671 OFFCURVE",
"617 670 CURVE",
"627 670 LINE SMOOTH",
"632 670 OFFCURVE",
"641 669 OFFCURVE",
"651 669 CURVE SMOOTH",
"661 669 OFFCURVE",
"672 668 OFFCURVE",
"684 668 CURVE",
"616 114 LINE SMOOTH",
"615 105 OFFCURVE",
"614 95 OFFCURVE",
"614 85 CURVE",
"231 698 LINE",
"229 702 OFFCURVE",
"226 705 OFFCURVE",
"223 706 CURVE SMOOTH",
"220 707 OFFCURVE",
"218 708 OFFCURVE",
"213 708 CURVE SMOOTH",
"188 708 LINE",
"103 708 LINE",
"101 688 LINE SMOOTH",
"100 677 OFFCURVE",
"106 671 OFFCURVE",
"119 670 CURVE",
"128 670 LINE SMOOTH",
"133 670 OFFCURVE",
"140 669 OFFCURVE",
"150 669 CURVE SMOOTH",
"160 669 OFFCURVE",
"171 668 OFFCURVE",
"183 668 CURVE",
"106 40 LINE",
"94 40 OFFCURVE",
"83 39 OFFCURVE",
"73 39 CURVE SMOOTH",
"63 39 OFFCURVE",
"55 38 OFFCURVE",
"50 38 CURVE SMOOTH",
"41 38 LINE",
"28 37 OFFCURVE",
"20 31 OFFCURVE",
"19 20 CURVE",
"16 0 LINE",
"101 0 LINE",
"145 0 LINE",
"232 0 LINE",
"234 20 LINE SMOOTH",
"235 31 OFFCURVE",
"229 37 OFFCURVE",
"216 38 CURVE",
"206 38 LINE SMOOTH",
"201 38 OFFCURVE",
"193 39 OFFCURVE",
"183 39 CURVE SMOOTH",
"173 39 OFFCURVE",
"162 40 OFFCURVE",
"150 40 CURVE",
"218 595 LINE SMOOTH",
"219 604 OFFCURVE",
"220 614 OFFCURVE",
"220 624 CURVE",
"605 10 LINE",
"609 3 OFFCURVE",
"614 0 OFFCURVE",
"622 0 CURVE SMOOTH",
"647 0 LINE",
"729 668 LINE",
"741 668 OFFCURVE",
"752 669 OFFCURVE",
"762 669 CURVE SMOOTH",
"772 669 OFFCURVE",
"779 670 OFFCURVE",
"784 670 CURVE SMOOTH",
"793 670 LINE",
"806 671 OFFCURVE",
"814 677 OFFCURVE",
"815 688 CURVE",
"818 707 LINE"
);
}
);
width = 827;
}
);
note = N;
unicode = 004E;
},
{
glyphname = O;
layers = (
{
layerId = "18B4A443-2C69-4DCB-9619-77A7DD6AC8EC";
name = Light;
paths = (
{
closed = 1;
nodes = (
"719 408 OFFCURVE",
"717 458 OFFCURVE",
"706 502 CURVE SMOOTH",
"695 546 OFFCURVE",
"677 584 OFFCURVE",
"651 616 CURVE SMOOTH",
"625 648 OFFCURVE",
"592 673 OFFCURVE",
"553 690 CURVE SMOOTH",
"514 707 OFFCURVE",
"469 716 OFFCURVE",
"419 716 CURVE SMOOTH",
"369 716 OFFCURVE",
"322 707 OFFCURVE",
"279 690 CURVE SMOOTH",
"236 673 OFFCURVE",
"198 648 OFFCURVE",
"164 616 CURVE SMOOTH",
"130 584 OFFCURVE",
"102 546 OFFCURVE",
"80 502 CURVE SMOOTH",
"58 458 OFFCURVE",
"44 408 OFFCURVE",
"37 354 CURVE SMOOTH",
"30 299 OFFCURVE",
"33 249 OFFCURVE",
"44 205 CURVE SMOOTH",
"55 161 OFFCURVE",
"73 123 OFFCURVE",
"99 91 CURVE SMOOTH",
"125 59 OFFCURVE",
"158 35 OFFCURVE",
"197 18 CURVE SMOOTH",
"236 1 OFFCURVE",
"280 -8 OFFCURVE",
"330 -8 CURVE SMOOTH",
"380 -8 OFFCURVE",
"428 1 OFFCURVE",
"471 18 CURVE SMOOTH",
"514 35 OFFCURVE",
"552 59 OFFCURVE",
"586 91 CURVE SMOOTH",
"620 123 OFFCURVE",
"647 161 OFFCURVE",
"669 205 CURVE SMOOTH",
"691 249 OFFCURVE",
"705 299 OFFCURVE",
"712 354 CURVE SMOOTH"
);
},
{
closed = 1;
nodes = (
"653 304 OFFCURVE",
"640 260 OFFCURVE",
"622 221 CURVE SMOOTH",
"604 182 OFFCURVE",
"580 148 OFFCURVE",
"552 121 CURVE SMOOTH",
"524 94 OFFCURVE",
"492 72 OFFCURVE",
"455 58 CURVE SMOOTH",
"418 44 OFFCURVE",
"378 37 OFFCURVE",
"335 37 CURVE SMOOTH",
"293 37 OFFCURVE",
"256 44 OFFCURVE",
"223 58 CURVE SMOOTH",
"190 72 OFFCURVE",
"162 94 OFFCURVE",
"140 121 CURVE SMOOTH",
"118 148 OFFCURVE",
"103 182 OFFCURVE",
"94 221 CURVE SMOOTH",
"85 260 OFFCURVE",
"84 304 OFFCURVE",
"90 354 CURVE SMOOTH",
"96 403 OFFCURVE",
"108 448 OFFCURVE",
"127 487 CURVE SMOOTH",
"146 526 OFFCURVE",
"169 560 OFFCURVE",
"198 587 CURVE SMOOTH",
"227 614 OFFCURVE",
"258 636 OFFCURVE",
"295 650 CURVE SMOOTH",
"332 664 OFFCURVE",
"371 672 OFFCURVE",
"413 672 CURVE SMOOTH",
"456 672 OFFCURVE",
"494 664 OFFCURVE",
"527 650 CURVE SMOOTH",
"560 636 OFFCURVE",
"588 614 OFFCURVE",
"609 587 CURVE SMOOTH",
"630 560 OFFCURVE",
"646 526 OFFCURVE",
"655 487 CURVE SMOOTH",
"664 448 OFFCURVE",
"665 403 OFFCURVE",
"659 354 CURVE SMOOTH"
);
}
);
width = 747;
}
);
note = O;
unicode = 004F;
},
{
glyphname = P;
layers = (
{
layerId = "18B4A443-2C69-4DCB-9619-77A7DD6AC8EC";
name = Light;
paths = (
{
closed = 1;
nodes = (
"503 689 OFFCURVE",
"443 707 OFFCURVE",
"360 707 CURVE SMOOTH",
"188 707 LINE",
"103 707 LINE",
"101 688 LINE SMOOTH",
"100 677 OFFCURVE",
"106 671 OFFCURVE",
"119 670 CURVE",
"128 670 LINE SMOOTH",
"133 670 OFFCURVE",
"140 669 OFFCURVE",
"150 669 CURVE SMOOTH",
"160 669 OFFCURVE",
"171 668 OFFCURVE",
"183 668 CURVE",
"106 40 LINE",
"94 40 OFFCURVE",
"83 39 OFFCURVE",
"73 39 CURVE SMOOTH",
"63 39 OFFCURVE",
"55 38 OFFCURVE",
"50 38 CURVE SMOOTH",
"41 38 LINE",
"28 37 OFFCURVE",
"20 31 OFFCURVE",
"19 20 CURVE",
"16 0 LINE",
"101 0 LINE",
"152 0 LINE",
"236 0 LINE",
"238 20 LINE SMOOTH",
"239 31 OFFCURVE",
"234 37 OFFCURVE",
"221 38 CURVE",
"211 38 LINE SMOOTH",
"206 38 OFFCURVE",
"199 39 OFFCURVE",
"189 39 CURVE SMOOTH",
"179 39 OFFCURVE",
"169 40 OFFCURVE",
"157 40 CURVE",
"187 285 LINE",
"308 285 LINE SMOOTH",
"347 285 OFFCURVE",
"383 291 OFFCURVE",
"415 301 CURVE SMOOTH",
"447 312 OFFCURVE",
"475 326 OFFCURVE",
"499 345 CURVE SMOOTH",
"523 364 OFFCURVE",
"542 386 OFFCURVE",
"557 412 CURVE SMOOTH",
"572 438 OFFCURVE",
"581 466 OFFCURVE",
"585 497 CURVE SMOOTH",
"593 564 OFFCURVE",
"579 617 OFFCURVE",
"541 653 CURVE SMOOTH"
);
},
{
closed = 1;
nodes = (
"500 408 OFFCURVE",
"485 390 OFFCURVE",
"466 375 CURVE SMOOTH",
"447 360 OFFCURVE",
"425 348 OFFCURVE",
"399 339 CURVE SMOOTH",
"373 330 OFFCURVE",
"344 326 OFFCURVE",
"313 326 CURVE SMOOTH",
"192 326 LINE",
"234 667 LINE",
"355 667 LINE SMOOTH",
"421 667 OFFCURVE",
"469 652 OFFCURVE",
"499 623 CURVE SMOOTH",
"529 594 OFFCURVE",
"541 552 OFFCURVE",
"534 498 CURVE SMOOTH",
"531 473 OFFCURVE",
"524 450 OFFCURVE",
"512 429 CURVE SMOOTH"
);
}
);
width = 604;
}
);
note = P;
unicode = 0050;
},
{
glyphname = Q;
layers = (
{
layerId = "18B4A443-2C69-4DCB-9619-77A7DD6AC8EC";
name = Light;
paths = (
{
closed = 1;
nodes = (
"718 408 OFFCURVE",
"716 458 OFFCURVE",
"705 502 CURVE SMOOTH",
"694 546 OFFCURVE",
"676 584 OFFCURVE",
"650 616 CURVE SMOOTH",
"624 648 OFFCURVE",
"592 673 OFFCURVE",
"553 690 CURVE SMOOTH",
"514 707 OFFCURVE",
"468 716 OFFCURVE",
"418 716 CURVE SMOOTH",
"368 716 OFFCURVE",
"322 707 OFFCURVE",
"279 690 CURVE SMOOTH",
"236 673 OFFCURVE",
"197 648 OFFCURVE",
"163 616 CURVE SMOOTH",
"129 584 OFFCURVE",
"102 546 OFFCURVE",
"80 502 CURVE SMOOTH",
"58 458 OFFCURVE",
"44 408 OFFCURVE",
"37 354 CURVE SMOOTH",
"30 299 OFFCURVE",
"32 249 OFFCURVE",
"43 205 CURVE SMOOTH",
"54 161 OFFCURVE",
"73 123 OFFCURVE",
"99 91 CURVE SMOOTH",
"125 59 OFFCURVE",
"157 35 OFFCURVE",
"196 18 CURVE SMOOTH",
"235 1 OFFCURVE",
"279 -8 OFFCURVE",
"329 -8 CURVE SMOOTH",
"355 -8 OFFCURVE",
"380 -5 OFFCURVE",
"404 0 CURVE SMOOTH",
"428 5 OFFCURVE",
"451 10 OFFCURVE",
"473 19 CURVE",
"604 -144 LINE",
"607 -149 OFFCURVE",
"612 -151 OFFCURVE",
"617 -153 CURVE SMOOTH",
"622 -155 OFFCURVE",
"628 -156 OFFCURVE",
"635 -156 CURVE SMOOTH",
"678 -156 LINE",
"518 41 LINE",
"544 56 OFFCURVE",
"567 74 OFFCURVE",
"589 95 CURVE SMOOTH",
"611 116 OFFCURVE",
"630 140 OFFCURVE",
"647 166 CURVE SMOOTH",
"664 192 OFFCURVE",
"677 221 OFFCURVE",
"688 253 CURVE SMOOTH",
"699 285 OFFCURVE",
"707 318 OFFCURVE",
"711 354 CURVE SMOOTH"
);
},
{
closed = 1;
nodes = (
"652 304 OFFCURVE",
"639 260 OFFCURVE",
"621 221 CURVE SMOOTH",
"603 182 OFFCURVE",
"579 148 OFFCURVE",
"551 121 CURVE SMOOTH",
"523 94 OFFCURVE",
"491 72 OFFCURVE",
"454 58 CURVE SMOOTH",
"417 44 OFFCURVE",
"378 37 OFFCURVE",
"335 37 CURVE SMOOTH",
"293 37 OFFCURVE",
"255 44 OFFCURVE",
"222 58 CURVE SMOOTH",
"189 72 OFFCURVE",
"162 94 OFFCURVE",
"140 121 CURVE SMOOTH",
"118 148 OFFCURVE",
"103 182 OFFCURVE",
"94 221 CURVE SMOOTH",
"85 260 OFFCURVE",
"83 304 OFFCURVE",
"89 354 CURVE SMOOTH",
"95 403 OFFCURVE",
"107 448 OFFCURVE",
"126 487 CURVE SMOOTH",
"145 526 OFFCURVE",
"168 560 OFFCURVE",
"197 587 CURVE SMOOTH",
"226 614 OFFCURVE",
"258 636 OFFCURVE",
"295 650 CURVE SMOOTH",
"332 664 OFFCURVE",
"371 672 OFFCURVE",
"413 672 CURVE SMOOTH",
"456 672 OFFCURVE",
"494 664 OFFCURVE",
"527 650 CURVE SMOOTH",
"560 636 OFFCURVE",
"588 614 OFFCURVE",
"609 587 CURVE SMOOTH",
"630 560 OFFCURVE",
"645 526 OFFCURVE",
"654 487 CURVE SMOOTH",
"663 448 OFFCURVE",
"664 403 OFFCURVE",
"658 354 CURVE SMOOTH"
);
}
);
width = 747;
}
);
note = Q;
unicode = 0051;
},
{
glyphname = R;
layers = (
{
layerId = "18B4A443-2C69-4DCB-9619-77A7DD6AC8EC";
name = Light;
paths = (
{
closed = 1;
nodes = (
"585 38 LINE",
"572 38 LINE SMOOTH",
"566 38 OFFCURVE",
"560 39 OFFCURVE",
"554 39 CURVE",
"374 306 LINE SMOOTH",
"369 314 OFFCURVE",
"362 321 OFFCURVE",
"355 326 CURVE",
"386 329 OFFCURVE",
"415 336 OFFCURVE",
"441 347 CURVE SMOOTH",
"467 358 OFFCURVE",
"490 372 OFFCURVE",
"510 389 CURVE SMOOTH",
"530 406 OFFCURVE",
"545 426 OFFCURVE",
"557 448 CURVE SMOOTH",
"569 470 OFFCURVE",
"577 495 OFFCURVE",
"580 522 CURVE SMOOTH",
"587 583 OFFCURVE",
"573 628 OFFCURVE",
"537 660 CURVE SMOOTH",
"501 691 OFFCURVE",
"441 707 OFFCURVE",
"359 707 CURVE SMOOTH",
"188 707 LINE",
"103 707 LINE",
"101 688 LINE SMOOTH",
"100 677 OFFCURVE",
"106 671 OFFCURVE",
"119 670 CURVE",
"128 670 LINE SMOOTH",
"133 670 OFFCURVE",
"140 669 OFFCURVE",
"150 669 CURVE SMOOTH",
"160 669 OFFCURVE",
"171 668 OFFCURVE",
"183 668 CURVE",
"106 40 LINE",
"94 40 OFFCURVE",
"83 39 OFFCURVE",
"73 39 CURVE SMOOTH",
"63 39 OFFCURVE",
"55 38 OFFCURVE",
"50 38 CURVE SMOOTH",
"41 38 LINE",
"28 37 OFFCURVE",
"20 31 OFFCURVE",
"19 20 CURVE",
"16 0 LINE",
"101 0 LINE",
"152 0 LINE",
"236 0 LINE",
"238 20 LINE SMOOTH",
"239 31 OFFCURVE",
"234 37 OFFCURVE",
"221 38 CURVE",
"211 38 LINE SMOOTH",
"206 38 OFFCURVE",
"199 39 OFFCURVE",
"189 39 CURVE SMOOTH",
"179 39 OFFCURVE",
"169 40 OFFCURVE",
"157 40 CURVE",
"191 320 LINE",
"275 320 LINE SMOOTH",
"289 320 OFFCURVE",
"299 319 OFFCURVE",
"305 316 CURVE SMOOTH",
"311 313 OFFCURVE",
"316 307 OFFCURVE",
"321 300 CURVE SMOOTH",
"512 13 LINE",
"515 8 OFFCURVE",
"518 5 OFFCURVE",
"522 3 CURVE SMOOTH",
"526 1 OFFCURVE",
"531 0 OFFCURVE",
"536 0 CURVE SMOOTH",
"541 0 LINE",
"580 0 LINE",
"606 0 LINE",
"609 20 LINE",
"610 31 OFFCURVE",
"604 37 OFFCURVE",
"591 38 CURVE"
);
},
{
closed = 1;
nodes = (
"196 358 LINE",
"234 667 LINE",
"354 667 LINE SMOOTH",
"417 667 OFFCURVE",
"464 654 OFFCURVE",
"494 630 CURVE SMOOTH",
"524 606 OFFCURVE",
"536 568 OFFCURVE",
"530 518 CURVE SMOOTH",
"527 493 OFFCURVE",
"519 472 OFFCURVE",
"508 452 CURVE SMOOTH",
"497 432 OFFCURVE",
"482 416 OFFCURVE",
"463 402 CURVE SMOOTH",
"444 388 OFFCURVE",
"422 376 OFFCURVE",
"396 369 CURVE SMOOTH",
"370 362 OFFCURVE",
"341 358 OFFCURVE",
"310 358 CURVE SMOOTH"
);
}
);
width = 644;
}
);
note = R;
unicode = 0052;
},
{
glyphname = S;
layers = (
{
layerId = "18B4A443-2C69-4DCB-9619-77A7DD6AC8EC";
name = Light;
paths = (
{
closed = 1;
nodes = (
"446 298 OFFCURVE",
"434 316 OFFCURVE",
"419 329 CURVE SMOOTH",
"404 342 OFFCURVE",
"387 353 OFFCURVE",
"367 362 CURVE SMOOTH",
"347 371 OFFCURVE",
"325 379 OFFCURVE",
"304 386 CURVE SMOOTH",
"282 393 OFFCURVE",
"262 401 OFFCURVE",
"242 408 CURVE",
"222 416 OFFCURVE",
"203 425 OFFCURVE",
"188 436 CURVE SMOOTH",
"173 447 OFFCURVE",
"161 460 OFFCURVE",
"153 476 CURVE SMOOTH",
"145 492 OFFCURVE",
"142 512 OFFCURVE",
"145 536 CURVE SMOOTH",
"147 554 OFFCURVE",
"153 571 OFFCURVE",
"162 588 CURVE SMOOTH",
"171 605 OFFCURVE",
"182 619 OFFCURVE",
"197 632 CURVE SMOOTH",
"212 645 OFFCURVE",
"230 655 OFFCURVE",
"250 662 CURVE SMOOTH",
"270 669 OFFCURVE",
"293 673 OFFCURVE",
"319 673 CURVE SMOOTH",
"367 673 OFFCURVE",
"410 665 OFFCURVE",
"448 648 CURVE",
"444 591 OFFCURVE",
"441 559 OFFCURVE",
"441 554 CURVE",
"440 538 OFFCURVE",
"446 529 OFFCURVE",
"460 529 CURVE SMOOTH",
"484 529 LINE",
"502 674 LINE",
"442 701 OFFCURVE",
"383 715 OFFCURVE",
"324 715 CURVE SMOOTH",
"291 715 OFFCURVE",
"262 710 OFFCURVE",
"235 700 CURVE SMOOTH",
"208 690 OFFCURVE",
"185 677 OFFCURVE",
"166 660 CURVE SMOOTH",
"147 643 OFFCURVE",
"131 624 OFFCURVE",
"119 602 CURVE SMOOTH",
"107 580 OFFCURVE",
"100 557 OFFCURVE",
"97 533 CURVE SMOOTH",
"93 503 OFFCURVE",
"95 477 OFFCURVE",
"103 457 CURVE SMOOTH",
"111 437 OFFCURVE",
"122 421 OFFCURVE",
"137 407 CURVE SMOOTH",
"152 393 OFFCURVE",
"170 383 OFFCURVE",
"190 374 CURVE SMOOTH",
"210 365 OFFCURVE",
"230 357 OFFCURVE",
"252 350 CURVE SMOOTH",
"315 329 LINE SMOOTH",
"335 322 OFFCURVE",
"354 312 OFFCURVE",
"369 301 CURVE SMOOTH",
"384 290 OFFCURVE",
"396 277 OFFCURVE",
"404 261 CURVE SMOOTH",
"412 245 OFFCURVE",
"415 224 OFFCURVE",
"412 199 CURVE SMOOTH",
"409 176 OFFCURVE",
"402 154 OFFCURVE",
"392 134 CURVE SMOOTH",
"382 114 OFFCURVE",
"367 97 OFFCURVE",
"350 82 CURVE SMOOTH",
"333 67 OFFCURVE",
"313 55 OFFCURVE",
"290 47 CURVE",
"267 38 OFFCURVE",
"242 35 OFFCURVE",
"214 35 CURVE SMOOTH",
"158 35 OFFCURVE",
"112 44 OFFCURVE",
"76 62 CURVE",
"77 76 OFFCURVE",
"79 91 OFFCURVE",
"80 107 CURVE SMOOTH",
"81 123 OFFCURVE",
"82 136 OFFCURVE",
"83 147 CURVE SMOOTH",
"84 158 OFFCURVE",
"84 164 OFFCURVE",
"84 165 CURVE",
"85 181 OFFCURVE",
"79 189 OFFCURVE",
"65 189 CURVE SMOOTH",
"41 189 LINE",
"25 57 LINE",
"23 44 LINE",
"22 31 LINE",
"80 5 OFFCURVE",
"141 -8 OFFCURVE",
"207 -8 CURVE SMOOTH",
"243 -8 OFFCURVE",
"276 -2 OFFCURVE",
"305 9 CURVE SMOOTH",
"334 20 OFFCURVE",
"360 36 OFFCURVE",
"382 55 CURVE SMOOTH",
"404 74 OFFCURVE",
"422 97 OFFCURVE",
"435 123 CURVE SMOOTH",
"448 149 OFFCURVE",
"456 177 OFFCURVE",
"460 207 CURVE SMOOTH",
"464 236 OFFCURVE",
"462 260 OFFCURVE",
"454 279 CURVE SMOOTH"
);
}
);
width = 518;
}
);
note = S;
unicode = 0053;
},
{
glyphname = T;
layers = (
{
layerId = "18B4A443-2C69-4DCB-9619-77A7DD6AC8EC";
name = Light;
paths = (
{
closed = 1;
nodes = (
"602 707 LINE",
"588 707 LINE",
"67 707 LINE",
"52 707 LINE",
"46 707 LINE",
"28 561 LINE",
"52 561 LINE SMOOTH",
"66 561 OFFCURVE",
"73 569 OFFCURVE",
"76 585 CURVE",
"77 592 OFFCURVE",
"82 618 OFFCURVE",
"90 664 CURVE",
"297 664 LINE",
"220 40 LINE",
"208 40 OFFCURVE",
"197 39 OFFCURVE",
"187 39 CURVE SMOOTH",
"177 39 OFFCURVE",
"170 38 OFFCURVE",
"165 38 CURVE SMOOTH",
"156 38 LINE",
"143 37 OFFCURVE",
"135 31 OFFCURVE",
"134 20 CURVE",
"131 0 LINE",
"215 0 LINE",
"266 0 LINE",
"351 0 LINE",
"353 20 LINE SMOOTH",
"354 31 OFFCURVE",
"348 37 OFFCURVE",
"335 38 CURVE",
"326 38 LINE SMOOTH",
"321 38 OFFCURVE",
"314 39 OFFCURVE",
"304 39 CURVE SMOOTH",
"294 39 OFFCURVE",
"283 40 OFFCURVE",
"271 40 CURVE",
"348 664 LINE",
"554 664 LINE",
"550 613 OFFCURVE",
"548 587 OFFCURVE",
"548 585 CURVE",
"547 569 OFFCURVE",
"553 561 OFFCURVE",
"567 561 CURVE SMOOTH",
"591 561 LINE",
"609 707 LINE"
);
}
);
width = 620;
}
);
note = T;
rightKerningGroup = T;
unicode = 0054;
},
{
glyphname = U;
layers = (
{
layerId = "18B4A443-2C69-4DCB-9619-77A7DD6AC8EC";
name = Light;
paths = (
{
closed = 1;
nodes = (
"661 707 LINE",
"610 707 LINE",
"514 707 LINE",
"511 688 LINE",
"510 677 OFFCURVE",
"516 671 OFFCURVE",
"529 670 CURVE",
"541 670 LINE SMOOTH",
"548 670 OFFCURVE",
"558 669 OFFCURVE",
"570 669 CURVE SMOOTH",
"582 669 OFFCURVE",
"593 668 OFFCURVE",
"605 668 CURVE",
"557 270 LINE SMOOTH",
"553 237 OFFCURVE",
"544 207 OFFCURVE",
"531 178 CURVE SMOOTH",
"518 149 OFFCURVE",
"500 124 OFFCURVE",
"479 103 CURVE SMOOTH",
"458 82 OFFCURVE",
"432 66 OFFCURVE",
"404 54 CURVE SMOOTH",
"376 42 OFFCURVE",
"345 36 OFFCURVE",
"311 36 CURVE SMOOTH",
"277 36 OFFCURVE",
"247 42 OFFCURVE",
"222 54 CURVE SMOOTH",
"197 66 OFFCURVE",
"176 83 OFFCURVE",
"160 104 CURVE SMOOTH",
"144 125 OFFCURVE",
"133 150 OFFCURVE",
"127 178 CURVE SMOOTH",
"121 206 OFFCURVE",
"119 237 OFFCURVE",
"123 270 CURVE SMOOTH",
"172 668 LINE",
"184 668 OFFCURVE",
"196 669 OFFCURVE",
"208 669 CURVE SMOOTH",
"220 669 OFFCURVE",
"230 670 OFFCURVE",
"237 670 CURVE SMOOTH",
"249 670 LINE",
"262 671 OFFCURVE",
"270 677 OFFCURVE",
"271 688 CURVE",
"274 707 LINE",
"177 707 LINE",
"125 707 LINE",
"41 707 LINE",
"39 688 LINE SMOOTH",
"38 677 OFFCURVE",
"43 671 OFFCURVE",
"56 670 CURVE",
"66 670 LINE SMOOTH",
"71 670 OFFCURVE",
"78 669 OFFCURVE",
"88 669 CURVE SMOOTH",
"98 669 OFFCURVE",
"108 668 OFFCURVE",
"120 668 CURVE",
"72 270 LINE SMOOTH",
"67 231 OFFCURVE",
"69 195 OFFCURVE",
"77 161 CURVE SMOOTH",
"85 127 OFFCURVE",
"99 97 OFFCURVE",
"119 72 CURVE SMOOTH",
"139 47 OFFCURVE",
"165 27 OFFCURVE",
"196 13 CURVE SMOOTH",
"227 -1 OFFCURVE",
"264 -8 OFFCURVE",
"305 -8 CURVE SMOOTH",
"346 -8 OFFCURVE",
"385 -1 OFFCURVE",
"420 13 CURVE SMOOTH",
"455 27 OFFCURVE",
"486 47 OFFCURVE",
"512 72 CURVE SMOOTH",
"538 97 OFFCURVE",
"560 127 OFFCURVE",
"576 161 CURVE SMOOTH",
"592 195 OFFCURVE",
"603 231 OFFCURVE",
"608 270 CURVE SMOOTH",
"656 668 LINE",
"668 668 OFFCURVE",
"679 669 OFFCURVE",
"689 669 CURVE SMOOTH",
"699 669 OFFCURVE",
"707 670 OFFCURVE",
"712 670 CURVE SMOOTH",
"721 670 LINE",
"734 671 OFFCURVE",
"742 677 OFFCURVE",
"743 688 CURVE",
"746 707 LINE"
);
}
);
width = 754;
}
);
note = U;
unicode = 0055;
},
{
glyphname = V;
layers = (
{
layerId = "18B4A443-2C69-4DCB-9619-77A7DD6AC8EC";
name = Light;
paths = (
{
closed = 1;
nodes = (
"704 707 LINE",
"664 707 LINE",
"662 707 LINE",
"556 707 LINE",
"554 688 LINE SMOOTH",
"553 677 OFFCURVE",
"558 671 OFFCURVE",
"571 670 CURVE",
"580 670 LINE SMOOTH",
"584 670 OFFCURVE",
"590 669 OFFCURVE",
"599 669 CURVE SMOOTH",
"608 669 OFFCURVE",
"618 668 OFFCURVE",
"629 668 CURVE",
"331 107 LINE SMOOTH",
"323 92 OFFCURVE",
"316 76 OFFCURVE",
"310 58 CURVE",
"308 75 OFFCURVE",
"305 92 OFFCURVE",
"301 107 CURVE SMOOTH",
"139 668 LINE",
"150 668 OFFCURVE",
"161 669 OFFCURVE",
"170 669 CURVE SMOOTH",
"179 669 OFFCURVE",
"185 670 OFFCURVE",
"189 670 CURVE SMOOTH",
"197 670 LINE",
"210 671 OFFCURVE",
"218 677 OFFCURVE",
"219 688 CURVE",
"222 707 LINE",
"115 707 LINE",
"74 707 LINE",
"32 707 LINE",
"30 688 LINE SMOOTH",
"29 677 OFFCURVE",
"34 671 OFFCURVE",
"47 670 CURVE",
"54 670 LINE SMOOTH",
"57 670 OFFCURVE",
"62 669 OFFCURVE",
"67 669 CURVE SMOOTH",
"72 669 OFFCURVE",
"79 668 OFFCURVE",
"86 668 CURVE",
"279 0 LINE",
"325 0 LINE",
"683 668 LINE",
"690 668 OFFCURVE",
"697 669 OFFCURVE",
"702 669 CURVE SMOOTH",
"707 669 OFFCURVE",
"712 670 OFFCURVE",
"715 670 CURVE SMOOTH",
"722 670 LINE",
"735 671 OFFCURVE",
"743 677 OFFCURVE",
"744 688 CURVE SMOOTH",
"746 707 LINE"
);
}
);
width = 755;
}
);
note = V;
rightKerningGroup = V;
unicode = 0056;
},
{
glyphname = W;
layers = (
{
layerId = "18B4A443-2C69-4DCB-9619-77A7DD6AC8EC";
name = Light;
paths = (
{
closed = 1;
nodes = (
"1044 707 LINE",
"1005 707 LINE",
"1002 707 LINE",
"896 707 LINE",
"894 688 LINE SMOOTH",
"893 677 OFFCURVE",
"899 671 OFFCURVE",
"912 670 CURVE",
"920 670 LINE SMOOTH",
"924 670 OFFCURVE",
"932 669 OFFCURVE",
"941 669 CURVE SMOOTH",
"950 669 OFFCURVE",
"961 668 OFFCURVE",
"973 668 CURVE",
"734 113 LINE SMOOTH",
"731 106 OFFCURVE",
"729 99 OFFCURVE",
"727 91 CURVE SMOOTH",
"725 83 OFFCURVE",
"722 76 OFFCURVE",
"719 68 CURVE",
"718 76 OFFCURVE",
"718 85 OFFCURVE",
"717 92 CURVE SMOOTH",
"716 99 OFFCURVE",
"715 106 OFFCURVE",
"713 113 CURVE",
"585 694 LINE SMOOTH",
"584 698 OFFCURVE",
"582 702 OFFCURVE",
"579 704 CURVE SMOOTH",
"576 706 OFFCURVE",
"573 707 OFFCURVE",
"568 707 CURVE SMOOTH",
"554 707 LINE SMOOTH",
"549 707 OFFCURVE",
"545 706 OFFCURVE",
"541 703 CURVE SMOOTH",
"537 700 OFFCURVE",
"535 698 OFFCURVE",
"533 694 CURVE SMOOTH",
"262 112 LINE SMOOTH",
"259 105 OFFCURVE",
"256 99 OFFCURVE",
"253 91 CURVE",
"251 84 OFFCURVE",
"248 76 OFFCURVE",
"245 67 CURVE",
"244 74 OFFCURVE",
"244 82 OFFCURVE",
"243 91 CURVE SMOOTH",
"242 99 OFFCURVE",
"242 106 OFFCURVE",
"241 113 CURVE",
"138 668 LINE",
"150 668 OFFCURVE",
"160 669 OFFCURVE",
"169 669 CURVE SMOOTH",
"178 669 OFFCURVE",
"185 670 OFFCURVE",
"189 670 CURVE SMOOTH",
"197 670 LINE",
"210 671 OFFCURVE",
"218 677 OFFCURVE",
"219 688 CURVE",
"222 707 LINE",
"116 707 LINE",
"74 707 LINE",
"32 707 LINE",
"30 688 LINE SMOOTH",
"29 677 OFFCURVE",
"34 671 OFFCURVE",
"47 670 CURVE",
"54 670 LINE SMOOTH",
"57 670 OFFCURVE",
"60 669 OFFCURVE",
"65 669 CURVE SMOOTH",
"70 669 OFFCURVE",
"76 668 OFFCURVE",
"82 668 CURVE",
"210 0 LINE",
"256 0 LINE",
"541 614 LINE SMOOTH",
"545 622 OFFCURVE",
"548 630 OFFCURVE",
"551 639 CURVE",
"552 630 OFFCURVE",
"553 622 OFFCURVE",
"555 614 CURVE SMOOTH",
"688 0 LINE",
"734 0 LINE",
"1027 668 LINE",
"1033 668 OFFCURVE",
"1038 669 OFFCURVE",
"1043 669 CURVE SMOOTH",
"1048 669 OFFCURVE",
"1052 670 OFFCURVE",
"1055 670 CURVE SMOOTH",
"1062 670 LINE",
"1075 671 OFFCURVE",
"1083 677 OFFCURVE",
"1084 688 CURVE SMOOTH",
"1086 707 LINE"
);
}
);
width = 1095;
}
);
note = W;
rightKerningGroup = W;
unicode = 0057;
},
{
glyphname = X;
layers = (
{
layerId = "18B4A443-2C69-4DCB-9619-77A7DD6AC8EC";
name = Light;
paths = (
{
closed = 1;
nodes = (
"640 38 LINE SMOOTH",
"637 38 OFFCURVE",
"632 39 OFFCURVE",
"627 39 CURVE SMOOTH",
"622 39 OFFCURVE",
"617 40 OFFCURVE",
"610 40 CURVE",
"423 366 LINE",
"676 668 LINE",
"684 668 OFFCURVE",
"690 669 OFFCURVE",
"696 669 CURVE SMOOTH",
"702 669 OFFCURVE",
"707 670 OFFCURVE",
"710 670 CURVE SMOOTH",
"717 670 LINE",
"730 671 OFFCURVE",
"738 677 OFFCURVE",
"739 688 CURVE SMOOTH",
"741 707 LINE",
"709 707 LINE",
"691 707 LINE",
"660 707 LINE",
"657 707 LINE",
"543 707 LINE",
"541 688 LINE SMOOTH",
"540 677 OFFCURVE",
"545 671 OFFCURVE",
"558 670 CURVE",
"567 670 LINE SMOOTH",
"571 670 OFFCURVE",
"579 669 OFFCURVE",
"588 669 CURVE SMOOTH",
"597 669 OFFCURVE",
"608 668 OFFCURVE",
"620 668 CURVE",
"400 403 LINE",
"398 400 OFFCURVE",
"396 398 OFFCURVE",
"395 395 CURVE",
"394 393 OFFCURVE",
"392 390 OFFCURVE",
"391 387 CURVE",
"231 668 LINE",
"242 668 OFFCURVE",
"252 669 OFFCURVE",
"261 669 CURVE SMOOTH",
"270 669 OFFCURVE",
"276 670 OFFCURVE",
"279 670 CURVE SMOOTH",
"286 670 LINE",
"299 671 OFFCURVE",
"307 677 OFFCURVE",
"308 688 CURVE",
"311 707 LINE",
"201 707 LINE",
"199 707 LINE",
"163 707 LINE",
"149 707 LINE",
"117 707 LINE",
"114 688 LINE",
"113 677 OFFCURVE",
"119 671 OFFCURVE",
"132 670 CURVE",
"139 670 LINE SMOOTH",
"142 670 OFFCURVE",
"146 669 OFFCURVE",
"152 669 CURVE SMOOTH",
"158 669 OFFCURVE",
"164 668 OFFCURVE",
"172 668 CURVE",
"350 363 LINE",
"83 40 LINE",
"75 40 OFFCURVE",
"69 39 OFFCURVE",
"63 39 CURVE SMOOTH",
"57 39 OFFCURVE",
"53 38 OFFCURVE",
"49 38 CURVE SMOOTH",
"42 38 LINE",
"29 37 OFFCURVE",
"21 31 OFFCURVE",
"20 20 CURVE SMOOTH",
"18 0 LINE",
"50 0 LINE",
"69 0 LINE",
"97 0 LINE",
"102 0 LINE",
"216 0 LINE",
"219 20 LINE",
"220 31 OFFCURVE",
"214 37 OFFCURVE",
"201 38 CURVE",
"192 38 LINE SMOOTH",
"188 38 OFFCURVE",
"180 39 OFFCURVE",
"171 39 CURVE SMOOTH",
"162 39 OFFCURVE",
"152 40 OFFCURVE",
"140 40 CURVE SMOOTH",
"139 40 LINE",
"374 324 LINE SMOOTH",
"378 329 OFFCURVE",
"381 333 OFFCURVE",
"383 338 CURVE",
"551 40 LINE",
"540 40 OFFCURVE",
"529 39 OFFCURVE",
"520 39 CURVE SMOOTH",
"511 39 OFFCURVE",
"505 38 OFFCURVE",
"502 38 CURVE SMOOTH",
"494 38 LINE",
"481 37 OFFCURVE",
"473 31 OFFCURVE",
"472 20 CURVE SMOOTH",
"470 0 LINE",
"577 0 LINE",
"582 0 LINE",
"617 0 LINE",
"632 0 LINE",
"662 0 LINE",
"664 20 LINE SMOOTH",
"665 31 OFFCURVE",
"659 37 OFFCURVE",
"646 38 CURVE"
);
}
);
width = 750;
}
);
note = X;
unicode = 0058;
},
{
glyphname = Y;
lastChange = "2015-10-08 13:51:03 +0000";
layers = (
{
layerId = "18B4A443-2C69-4DCB-9619-77A7DD6AC8EC";
name = Light;
paths = (
{
closed = 1;
nodes = (
"486 708 LINE",
"483 689 LINE",
"482 678 OFFCURVE",
"488 672 OFFCURVE",
"501 671 CURVE",
"553 669 LINE",
"331 370 LINE SMOOTH",
"324 360 OFFCURVE",
"310 335 OFFCURVE",
"305 326 CURVE",
"302 335 OFFCURVE",
"294 360 OFFCURVE",
"289 370 CURVE SMOOTH",
"140 669 LINE",
"192 671 LINE",
"205 672 OFFCURVE",
"212 678 OFFCURVE",
"214 689 CURVE",
"217 708 LINE",
"32 708 LINE",
"30 689 LINE SMOOTH",
"29 678 OFFCURVE",
"34 672 OFFCURVE",
"47 671 CURVE",
"84 669 LINE",
"274 292 LINE",
"243 40 LINE",
"179 38 LINE",
"166 37 OFFCURVE",
"158 31 OFFCURVE",
"157 20 CURVE",
"154 0 LINE",
"239 0 LINE",
"290 0 LINE",
"374 0 LINE",
"377 20 LINE",
"378 31 OFFCURVE",
"372 37 OFFCURVE",
"359 38 CURVE",
"295 40 LINE",
"326 292 LINE",
"609 669 LINE",
"646 671 LINE",
"659 672 OFFCURVE",
"667 678 OFFCURVE",
"668 689 CURVE SMOOTH",
"670 708 LINE"
);
}
);
width = 680;
}
);
note = Y;
rightKerningGroup = Y;
unicode = 0059;
},
{
glyphname = Z;
layers = (
{
layerId = "18B4A443-2C69-4DCB-9619-77A7DD6AC8EC";
name = Light;
paths = (
{
closed = 1;
nodes = (
"629 707 LINE",
"118 707 LINE",
"118 707 LINE",
"99 556 LINE",
"124 556 LINE SMOOTH",
"138 556 OFFCURVE",
"145 564 OFFCURVE",
"148 580 CURVE",
"148 581 OFFCURVE",
"149 586 OFFCURVE",
"151 593 CURVE SMOOTH",
"153 600 OFFCURVE",
"154 611 OFFCURVE",
"157 624 CURVE SMOOTH",
"160 637 OFFCURVE",
"162 650 OFFCURVE",
"165 665 CURVE",
"556 665 LINE",
"28 36 LINE SMOOTH",
"23 30 OFFCURVE",
"21 25 OFFCURVE",
"20 19 CURVE",
"18 0 LINE",
"538 0 LINE",
"538 0 LINE",
"557 152 LINE",
"532 152 LINE SMOOTH",
"518 152 OFFCURVE",
"511 143 OFFCURVE",
"508 127 CURVE",
"508 126 OFFCURVE",
"507 121 OFFCURVE",
"505 114 CURVE SMOOTH",
"503 107 OFFCURVE",
"501 97 OFFCURVE",
"498 84 CURVE SMOOTH",
"495 71 OFFCURVE",
"494 57 OFFCURVE",
"491 42 CURVE",
"91 42 LINE",
"617 669 LINE",
"622 676 OFFCURVE",
"626 683 OFFCURVE",
"627 690 CURVE SMOOTH"
);
}
);
width = 638;
}
);
note = Z;
unicode = 005A;
},
{
color = 4;
glyphname = bracketleft;
lastChange = "2015-10-08 21:11:47 +0000";
layers = (
{
layerId = "18B4A443-2C69-4DCB-9619-77A7DD6AC8EC";
name = Light;
paths = (
{
closed = 1;
nodes = (
"25 -132 LINE",
"184 -132 LINE",
"186 -114 LINE",
"187 -104 OFFCURVE",
"181 -100 OFFCURVE",
"172 -100 CURVE SMOOTH",
"69 -100 LINE",
"171 726 LINE",
"274 726 LINE SMOOTH",
"284 726 OFFCURVE",
"289 731 OFFCURVE",
"291 740 CURVE",
"293 758 LINE",
"134 758 LINE"
);
}
);
width = 308;
}
);
note = bracketleft;
unicode = 005B;
},
{
color = 4;
glyphname = backslash;
lastChange = "2015-10-08 21:12:33 +0000";
layers = (
{
layerId = "18B4A443-2C69-4DCB-9619-77A7DD6AC8EC";
name = Light;
paths = (
{
closed = 1;
nodes = (
"36 728 LINE",
"255 -22 LINE SMOOTH",
"259 -35 OFFCURVE",
"269 -42 OFFCURVE",
"281 -42 CURVE SMOOTH",
"301 -42 LINE",
"82 709 LINE",
"79 721 OFFCURVE",
"70 728 OFFCURVE",
"57 728 CURVE SMOOTH"
);
}
);
width = 327;
}
);
note = backslash;
unicode = 005C;
},
{
color = 4;
glyphname = bracketright;
lastChange = "2015-10-08 21:12:20 +0000";
layers = (
{
layerId = "18B4A443-2C69-4DCB-9619-77A7DD6AC8EC";
name = Light;
paths = (
{
closed = 1;
nodes = (
"285 758 LINE",
"126 758 LINE",
"124 740 LINE",
"123 730 OFFCURVE",
"129 726 OFFCURVE",
"138 726 CURVE SMOOTH",
"241 726 LINE",
"139 -100 LINE",
"36 -100 LINE SMOOTH",
"26 -100 OFFCURVE",
"21 -105 OFFCURVE",
"19 -114 CURVE",
"17 -132 LINE",
"176 -132 LINE"
);
}
);
width = 316;
}
);
note = bracketright;
unicode = 005D;
},
{
color = 4;
glyphname = asciicircum;
lastChange = "2015-10-08 21:13:29 +0000";
layers = (
{
layerId = "18B4A443-2C69-4DCB-9619-77A7DD6AC8EC";
name = Light;
paths = (
{
closed = 1;
nodes = (
"246 708 LINE",
"38 400 LINE",
"74 400 LINE SMOOTH",
"82 400 OFFCURVE",
"88 407 OFFCURVE",
"92 412 CURVE SMOOTH",
"239 630 LINE",
"256 663 LINE",
"266 630 LINE",
"360 412 LINE",
"362 406 OFFCURVE",
"367 400 OFFCURVE",
"375 400 CURVE SMOOTH",
"409 400 LINE",
"276 708 LINE"
);
}
);
width = 443;
}
);
note = asciicircum;
unicode = 005E;
},
{
color = 4;
glyphname = underscore;
lastChange = "2015-10-08 21:13:40 +0000";
layers = (
{
layerId = "18B4A443-2C69-4DCB-9619-77A7DD6AC8EC";
name = Light;
paths = (
{
closed = 1;
nodes = (
"477 -102 LINE",
"83 -102 LINE",
"78 -136 LINE",
"472 -136 LINE"
);
}
);
width = 563;
}
);
note = underscore;
unicode = 005F;
},
{
color = 4;
glyphname = grave;
lastChange = "2015-10-08 21:14:46 +0000";
layers = (
{
layerId = "18B4A443-2C69-4DCB-9619-77A7DD6AC8EC";
name = Light;
paths = (
{
closed = 1;
nodes = (
"62 716 LINE",
"155 589 LINE",
"159 583 OFFCURVE",
"165 580 OFFCURVE",
"173 580 CURVE SMOOTH",
"200 580 LINE",
"136 700 LINE SMOOTH",
"131 709 OFFCURVE",
"125 716 OFFCURVE",
"108 716 CURVE SMOOTH"
);
}
);
width = 251;
}
);
note = grave;
unicode = 0060;
},
{
glyphname = a;
layers = (
{
layerId = "18B4A443-2C69-4DCB-9619-77A7DD6AC8EC";
name = Light;
paths = (
{
closed = 1;
nodes = (
"422 38 LINE",
"406 38 LINE SMOOTH",
"399 38 OFFCURVE",
"391 39 OFFCURVE",
"383 39 CURVE",
"437 481 LINE",
"420 490 OFFCURVE",
"402 496 OFFCURVE",
"385 499 CURVE",
"368 503 OFFCURVE",
"349 504 OFFCURVE",
"329 504 CURVE SMOOTH",
"302 504 OFFCURVE",
"276 500 OFFCURVE",
"250 491 CURVE SMOOTH",
"224 482 OFFCURVE",
"201 470 OFFCURVE",
"178 455 CURVE SMOOTH",
"155 440 OFFCURVE",
"135 422 OFFCURVE",
"116 401 CURVE SMOOTH",
"97 380 OFFCURVE",
"81 357 OFFCURVE",
"68 332 CURVE SMOOTH",
"54 307 OFFCURVE",
"43 280 OFFCURVE",
"36 252 CURVE SMOOTH",
"29 224 OFFCURVE",
"26 196 OFFCURVE",
"26 167 CURVE SMOOTH",
"26 140 OFFCURVE",
"29 116 OFFCURVE",
"34 95 CURVE SMOOTH",
"39 74 OFFCURVE",
"46 56 OFFCURVE",
"57 41 CURVE",
"67 26 OFFCURVE",
"81 14 OFFCURVE",
"97 6 CURVE SMOOTH",
"113 -2 OFFCURVE",
"131 -6 OFFCURVE",
"152 -6 CURVE SMOOTH",
"172 -6 OFFCURVE",
"192 -2 OFFCURVE",
"211 7 CURVE SMOOTH",
"230 16 OFFCURVE",
"248 27 OFFCURVE",
"265 43 CURVE SMOOTH",
"282 59 OFFCURVE",
"298 77 OFFCURVE",
"313 99 CURVE SMOOTH",
"328 121 OFFCURVE",
"342 145 OFFCURVE",
"355 172 CURVE",
"338 16 LINE",
"338 12 OFFCURVE",
"340 8 OFFCURVE",
"342 5 CURVE SMOOTH",
"344 2 OFFCURVE",
"349 0 OFFCURVE",
"355 0 CURVE SMOOTH",
"367 0 LINE",
"378 0 LINE",
"444 0 LINE",
"447 20 LINE",
"448 31 OFFCURVE",
"442 37 OFFCURVE",
"429 38 CURVE"
);
},
{
closed = 1;
nodes = (
"308 138 OFFCURVE",
"293 114 OFFCURVE",
"276 94 CURVE SMOOTH",
"259 75 OFFCURVE",
"242 60 OFFCURVE",
"223 49 CURVE SMOOTH",
"205 38 OFFCURVE",
"186 33 OFFCURVE",
"167 33 CURVE SMOOTH",
"135 33 OFFCURVE",
"111 45 OFFCURVE",
"96 70 CURVE SMOOTH",
"81 95 OFFCURVE",
"73 130 OFFCURVE",
"73 175 CURVE SMOOTH",
"73 200 OFFCURVE",
"76 225 OFFCURVE",
"82 249 CURVE SMOOTH",
"88 273 OFFCURVE",
"98 296 OFFCURVE",
"109 318 CURVE SMOOTH",
"120 340 OFFCURVE",
"134 361 OFFCURVE",
"149 379 CURVE SMOOTH",
"164 397 OFFCURVE",
"182 413 OFFCURVE",
"200 426 CURVE SMOOTH",
"218 439 OFFCURVE",
"238 449 OFFCURVE",
"259 457 CURVE SMOOTH",
"280 465 OFFCURVE",
"302 469 OFFCURVE",
"324 469 CURVE SMOOTH",
"347 469 OFFCURVE",
"368 466 OFFCURVE",
"388 459 CURVE",
"363 256 LINE",
"351 223 OFFCURVE",
"338 192 OFFCURVE",
"323 165 CURVE SMOOTH"
);
}
);
width = 502;
}
);
note = a;
unicode = 0061;
},
{
glyphname = b;
layers = (
{
layerId = "18B4A443-2C69-4DCB-9619-77A7DD6AC8EC";
name = Light;
paths = (
{
closed = 1;
nodes = (
"426 484 OFFCURVE",
"381 506 OFFCURVE",
"320 506 CURVE SMOOTH",
"284 506 OFFCURVE",
"250 497 OFFCURVE",
"219 480 CURVE SMOOTH",
"188 463 OFFCURVE",
"160 440 OFFCURVE",
"134 411 CURVE",
"173 728 LINE",
"125 728 LINE",
"53 728 LINE",
"50 708 LINE",
"49 697 OFFCURVE",
"55 691 OFFCURVE",
"68 690 CURVE",
"73 690 LINE SMOOTH",
"75 690 OFFCURVE",
"78 689 OFFCURVE",
"81 689 CURVE SMOOTH",
"96 689 LINE SMOOTH",
"103 689 OFFCURVE",
"111 688 OFFCURVE",
"120 688 CURVE",
"42 47 LINE",
"38 22 LINE",
"124 3 OFFCURVE",
"189 -6 OFFCURVE",
"234 -6 CURVE SMOOTH",
"269 -6 OFFCURVE",
"301 1 OFFCURVE",
"330 14 CURVE SMOOTH",
"359 27 OFFCURVE",
"383 45 OFFCURVE",
"404 68 CURVE SMOOTH",
"425 91 OFFCURVE",
"443 119 OFFCURVE",
"456 150 CURVE SMOOTH",
"469 181 OFFCURVE",
"479 216 OFFCURVE",
"483 252 CURVE SMOOTH",
"493 337 OFFCURVE",
"484 400 OFFCURVE",
"455 442 CURVE SMOOTH"
);
},
{
closed = 1;
nodes = (
"401 135 OFFCURVE",
"387 111 OFFCURVE",
"370 92 CURVE SMOOTH",
"353 72 OFFCURVE",
"332 58 OFFCURVE",
"309 47 CURVE SMOOTH",
"286 36 OFFCURVE",
"259 31 OFFCURVE",
"230 31 CURVE SMOOTH",
"204 31 OFFCURVE",
"158 38 OFFCURVE",
"90 52 CURVE",
"129 371 LINE",
"154 401 OFFCURVE",
"180 425 OFFCURVE",
"209 442 CURVE SMOOTH",
"238 459 OFFCURVE",
"269 468 OFFCURVE",
"302 468 CURVE SMOOTH",
"353 468 OFFCURVE",
"390 450 OFFCURVE",
"413 415 CURVE SMOOTH",
"436 380 OFFCURVE",
"443 326 OFFCURVE",
"434 252 CURVE SMOOTH",
"430 219 OFFCURVE",
"423 189 OFFCURVE",
"412 162 CURVE SMOOTH"
);
}
);
width = 522;
}
);
note = b;
unicode = 0062;
},
{
glyphname = c;
layers = (
{
layerId = "18B4A443-2C69-4DCB-9619-77A7DD6AC8EC";
name = Light;
paths = (
{
closed = 1;
nodes = (
"380 80 LINE SMOOTH",
"378 83 OFFCURVE",
"375 85 OFFCURVE",
"371 85 CURVE SMOOTH",
"367 85 OFFCURVE",
"362 83 OFFCURVE",
"355 77 CURVE SMOOTH",
"348 71 OFFCURVE",
"338 65 OFFCURVE",
"327 58 CURVE SMOOTH",
"316 51 OFFCURVE",
"302 46 OFFCURVE",
"285 40 CURVE SMOOTH",
"268 34 OFFCURVE",
"248 31 OFFCURVE",
"224 31 CURVE SMOOTH",
"198 31 OFFCURVE",
"175 36 OFFCURVE",
"155 46 CURVE SMOOTH",
"135 56 OFFCURVE",
"118 69 OFFCURVE",
"105 88 CURVE SMOOTH",
"92 106 OFFCURVE",
"84 129 OFFCURVE",
"79 156 CURVE SMOOTH",
"74 183 OFFCURVE",
"74 214 OFFCURVE",
"78 249 CURVE SMOOTH",
"82 283 OFFCURVE",
"90 313 OFFCURVE",
"101 340 CURVE SMOOTH",
"112 367 OFFCURVE",
"127 390 OFFCURVE",
"145 409 CURVE SMOOTH",
"162 428 OFFCURVE",
"183 443 OFFCURVE",
"206 453 CURVE SMOOTH",
"229 463 OFFCURVE",
"255 468 OFFCURVE",
"284 468 CURVE SMOOTH",
"309 468 OFFCURVE",
"337 462 OFFCURVE",
"367 451 CURVE",
"366 438 OFFCURVE",
"365 425 OFFCURVE",
"365 413 CURVE SMOOTH",
"365 401 OFFCURVE",
"364 392 OFFCURVE",
"364 385 CURVE SMOOTH",
"364 378 OFFCURVE",
"363 374 OFFCURVE",
"363 373 CURVE",
"362 357 OFFCURVE",
"368 349 OFFCURVE",
"382 349 CURVE SMOOTH",
"406 349 LINE",
"422 474 LINE",
"397 482 LINE SMOOTH",
"380 487 OFFCURVE",
"360 493 OFFCURVE",
"337 498 CURVE SMOOTH",
"314 503 OFFCURVE",
"298 505 OFFCURVE",
"286 505 CURVE SMOOTH",
"250 505 OFFCURVE",
"217 500 OFFCURVE",
"188 487 CURVE SMOOTH",
"159 474 OFFCURVE",
"133 457 OFFCURVE",
"111 434 CURVE SMOOTH",
"89 411 OFFCURVE",
"71 384 OFFCURVE",
"57 353 CURVE SMOOTH",
"43 322 OFFCURVE",
"35 287 OFFCURVE",
"30 249 CURVE SMOOTH",
"25 209 OFFCURVE",
"25 173 OFFCURVE",
"32 141 CURVE SMOOTH",
"39 109 OFFCURVE",
"50 83 OFFCURVE",
"66 61 CURVE SMOOTH",
"82 39 OFFCURVE",
"103 22 OFFCURVE",
"128 11 CURVE SMOOTH",
"153 -1 OFFCURVE",
"180 -7 OFFCURVE",
"212 -7 CURVE SMOOTH",
"231 -7 OFFCURVE",
"249 -5 OFFCURVE",
"267 -1 CURVE SMOOTH",
"285 3 OFFCURVE",
"301 7 OFFCURVE",
"316 13 CURVE SMOOTH",
"331 19 OFFCURVE",
"346 27 OFFCURVE",
"359 36 CURVE SMOOTH",
"372 45 OFFCURVE",
"382 54 OFFCURVE",
"391 64 CURVE"
);
}
);
width = 448;
}
);
note = c;
unicode = 0063;
},
{
glyphname = d;
layers = (
{
layerId = "18B4A443-2C69-4DCB-9619-77A7DD6AC8EC";
name = Light;
paths = (
{
closed = 1;
nodes = (
"485 20 LINE",
"486 31 OFFCURVE",
"480 37 OFFCURVE",
"467 38 CURVE",
"462 38 LINE",
"456 38 LINE SMOOTH",
"453 38 OFFCURVE",
"448 39 OFFCURVE",
"442 39 CURVE SMOOTH",
"421 39 LINE",
"505 728 LINE",
"458 728 LINE",
"385 728 LINE",
"383 708 LINE SMOOTH",
"382 697 OFFCURVE",
"388 691 OFFCURVE",
"401 690 CURVE",
"406 690 LINE SMOOTH",
"408 690 OFFCURVE",
"410 689 OFFCURVE",
"413 689 CURVE SMOOTH",
"428 689 LINE SMOOTH",
"435 689 OFFCURVE",
"444 688 OFFCURVE",
"453 688 CURVE",
"421 433 LINE",
"406 457 OFFCURVE",
"387 475 OFFCURVE",
"364 487 CURVE SMOOTH",
"341 500 OFFCURVE",
"313 506 OFFCURVE",
"279 506 CURVE SMOOTH",
"244 506 OFFCURVE",
"212 499 OFFCURVE",
"183 486 CURVE SMOOTH",
"154 473 OFFCURVE",
"129 454 OFFCURVE",
"108 431 CURVE SMOOTH",
"87 408 OFFCURVE",
"69 380 OFFCURVE",
"56 349 CURVE SMOOTH",
"43 318 OFFCURVE",
"34 284 OFFCURVE",
"30 248 CURVE SMOOTH",
"20 163 OFFCURVE",
"29 99 OFFCURVE",
"58 57 CURVE SMOOTH",
"87 15 OFFCURVE",
"132 -6 OFFCURVE",
"193 -6 CURVE SMOOTH",
"230 -6 OFFCURVE",
"263 2 OFFCURVE",
"295 20 CURVE SMOOTH",
"327 38 OFFCURVE",
"355 62 OFFCURVE",
"381 92 CURVE",
"377 13 LINE",
"377 4 OFFCURVE",
"382 0 OFFCURVE",
"390 0 CURVE SMOOTH",
"416 0 LINE",
"483 0 LINE",
"485 15 LINE"
);
},
{
closed = 1;
nodes = (
"384 129 LINE",
"359 99 OFFCURVE",
"333 75 OFFCURVE",
"304 58 CURVE SMOOTH",
"275 41 OFFCURVE",
"244 32 OFFCURVE",
"211 32 CURVE SMOOTH",
"160 32 OFFCURVE",
"123 49 OFFCURVE",
"100 84 CURVE SMOOTH",
"77 119 OFFCURVE",
"70 174 OFFCURVE",
"79 248 CURVE SMOOTH",
"83 281 OFFCURVE",
"90 310 OFFCURVE",
"101 337 CURVE SMOOTH",
"112 364 OFFCURVE",
"126 388 OFFCURVE",
"143 407 CURVE SMOOTH",
"160 426 OFFCURVE",
"181 442 OFFCURVE",
"204 453 CURVE SMOOTH",
"227 464 OFFCURVE",
"254 469 OFFCURVE",
"283 469 CURVE SMOOTH",
"312 469 OFFCURVE",
"338 463 OFFCURVE",
"360 451 CURVE SMOOTH",
"382 439 OFFCURVE",
"400 419 OFFCURVE",
"416 391 CURVE"
);
}
);
width = 533;
}
);
note = d;
unicode = 0064;
},
{
glyphname = e;
layers = (
{
layerId = "18B4A443-2C69-4DCB-9619-77A7DD6AC8EC";
name = Light;
paths = (
{
closed = 1;
nodes = (
"410 412 OFFCURVE",
"408 424 OFFCURVE",
"403 436 CURVE SMOOTH",
"398 448 OFFCURVE",
"391 459 OFFCURVE",
"380 469 CURVE",
"370 479 OFFCURVE",
"356 487 OFFCURVE",
"339 494 CURVE SMOOTH",
"322 501 OFFCURVE",
"301 504 OFFCURVE",
"277 504 CURVE SMOOTH",
"251 504 OFFCURVE",
"227 500 OFFCURVE",
"204 491 CURVE SMOOTH",
"181 482 OFFCURVE",
"161 471 OFFCURVE",
"142 456 CURVE SMOOTH",
"123 441 OFFCURVE",
"106 423 OFFCURVE",
"92 403 CURVE SMOOTH",
"78 383 OFFCURVE",
"66 360 OFFCURVE",
"56 337 CURVE SMOOTH",
"46 314 OFFCURVE",
"39 289 OFFCURVE",
"34 264 CURVE SMOOTH",
"29 239 OFFCURVE",
"26 214 OFFCURVE",
"26 189 CURVE SMOOTH",
"26 159 OFFCURVE",
"30 132 OFFCURVE",
"38 108 CURVE SMOOTH",
"46 84 OFFCURVE",
"56 63 OFFCURVE",
"71 46 CURVE SMOOTH",
"86 29 OFFCURVE",
"103 16 OFFCURVE",
"125 7 CURVE SMOOTH",
"147 -2 OFFCURVE",
"171 -6 OFFCURVE",
"199 -6 CURVE SMOOTH",
"218 -6 OFFCURVE",
"237 -5 OFFCURVE",
"254 -1 CURVE SMOOTH",
"271 3 OFFCURVE",
"287 9 OFFCURVE",
"303 17 CURVE SMOOTH",
"319 25 OFFCURVE",
"335 36 OFFCURVE",
"350 48 CURVE SMOOTH",
"365 60 OFFCURVE",
"381 75 OFFCURVE",
"397 92 CURVE",
"386 105 LINE",
"383 108 OFFCURVE",
"380 110 OFFCURVE",
"376 110 CURVE SMOOTH",
"372 110 OFFCURVE",
"368 109 OFFCURVE",
"363 105 CURVE SMOOTH",
"358 101 OFFCURVE",
"352 96 OFFCURVE",
"345 90 CURVE SMOOTH",
"338 84 OFFCURVE",
"331 78 OFFCURVE",
"323 71 CURVE SMOOTH",
"315 64 OFFCURVE",
"304 58 OFFCURVE",
"293 52 CURVE SMOOTH",
"282 46 OFFCURVE",
"269 41 OFFCURVE",
"255 37 CURVE SMOOTH",
"241 33 OFFCURVE",
"225 31 OFFCURVE",
"207 31 CURVE SMOOTH",
"162 31 OFFCURVE",
"128 45 OFFCURVE",
"106 73 CURVE SMOOTH",
"84 101 OFFCURVE",
"72 140 OFFCURVE",
"72 190 CURVE SMOOTH",
"72 197 OFFCURVE",
"73 203 OFFCURVE",
"73 210 CURVE SMOOTH",
"73 217 OFFCURVE",
"73 224 OFFCURVE",
"74 231 CURVE",
"121 236 OFFCURVE",
"161 241 OFFCURVE",
"196 248 CURVE SMOOTH",
"231 254 OFFCURVE",
"261 262 OFFCURVE",
"286 270 CURVE SMOOTH",
"311 278 OFFCURVE",
"331 287 OFFCURVE",
"347 297 CURVE SMOOTH",
"363 307 OFFCURVE",
"376 317 OFFCURVE",
"385 328 CURVE SMOOTH",
"394 339 OFFCURVE",
"401 351 OFFCURVE",
"405 363 CURVE SMOOTH",
"409 375 OFFCURVE",
"410 388 OFFCURVE",
"410 402 CURVE SMOOTH"
);
},
{
closed = 1;
nodes = (
"292 469 OFFCURVE",
"307 468 OFFCURVE",
"319 463 CURVE",
"331 459 OFFCURVE",
"341 453 OFFCURVE",
"348 446 CURVE SMOOTH",
"355 439 OFFCURVE",
"360 432 OFFCURVE",
"363 424 CURVE SMOOTH",
"366 416 OFFCURVE",
"368 408 OFFCURVE",
"368 401 CURVE SMOOTH",
"368 391 OFFCURVE",
"366 382 OFFCURVE",
"364 373 CURVE SMOOTH",
"362 364 OFFCURVE",
"357 355 OFFCURVE",
"350 347 CURVE",
"343 338 OFFCURVE",
"332 330 OFFCURVE",
"319 322 CURVE SMOOTH",
"306 314 OFFCURVE",
"288 307 OFFCURVE",
"267 300 CURVE SMOOTH",
"246 293 OFFCURVE",
"220 286 OFFCURVE",
"189 280 CURVE SMOOTH",
"158 274 OFFCURVE",
"122 269 OFFCURVE",
"80 264 CURVE",
"85 291 OFFCURVE",
"93 317 OFFCURVE",
"104 342 CURVE SMOOTH",
"115 367 OFFCURVE",
"129 388 OFFCURVE",
"146 407 CURVE SMOOTH",
"163 426 OFFCURVE",
"182 441 OFFCURVE",
"203 452 CURVE SMOOTH",
"225 463 OFFCURVE",
"248 469 OFFCURVE",
"275 469 CURVE SMOOTH"
);
}
);
width = 438;
}
);
note = e;
unicode = 0065;
},
{
glyphname = f;
layers = (
{
layerId = "18B4A443-2C69-4DCB-9619-77A7DD6AC8EC";
name = Light;
paths = (
{
closed = 1;
nodes = (
"428 716 OFFCURVE",
"417 716 OFFCURVE",
"407 716 CURVE SMOOTH",
"384 716 OFFCURVE",
"363 713 OFFCURVE",
"343 706 CURVE SMOOTH",
"323 699 OFFCURVE",
"306 687 OFFCURVE",
"291 673 CURVE SMOOTH",
"276 659 OFFCURVE",
"264 641 OFFCURVE",
"254 620 CURVE SMOOTH",
"244 599 OFFCURVE",
"236 573 OFFCURVE",
"233 545 CURVE SMOOTH",
"226 482 LINE",
"141 482 LINE",
"139 462 LINE SMOOTH",
"138 454 OFFCURVE",
"142 451 OFFCURVE",
"152 450 CURVE SMOOTH",
"221 445 LINE",
"167 2 LINE SMOOTH",
"164 -25 OFFCURVE",
"157 -48 OFFCURVE",
"148 -67 CURVE SMOOTH",
"139 -86 OFFCURVE",
"128 -100 OFFCURVE",
"115 -112 CURVE SMOOTH",
"102 -124 OFFCURVE",
"88 -132 OFFCURVE",
"72 -137 CURVE SMOOTH",
"56 -142 OFFCURVE",
"39 -146 OFFCURVE",
"22 -146 CURVE SMOOTH",
"10 -146 OFFCURVE",
"4 -151 OFFCURVE",
"4 -162 CURVE SMOOTH",
"4 -186 LINE",
"33 -186 OFFCURVE",
"60 -182 OFFCURVE",
"84 -175 CURVE SMOOTH",
"108 -168 OFFCURVE",
"129 -156 OFFCURVE",
"147 -141 CURVE SMOOTH",
"165 -126 OFFCURVE",
"180 -106 OFFCURVE",
"191 -83 CURVE SMOOTH",
"202 -60 OFFCURVE",
"210 -32 OFFCURVE",
"214 1 CURVE SMOOTH",
"269 446 LINE",
"429 446 LINE",
"434 482 LINE",
"272 482 LINE",
"280 543 LINE SMOOTH",
"283 568 OFFCURVE",
"288 590 OFFCURVE",
"296 607 CURVE SMOOTH",
"304 624 OFFCURVE",
"313 637 OFFCURVE",
"324 648 CURVE SMOOTH",
"335 659 OFFCURVE",
"349 667 OFFCURVE",
"363 672 CURVE SMOOTH",
"377 677 OFFCURVE",
"393 679 OFFCURVE",
"409 679 CURVE SMOOTH",
"419 679 OFFCURVE",
"427 678 OFFCURVE",
"434 677 CURVE SMOOTH",
"441 676 OFFCURVE",
"446 676 OFFCURVE",
"450 676 CURVE SMOOTH",
"456 676 OFFCURVE",
"459 678 OFFCURVE",
"460 683 CURVE SMOOTH",
"465 706 LINE",
"457 709 OFFCURVE",
"448 712 OFFCURVE",
"438 714 CURVE SMOOTH"
);
}
);
width = 474;
}
);
note = f;
unicode = 0066;
},
{
color = 4;
glyphname = g;
lastChange = "2015-10-08 15:02:42 +0000";
layers = (
{
layerId = "18B4A443-2C69-4DCB-9619-77A7DD6AC8EC";
name = Light;
paths = (
{
closed = 1;
nodes = (
"417 391 OFFCURVE",
"411 423 OFFCURVE",
"398 445 CURVE",
"479 451 LINE",
"487 453 OFFCURVE",
"493 459 OFFCURVE",
"493 465 CURVE",
"495 481 LINE",
"365 481 LINE",
"338 499 OFFCURVE",
"310 506 OFFCURVE",
"277 506 CURVE SMOOTH",
"171 506 OFFCURVE",
"94 424 OFFCURVE",
"94 322 CURVE SMOOTH",
"94 238 OFFCURVE",
"144 183 OFFCURVE",
"227 183 CURVE SMOOTH",
"264 183 OFFCURVE",
"288 191 OFFCURVE",
"320 212 CURVE",
"304 187 OFFCURVE",
"291 163 OFFCURVE",
"291 132 CURVE SMOOTH",
"291 114 OFFCURVE",
"299 95 OFFCURVE",
"311 79 CURVE",
"305 80 OFFCURVE",
"257 84 OFFCURVE",
"243 84 CURVE SMOOTH",
"128 84 OFFCURVE",
"6 38 OFFCURVE",
"6 -66 CURVE SMOOTH",
"6 -147 OFFCURVE",
"91 -184 OFFCURVE",
"185 -184 CURVE SMOOTH",
"293 -184 OFFCURVE",
"406 -122 OFFCURVE",
"406 -22 CURVE SMOOTH",
"406 12 OFFCURVE",
"390 42 OFFCURVE",
"366 69 CURVE SMOOTH",
"344 94 OFFCURVE",
"326 119 OFFCURVE",
"326 146 CURVE SMOOTH",
"326 165 OFFCURVE",
"337 193 OFFCURVE",
"349 211 CURVE SMOOTH",
"392 272 OFFCURVE",
"417 309 OFFCURVE",
"417 369 CURVE SMOOTH"
);
},
{
closed = 1;
nodes = (
"363 -97 OFFCURVE",
"276 -150 OFFCURVE",
"189 -150 CURVE SMOOTH",
"119 -150 OFFCURVE",
"51 -127 OFFCURVE",
"51 -60 CURVE SMOOTH",
"51 19 OFFCURVE",
"153 55 OFFCURVE",
"247 55 CURVE SMOOTH",
"262 55 OFFCURVE",
"320 51 OFFCURVE",
"336 48 CURVE",
"335 49 LINE",
"352 28 OFFCURVE",
"363 6 OFFCURVE",
"363 -25 CURVE SMOOTH"
);
},
{
closed = 1;
nodes = (
"175 214 OFFCURVE",
"138 252 OFFCURVE",
"138 322 CURVE SMOOTH",
"138 403 OFFCURVE",
"193 472 OFFCURVE",
"272 472 CURVE SMOOTH",
"338 472 OFFCURVE",
"374 434 OFFCURVE",
"374 368 CURVE SMOOTH",
"374 287 OFFCURVE",
"321 214 OFFCURVE",
"238 214 CURVE SMOOTH"
);
}
);
width = 509;
}
);
note = g;
unicode = 0067;
},
{
glyphname = h;
layers = (
{
layerId = "18B4A443-2C69-4DCB-9619-77A7DD6AC8EC";
name = Light;
paths = (
{
closed = 1;
nodes = (
"480 38 LINE",
"473 38 LINE SMOOTH",
"470 38 OFFCURVE",
"465 39 OFFCURVE",
"458 39 CURVE SMOOTH",
"451 39 OFFCURVE",
"442 40 OFFCURVE",
"433 40 CURVE",
"468 318 LINE SMOOTH",
"472 347 OFFCURVE",
"471 373 OFFCURVE",
"467 396 CURVE SMOOTH",
"463 419 OFFCURVE",
"455 439 OFFCURVE",
"443 455 CURVE SMOOTH",
"431 471 OFFCURVE",
"416 483 OFFCURVE",
"396 492 CURVE SMOOTH",
"376 501 OFFCURVE",
"352 505 OFFCURVE",
"325 505 CURVE SMOOTH",
"288 505 OFFCURVE",
"255 497 OFFCURVE",
"223 480 CURVE SMOOTH",
"191 463 OFFCURVE",
"162 440 OFFCURVE",
"136 412 CURVE",
"174 727 LINE",
"127 727 LINE",
"55 727 LINE",
"52 708 LINE",
"51 697 OFFCURVE",
"57 691 OFFCURVE",
"70 690 CURVE",
"75 690 LINE SMOOTH",
"77 690 OFFCURVE",
"80 689 OFFCURVE",
"83 689 CURVE SMOOTH",
"98 689 LINE SMOOTH",
"105 689 OFFCURVE",
"113 688 OFFCURVE",
"122 688 CURVE",
"42 40 LINE",
"38 0 LINE",
"85 0 LINE",
"90 40 LINE",
"102 137 LINE",
"106 170 LINE",
"131 373 LINE",
"157 402 OFFCURVE",
"184 425 OFFCURVE",
"214 442 CURVE SMOOTH",
"244 459 OFFCURVE",
"275 467 OFFCURVE",
"308 467 CURVE SMOOTH",
"352 467 OFFCURVE",
"384 454 OFFCURVE",
"402 428 CURVE SMOOTH",
"420 401 OFFCURVE",
"426 365 OFFCURVE",
"420 318 CURVE SMOOTH",
"381 0 LINE",
"429 0 LINE",
"501 0 LINE",
"503 20 LINE SMOOTH",
"504 31 OFFCURVE",
"499 37 OFFCURVE",
"486 38 CURVE"
);
}
);
width = 549;
}
);
note = h;
unicode = 0068;
},
{
glyphname = i;
layers = (
{
layerId = "18B4A443-2C69-4DCB-9619-77A7DD6AC8EC";
name = Light;
paths = (
{
closed = 1;
nodes = (
"149 38 LINE",
"141 38 LINE SMOOTH",
"138 38 OFFCURVE",
"133 39 OFFCURVE",
"126 39 CURVE SMOOTH",
"119 39 OFFCURVE",
"111 40 OFFCURVE",
"102 40 CURVE",
"158 498 LINE",
"110 498 LINE",
"38 498 LINE",
"36 478 LINE SMOOTH",
"35 467 OFFCURVE",
"40 461 OFFCURVE",
"53 460 CURVE",
"59 460 LINE SMOOTH",
"61 460 OFFCURVE",
"63 459 OFFCURVE",
"66 459 CURVE SMOOTH",
"81 459 LINE SMOOTH",
"88 459 OFFCURVE",
"97 458 OFFCURVE",
"106 458 CURVE",
"59 80 LINE",
"49 0 LINE",
"97 0 LINE",
"169 0 LINE",
"171 20 LINE SMOOTH",
"172 31 OFFCURVE",
"167 37 OFFCURVE",
"154 38 CURVE"
);
},
{
closed = 1;
nodes = (
"125 634 OFFCURVE",
"129 631 OFFCURVE",
"134 629 CURVE SMOOTH",
"139 627 OFFCURVE",
"144 625 OFFCURVE",
"150 625 CURVE SMOOTH",
"156 625 OFFCURVE",
"162 627 OFFCURVE",
"168 629 CURVE SMOOTH",
"174 631 OFFCURVE",
"179 634 OFFCURVE",
"183 638 CURVE SMOOTH",
"187 642 OFFCURVE",
"191 647 OFFCURVE",
"194 652 CURVE SMOOTH",
"197 657 OFFCURVE",
"199 663 OFFCURVE",
"200 669 CURVE SMOOTH",
"201 675 OFFCURVE",
"200 680 OFFCURVE",
"198 686 CURVE",
"196 691 OFFCURVE",
"194 696 OFFCURVE",
"190 700 CURVE",
"187 704 OFFCURVE",
"182 708 OFFCURVE",
"177 710 CURVE SMOOTH",
"172 712 OFFCURVE",
"167 713 OFFCURVE",
"161 713 CURVE SMOOTH",
"155 713 OFFCURVE",
"149 712 OFFCURVE",
"143 710 CURVE SMOOTH",
"137 708 OFFCURVE",
"132 704 OFFCURVE",
"128 700 CURVE",
"123 696 OFFCURVE",
"120 691 OFFCURVE",
"117 686 CURVE SMOOTH",
"114 681 OFFCURVE",
"112 675 OFFCURVE",
"111 669 CURVE SMOOTH",
"110 663 OFFCURVE",
"111 657 OFFCURVE",
"113 652 CURVE SMOOTH",
"115 647 OFFCURVE",
"117 642 OFFCURVE",
"121 638 CURVE SMOOTH"
);
}
);
width = 221;
}
);
note = i;
unicode = 0069;
},
{
glyphname = j;
layers = (
{
layerId = "18B4A443-2C69-4DCB-9619-77A7DD6AC8EC";
name = Light;
paths = (
{
closed = 1;
nodes = (
"292 691 OFFCURVE",
"290 696 OFFCURVE",
"286 700 CURVE",
"283 704 OFFCURVE",
"279 708 OFFCURVE",
"274 710 CURVE SMOOTH",
"269 712 OFFCURVE",
"263 713 OFFCURVE",
"257 713 CURVE SMOOTH",
"251 713 OFFCURVE",
"246 712 OFFCURVE",
"240 710 CURVE SMOOTH",
"234 708 OFFCURVE",
"228 704 OFFCURVE",
"224 700 CURVE SMOOTH",
"220 696 OFFCURVE",
"216 691 OFFCURVE",
"213 686 CURVE SMOOTH",
"210 681 OFFCURVE",
"209 675 OFFCURVE",
"208 669 CURVE SMOOTH",
"207 663 OFFCURVE",
"207 657 OFFCURVE",
"209 652 CURVE SMOOTH",
"211 647 OFFCURVE",
"213 642 OFFCURVE",
"217 638 CURVE SMOOTH",
"221 634 OFFCURVE",
"225 631 OFFCURVE",
"230 629 CURVE SMOOTH",
"235 627 OFFCURVE",
"240 625 OFFCURVE",
"246 625 CURVE SMOOTH",
"252 625 OFFCURVE",
"258 627 OFFCURVE",
"264 629 CURVE SMOOTH",
"270 631 OFFCURVE",
"275 634 OFFCURVE",
"279 638 CURVE",
"284 642 OFFCURVE",
"287 647 OFFCURVE",
"290 652 CURVE SMOOTH",
"293 657 OFFCURVE",
"295 663 OFFCURVE",
"296 669 CURVE SMOOTH",
"297 675 OFFCURVE",
"296 680 OFFCURVE",
"294 686 CURVE"
);
},
{
closed = 1;
nodes = (
"206 497 LINE",
"134 497 LINE",
"132 478 LINE SMOOTH",
"131 467 OFFCURVE",
"137 461 OFFCURVE",
"150 460 CURVE",
"155 460 LINE SMOOTH",
"157 460 OFFCURVE",
"159 459 OFFCURVE",
"162 459 CURVE SMOOTH",
"177 459 LINE SMOOTH",
"184 459 OFFCURVE",
"193 458 OFFCURVE",
"202 458 CURVE",
"138 -63 LINE SMOOTH",
"135 -90 OFFCURVE",
"125 -111 OFFCURVE",
"110 -126 CURVE SMOOTH",
"95 -141 OFFCURVE",
"75 -148 OFFCURVE",
"48 -148 CURVE SMOOTH",
"40 -148 OFFCURVE",
"33 -147 OFFCURVE",
"28 -146 CURVE SMOOTH",
"23 -145 OFFCURVE",
"20 -144 OFFCURVE",
"17 -144 CURVE SMOOTH",
"13 -144 OFFCURVE",
"10 -146 OFFCURVE",
"9 -150 CURVE",
"4 -174 LINE",
"11 -178 OFFCURVE",
"19 -180 OFFCURVE",
"26 -182 CURVE SMOOTH",
"33 -184 OFFCURVE",
"41 -184 OFFCURVE",
"51 -184 CURVE SMOOTH",
"71 -184 OFFCURVE",
"89 -181 OFFCURVE",
"105 -175 CURVE SMOOTH",
"121 -169 OFFCURVE",
"134 -161 OFFCURVE",
"145 -150 CURVE SMOOTH",
"156 -139 OFFCURVE",
"165 -126 OFFCURVE",
"172 -111 CURVE SMOOTH",
"179 -96 OFFCURVE",
"183 -80 OFFCURVE",
"185 -63 CURVE SMOOTH",
"254 497 LINE"
);
}
);
width = 310;
}
);
note = j;
unicode = 006A;
},
{
glyphname = k;
layers = (
{
layerId = "18B4A443-2C69-4DCB-9619-77A7DD6AC8EC";
name = Light;
paths = (
{
closed = 1;
nodes = (
"425 498 LINE",
"405 498 LINE",
"324 498 LINE",
"321 478 LINE",
"320 467 OFFCURVE",
"326 461 OFFCURVE",
"339 460 CURVE",
"340 460 OFFCURVE",
"348 460 OFFCURVE",
"364 459 CURVE",
"171 295 LINE SMOOTH",
"165 290 OFFCURVE",
"160 287 OFFCURVE",
"156 286 CURVE SMOOTH",
"152 285 OFFCURVE",
"148 284 OFFCURVE",
"143 284 CURVE SMOOTH",
"120 284 LINE",
"174 727 LINE",
"127 727 LINE",
"55 727 LINE",
"52 708 LINE",
"51 697 OFFCURVE",
"57 691 OFFCURVE",
"70 690 CURVE",
"75 690 LINE SMOOTH",
"77 690 OFFCURVE",
"80 689 OFFCURVE",
"83 689 CURVE SMOOTH",
"98 689 LINE SMOOTH",
"105 689 OFFCURVE",
"113 688 OFFCURVE",
"122 688 CURVE",
"42 40 LINE",
"38 0 LINE",
"85 0 LINE",
"101 130 LINE",
"116 251 LINE",
"138 251 LINE SMOOTH",
"148 251 OFFCURVE",
"156 250 OFFCURVE",
"160 248 CURVE SMOOTH",
"164 246 OFFCURVE",
"169 241 OFFCURVE",
"174 235 CURVE SMOOTH",
"355 11 LINE",
"358 7 OFFCURVE",
"362 5 OFFCURVE",
"365 3 CURVE SMOOTH",
"368 1 OFFCURVE",
"372 0 OFFCURVE",
"377 0 CURVE SMOOTH",
"380 0 LINE",
"419 0 LINE",
"441 0 LINE",
"443 20 LINE SMOOTH",
"444 31 OFFCURVE",
"439 37 OFFCURVE",
"426 38 CURVE",
"421 38 LINE",
"415 38 LINE",
"405 38 LINE SMOOTH",
"400 38 OFFCURVE",
"394 39 OFFCURVE",
"388 39 CURVE",
"219 251 LINE SMOOTH",
"216 255 OFFCURVE",
"212 259 OFFCURVE",
"209 263 CURVE SMOOTH",
"206 267 OFFCURVE",
"202 269 OFFCURVE",
"197 272 CURVE",
"201 274 OFFCURVE",
"205 277 OFFCURVE",
"208 280 CURVE SMOOTH",
"211 283 OFFCURVE",
"214 286 OFFCURVE",
"218 289 CURVE",
"417 458 LINE",
"423 458 OFFCURVE",
"429 459 OFFCURVE",
"434 459 CURVE SMOOTH",
"439 459 OFFCURVE",
"443 460 OFFCURVE",
"447 460 CURVE SMOOTH",
"453 460 LINE",
"466 461 OFFCURVE",
"474 467 OFFCURVE",
"475 478 CURVE",
"478 498 LINE"
);
}
);
width = 492;
}
);
note = k;
unicode = 006B;
},
{
glyphname = l;
layers = (
{
layerId = "18B4A443-2C69-4DCB-9619-77A7DD6AC8EC";
name = Light;
paths = (
{
closed = 1;
nodes = (
"137 38 LINE",
"129 38 LINE SMOOTH",
"126 38 OFFCURVE",
"121 39 OFFCURVE",
"114 39 CURVE SMOOTH",
"107 39 OFFCURVE",
"99 40 OFFCURVE",
"90 40 CURVE",
"174 728 LINE",
"127 728 LINE",
"55 728 LINE",
"52 708 LINE",
"51 697 OFFCURVE",
"57 691 OFFCURVE",
"70 690 CURVE",
"75 690 LINE SMOOTH",
"77 690 OFFCURVE",
"80 689 OFFCURVE",
"83 689 CURVE SMOOTH",
"98 689 LINE SMOOTH",
"105 689 OFFCURVE",
"113 688 OFFCURVE",
"122 688 CURVE",
"42 40 LINE",
"38 0 LINE",
"85 0 LINE",
"157 0 LINE",
"160 20 LINE",
"161 31 OFFCURVE",
"155 37 OFFCURVE",
"142 38 CURVE"
);
}
);
width = 207;
}
);
note = l;
unicode = 006C;
},
{
glyphname = m;
layers = (
{
layerId = "18B4A443-2C69-4DCB-9619-77A7DD6AC8EC";
name = Light;
paths = (
{
closed = 1;
nodes = (
"748 38 LINE",
"740 38 LINE SMOOTH",
"737 38 OFFCURVE",
"732 39 OFFCURVE",
"725 39 CURVE SMOOTH",
"718 39 OFFCURVE",
"710 40 OFFCURVE",
"701 40 CURVE",
"735 318 LINE SMOOTH",
"739 348 OFFCURVE",
"738 375 OFFCURVE",
"734 398 CURVE SMOOTH",
"730 421 OFFCURVE",
"722 441 OFFCURVE",
"710 457 CURVE SMOOTH",
"698 473 OFFCURVE",
"683 485 OFFCURVE",
"664 493 CURVE SMOOTH",
"645 501 OFFCURVE",
"624 505 OFFCURVE",
"599 505 CURVE SMOOTH",
"582 505 OFFCURVE",
"565 503 OFFCURVE",
"548 498 CURVE SMOOTH",
"531 493 OFFCURVE",
"514 486 OFFCURVE",
"499 476 CURVE SMOOTH",
"484 466 OFFCURVE",
"470 454 OFFCURVE",
"457 439 CURVE SMOOTH",
"444 424 OFFCURVE",
"435 406 OFFCURVE",
"426 385 CURVE",
"423 423 OFFCURVE",
"411 453 OFFCURVE",
"392 474 CURVE SMOOTH",
"373 495 OFFCURVE",
"345 505 OFFCURVE",
"309 505 CURVE SMOOTH",
"293 505 OFFCURVE",
"279 504 OFFCURVE",
"264 499 CURVE",
"249 495 OFFCURVE",
"235 488 OFFCURVE",
"221 480 CURVE SMOOTH",
"207 472 OFFCURVE",
"195 461 OFFCURVE",
"183 450 CURVE SMOOTH",
"171 439 OFFCURVE",
"158 427 OFFCURVE",
"147 413 CURVE",
"151 485 LINE",
"151 493 OFFCURVE",
"147 497 OFFCURVE",
"138 497 CURVE SMOOTH",
"112 497 LINE",
"40 497 LINE",
"37 478 LINE",
"36 467 OFFCURVE",
"42 461 OFFCURVE",
"55 460 CURVE",
"60 460 LINE SMOOTH",
"62 460 OFFCURVE",
"65 459 OFFCURVE",
"68 459 CURVE SMOOTH",
"83 459 LINE SMOOTH",
"90 459 OFFCURVE",
"98 458 OFFCURVE",
"107 458 CURVE",
"56 40 LINE",
"51 0 LINE",
"51 0 LINE",
"98 0 LINE",
"98 0 LINE",
"103 40 LINE",
"108 76 LINE",
"116 141 LINE",
"144 376 LINE",
"165 405 OFFCURVE",
"189 427 OFFCURVE",
"214 443 CURVE SMOOTH",
"239 459 OFFCURVE",
"265 468 OFFCURVE",
"292 468 CURVE SMOOTH",
"329 468 OFFCURVE",
"356 455 OFFCURVE",
"372 429 CURVE SMOOTH",
"388 403 OFFCURVE",
"393 366 OFFCURVE",
"387 318 CURVE SMOOTH",
"348 0 LINE",
"396 0 LINE",
"396 0 LINE",
"396 0 LINE",
"415 154 LINE",
"435 318 LINE SMOOTH",
"438 343 OFFCURVE",
"445 364 OFFCURVE",
"454 383 CURVE SMOOTH",
"463 402 OFFCURVE",
"474 418 OFFCURVE",
"488 430 CURVE SMOOTH",
"502 442 OFFCURVE",
"517 452 OFFCURVE",
"534 458 CURVE SMOOTH",
"551 464 OFFCURVE",
"568 467 OFFCURVE",
"585 467 CURVE SMOOTH",
"624 467 OFFCURVE",
"652 454 OFFCURVE",
"670 429 CURVE SMOOTH",
"688 403 OFFCURVE",
"694 367 OFFCURVE",
"688 318 CURVE SMOOTH",
"649 0 LINE",
"696 0 LINE",
"769 0 LINE",
"771 20 LINE SMOOTH",
"772 31 OFFCURVE",
"766 37 OFFCURVE",
"753 38 CURVE"
);
}
);
width = 820;
}
);
note = m;
unicode = 006D;
},
{
glyphname = n;
layers = (
{
layerId = "18B4A443-2C69-4DCB-9619-77A7DD6AC8EC";
name = Light;
paths = (
{
closed = 1;
nodes = (
"494 38 LINE",
"486 38 LINE SMOOTH",
"483 38 OFFCURVE",
"478 39 OFFCURVE",
"471 39 CURVE SMOOTH",
"464 39 OFFCURVE",
"456 40 OFFCURVE",
"447 40 CURVE",
"481 318 LINE SMOOTH",
"485 347 OFFCURVE",
"484 373 OFFCURVE",
"480 396 CURVE SMOOTH",
"476 419 OFFCURVE",
"468 439 OFFCURVE",
"456 455 CURVE SMOOTH",
"444 471 OFFCURVE",
"429 483 OFFCURVE",
"409 492 CURVE SMOOTH",
"389 501 OFFCURVE",
"365 505 OFFCURVE",
"338 505 CURVE SMOOTH",
"301 505 OFFCURVE",
"266 497 OFFCURVE",
"234 479 CURVE SMOOTH",
"202 461 OFFCURVE",
"173 439 OFFCURVE",
"147 410 CURVE",
"151 485 LINE",
"151 493 OFFCURVE",
"147 497 OFFCURVE",
"138 497 CURVE SMOOTH",
"112 497 LINE",
"40 497 LINE",
"37 478 LINE",
"36 467 OFFCURVE",
"42 461 OFFCURVE",
"55 460 CURVE",
"60 460 LINE SMOOTH",
"62 460 OFFCURVE",
"65 459 OFFCURVE",
"68 459 CURVE SMOOTH",
"83 459 LINE SMOOTH",
"90 459 OFFCURVE",
"98 458 OFFCURVE",
"107 458 CURVE",
"56 40 LINE",
"56 40 LINE",
"51 0 LINE",
"51 0 LINE",
"98 0 LINE",
"110 94 LINE",
"144 373 LINE",
"170 402 OFFCURVE",
"198 425 OFFCURVE",
"228 442 CURVE SMOOTH",
"258 459 OFFCURVE",
"289 467 OFFCURVE",
"322 467 CURVE SMOOTH",
"366 467 OFFCURVE",
"397 454 OFFCURVE",
"415 428 CURVE SMOOTH",
"433 401 OFFCURVE",
"439 365 OFFCURVE",
"433 318 CURVE SMOOTH",
"394 0 LINE",
"442 0 LINE",
"514 0 LINE",
"516 20 LINE SMOOTH",
"517 31 OFFCURVE",
"512 37 OFFCURVE",
"499 38 CURVE"
);
}
);
width = 565;
}
);
note = n;
unicode = 006E;
},
{
glyphname = o;
layers = (
{
layerId = "18B4A443-2C69-4DCB-9619-77A7DD6AC8EC";
name = Light;
paths = (
{
closed = 1;
nodes = (
"252 506 OFFCURVE",
"220 499 OFFCURVE",
"190 487 CURVE SMOOTH",
"160 475 OFFCURVE",
"134 458 OFFCURVE",
"112 436 CURVE SMOOTH",
"90 414 OFFCURVE",
"72 387 OFFCURVE",
"58 355 CURVE SMOOTH",
"44 323 OFFCURVE",
"35 288 OFFCURVE",
"30 249 CURVE SMOOTH",
"25 210 OFFCURVE",
"26 175 OFFCURVE",
"32 144 CURVE SMOOTH",
"38 113 OFFCURVE",
"50 85 OFFCURVE",
"67 63 CURVE SMOOTH",
"84 41 OFFCURVE",
"105 24 OFFCURVE",
"132 12 CURVE SMOOTH",
"159 0 OFFCURVE",
"189 -6 OFFCURVE",
"225 -6 CURVE SMOOTH",
"261 -6 OFFCURVE",
"293 0 OFFCURVE",
"323 12 CURVE SMOOTH",
"353 24 OFFCURVE",
"379 41 OFFCURVE",
"401 63 CURVE SMOOTH",
"423 85 OFFCURVE",
"441 113 OFFCURVE",
"455 144 CURVE SMOOTH",
"469 175 OFFCURVE",
"478 210 OFFCURVE",
"483 249 CURVE SMOOTH",
"488 288 OFFCURVE",
"487 323 OFFCURVE",
"481 355 CURVE SMOOTH",
"475 387 OFFCURVE",
"463 414 OFFCURVE",
"446 436 CURVE SMOOTH",
"429 458 OFFCURVE",
"409 475 OFFCURVE",
"382 487 CURVE SMOOTH",
"355 499 OFFCURVE",
"324 506 OFFCURVE",
"288 506 CURVE SMOOTH"
);
},
{
closed = 1;
nodes = (
"200 31 OFFCURVE",
"175 36 OFFCURVE",
"154 46 CURVE SMOOTH",
"133 56 OFFCURVE",
"116 71 OFFCURVE",
"104 90 CURVE SMOOTH",
"92 109 OFFCURVE",
"83 132 OFFCURVE",
"79 159 CURVE SMOOTH",
"75 186 OFFCURVE",
"75 216 OFFCURVE",
"79 249 CURVE SMOOTH",
"83 282 OFFCURVE",
"90 312 OFFCURVE",
"101 339 CURVE SMOOTH",
"112 366 OFFCURVE",
"126 389 OFFCURVE",
"143 408 CURVE SMOOTH",
"160 427 OFFCURVE",
"181 443 OFFCURVE",
"204 453 CURVE SMOOTH",
"227 463 OFFCURVE",
"253 468 OFFCURVE",
"283 468 CURVE SMOOTH",
"313 468 OFFCURVE",
"338 463 OFFCURVE",
"359 453 CURVE SMOOTH",
"380 443 OFFCURVE",
"397 427 OFFCURVE",
"409 408 CURVE SMOOTH",
"421 389 OFFCURVE",
"430 366 OFFCURVE",
"434 339 CURVE SMOOTH",
"438 312 OFFCURVE",
"438 282 OFFCURVE",
"434 249 CURVE SMOOTH",
"430 216 OFFCURVE",
"423 186 OFFCURVE",
"412 159 CURVE SMOOTH",
"401 132 OFFCURVE",
"387 109 OFFCURVE",
"370 90 CURVE SMOOTH",
"353 71 OFFCURVE",
"332 56 OFFCURVE",
"309 46 CURVE SMOOTH",
"286 36 OFFCURVE",
"260 31 OFFCURVE",
"230 31 CURVE SMOOTH"
);
}
);
width = 522;
}
);
note = o;
unicode = 006F;
},
{
glyphname = p;
layers = (
{
layerId = "18B4A443-2C69-4DCB-9619-77A7DD6AC8EC";
name = Light;
paths = (
{
closed = 1;
nodes = (
"488 484 OFFCURVE",
"443 506 OFFCURVE",
"382 506 CURVE SMOOTH",
"345 506 OFFCURVE",
"311 497 OFFCURVE",
"279 479 CURVE SMOOTH",
"247 461 OFFCURVE",
"219 438 OFFCURVE",
"193 408 CURVE",
"198 485 LINE",
"198 490 OFFCURVE",
"197 493 OFFCURVE",
"195 495 CURVE SMOOTH",
"193 497 OFFCURVE",
"189 497 OFFCURVE",
"185 497 CURVE SMOOTH",
"159 497 LINE",
"87 497 LINE",
"84 478 LINE",
"83 467 OFFCURVE",
"89 461 OFFCURVE",
"102 460 CURVE",
"107 460 LINE SMOOTH",
"109 460 OFFCURVE",
"112 459 OFFCURVE",
"115 459 CURVE SMOOTH",
"130 459 LINE SMOOTH",
"137 459 OFFCURVE",
"145 458 OFFCURVE",
"154 458 CURVE",
"81 -136 LINE",
"69 -136 OFFCURVE",
"59 -138 OFFCURVE",
"51 -138 CURVE SMOOTH",
"35 -138 LINE",
"28 -138 LINE",
"15 -139 OFFCURVE",
"7 -145 OFFCURVE",
"6 -156 CURVE SMOOTH",
"4 -176 LINE",
"76 -176 LINE",
"124 -176 LINE",
"196 -176 LINE",
"198 -156 LINE SMOOTH",
"199 -145 OFFCURVE",
"194 -139 OFFCURVE",
"181 -138 CURVE",
"175 -138 LINE",
"168 -138 LINE SMOOTH",
"165 -138 OFFCURVE",
"160 -137 OFFCURVE",
"153 -137 CURVE SMOOTH",
"146 -137 OFFCURVE",
"138 -136 OFFCURVE",
"129 -136 CURVE",
"154 67 LINE",
"169 43 OFFCURVE",
"188 24 OFFCURVE",
"211 12 CURVE SMOOTH",
"234 0 OFFCURVE",
"263 -6 OFFCURVE",
"297 -6 CURVE SMOOTH",
"332 -6 OFFCURVE",
"364 1 OFFCURVE",
"392 14 CURVE SMOOTH",
"420 27 OFFCURVE",
"445 45 OFFCURVE",
"466 68 CURVE SMOOTH",
"487 91 OFFCURVE",
"505 119 OFFCURVE",
"518 150 CURVE SMOOTH",
"531 181 OFFCURVE",
"541 216 OFFCURVE",
"545 252 CURVE SMOOTH",
"555 337 OFFCURVE",
"546 400 OFFCURVE",
"517 442 CURVE SMOOTH"
);
},
{
closed = 1;
nodes = (
"463 135 OFFCURVE",
"448 112 OFFCURVE",
"431 92 CURVE SMOOTH",
"414 72 OFFCURVE",
"394 58 OFFCURVE",
"371 47 CURVE SMOOTH",
"348 36 OFFCURVE",
"321 31 OFFCURVE",
"292 31 CURVE SMOOTH",
"262 31 OFFCURVE",
"237 37 OFFCURVE",
"215 49 CURVE SMOOTH",
"193 61 OFFCURVE",
"174 80 OFFCURVE",
"159 109 CURVE",
"191 370 LINE",
"215 401 OFFCURVE",
"242 425 OFFCURVE",
"271 442 CURVE SMOOTH",
"300 459 OFFCURVE",
"331 467 OFFCURVE",
"364 467 CURVE SMOOTH",
"415 467 OFFCURVE",
"452 450 OFFCURVE",
"475 415 CURVE SMOOTH",
"498 380 OFFCURVE",
"505 326 OFFCURVE",
"496 252 CURVE SMOOTH",
"492 219 OFFCURVE",
"485 189 OFFCURVE",
"474 162 CURVE SMOOTH"
);
}
);
width = 585;
}
);
note = p;
unicode = 0070;
},
{
glyphname = q;
layers = (
{
layerId = "18B4A443-2C69-4DCB-9619-77A7DD6AC8EC";
name = Light;
paths = (
{
closed = 1;
nodes = (
"447 -139 LINE SMOOTH",
"445 -139 OFFCURVE",
"443 -138 OFFCURVE",
"440 -138 CURVE SMOOTH",
"425 -138 LINE SMOOTH",
"418 -138 OFFCURVE",
"409 -137 OFFCURVE",
"400 -137 CURVE",
"473 452 LINE",
"476 477 LINE",
"390 496 OFFCURVE",
"325 505 OFFCURVE",
"280 505 CURVE SMOOTH",
"245 505 OFFCURVE",
"214 498 OFFCURVE",
"185 485 CURVE SMOOTH",
"156 472 OFFCURVE",
"131 454 OFFCURVE",
"110 431 CURVE SMOOTH",
"89 408 OFFCURVE",
"71 381 OFFCURVE",
"58 349 CURVE SMOOTH",
"45 318 OFFCURVE",
"35 283 OFFCURVE",
"31 247 CURVE SMOOTH",
"21 162 OFFCURVE",
"30 99 OFFCURVE",
"59 57 CURVE SMOOTH",
"88 15 OFFCURVE",
"133 -6 OFFCURVE",
"194 -6 CURVE SMOOTH",
"230 -6 OFFCURVE",
"264 2 OFFCURVE",
"295 19 CURVE SMOOTH",
"326 36 OFFCURVE",
"354 59 OFFCURVE",
"380 88 CURVE",
"353 -137 LINE",
"341 -137 OFFCURVE",
"331 -138 OFFCURVE",
"323 -138 CURVE SMOOTH",
"315 -138 OFFCURVE",
"310 -139 OFFCURVE",
"307 -139 CURVE SMOOTH",
"300 -139 LINE",
"287 -140 OFFCURVE",
"279 -146 OFFCURVE",
"278 -157 CURVE SMOOTH",
"276 -176 LINE",
"348 -176 LINE",
"350 -163 LINE",
"348 -176 LINE",
"396 -176 LINE",
"468 -176 LINE",
"470 -157 LINE SMOOTH",
"471 -146 OFFCURVE",
"466 -140 OFFCURVE",
"453 -139 CURVE"
);
},
{
closed = 1;
nodes = (
"385 128 LINE",
"360 98 OFFCURVE",
"334 74 OFFCURVE",
"305 57 CURVE SMOOTH",
"276 40 OFFCURVE",
"245 32 OFFCURVE",
"212 32 CURVE SMOOTH",
"161 32 OFFCURVE",
"124 49 OFFCURVE",
"101 84 CURVE SMOOTH",
"78 119 OFFCURVE",
"71 173 OFFCURVE",
"80 247 CURVE SMOOTH",
"84 280 OFFCURVE",
"91 310 OFFCURVE",
"102 337 CURVE SMOOTH",
"113 364 OFFCURVE",
"128 388 OFFCURVE",
"145 407 CURVE SMOOTH",
"162 426 OFFCURVE",
"182 441 OFFCURVE",
"205 452 CURVE SMOOTH",
"228 463 OFFCURVE",
"256 468 OFFCURVE",
"285 468 CURVE SMOOTH",
"311 468 OFFCURVE",
"357 461 OFFCURVE",
"425 447 CURVE"
);
}
);
width = 513;
}
);
note = q;
unicode = 0071;
},
{
glyphname = r;
layers = (
{
layerId = "18B4A443-2C69-4DCB-9619-77A7DD6AC8EC";
name = Light;
paths = (
{
closed = 1;
nodes = (
"350 504 OFFCURVE",
"336 506 OFFCURVE",
"321 506 CURVE SMOOTH",
"282 506 OFFCURVE",
"247 495 OFFCURVE",
"218 472 CURVE SMOOTH",
"189 449 OFFCURVE",
"164 417 OFFCURVE",
"143 377 CURVE",
"151 482 LINE",
"151 488 OFFCURVE",
"151 492 OFFCURVE",
"149 494 CURVE SMOOTH",
"147 496 OFFCURVE",
"143 497 OFFCURVE",
"137 497 CURVE SMOOTH",
"112 497 LINE",
"40 497 LINE",
"37 478 LINE",
"36 467 OFFCURVE",
"42 461 OFFCURVE",
"55 460 CURVE",
"60 460 LINE SMOOTH",
"62 460 OFFCURVE",
"65 459 OFFCURVE",
"68 459 CURVE SMOOTH",
"83 459 LINE SMOOTH",
"90 459 OFFCURVE",
"98 458 OFFCURVE",
"107 458 CURVE",
"56 40 LINE",
"51 0 LINE",
"98 0 LINE",
"138 323 LINE",
"158 367 OFFCURVE",
"182 401 OFFCURVE",
"209 424 CURVE SMOOTH",
"236 447 OFFCURVE",
"268 459 OFFCURVE",
"306 459 CURVE SMOOTH",
"316 459 OFFCURVE",
"325 458 OFFCURVE",
"333 457 CURVE SMOOTH",
"341 456 OFFCURVE",
"348 455 OFFCURVE",
"353 453 CURVE SMOOTH",
"358 451 OFFCURVE",
"363 449 OFFCURVE",
"366 448 CURVE SMOOTH",
"369 447 OFFCURVE",
"373 446 OFFCURVE",
"375 446 CURVE SMOOTH",
"381 446 OFFCURVE",
"384 449 OFFCURVE",
"386 454 CURVE",
"396 487 LINE",
"385 493 OFFCURVE",
"374 498 OFFCURVE",
"362 501 CURVE SMOOTH"
);
}
);
width = 411;
}
);
note = r;
unicode = 0072;
},
{
glyphname = s;
layers = (
{
layerId = "18B4A443-2C69-4DCB-9619-77A7DD6AC8EC";
name = Light;
paths = (
{
closed = 1;
nodes = (
"353 211 OFFCURVE",
"344 222 OFFCURVE",
"332 232 CURVE SMOOTH",
"320 242 OFFCURVE",
"306 250 OFFCURVE",
"290 256 CURVE SMOOTH",
"274 262 OFFCURVE",
"259 269 OFFCURVE",
"242 274 CURVE SMOOTH",
"226 279 OFFCURVE",
"209 285 OFFCURVE",
"193 290 CURVE SMOOTH",
"177 295 OFFCURVE",
"163 302 OFFCURVE",
"151 309 CURVE SMOOTH",
"139 316 OFFCURVE",
"130 325 OFFCURVE",
"123 335 CURVE SMOOTH",
"116 345 OFFCURVE",
"114 358 OFFCURVE",
"116 374 CURVE SMOOTH",
"118 387 OFFCURVE",
"122 399 OFFCURVE",
"129 410 CURVE SMOOTH",
"136 421 OFFCURVE",
"145 432 OFFCURVE",
"157 441 CURVE SMOOTH",
"169 450 OFFCURVE",
"183 456 OFFCURVE",
"198 461 CURVE SMOOTH",
"213 466 OFFCURVE",
"230 469 OFFCURVE",
"248 469 CURVE SMOOTH",
"274 469 OFFCURVE",
"299 465 OFFCURVE",
"325 456 CURVE",
"324 444 OFFCURVE",
"324 432 OFFCURVE",
"324 421 CURVE SMOOTH",
"324 410 OFFCURVE",
"323 402 OFFCURVE",
"323 396 CURVE SMOOTH",
"323 384 LINE",
"322 368 OFFCURVE",
"327 360 OFFCURVE",
"341 360 CURVE SMOOTH",
"365 360 LINE",
"380 479 LINE",
"330 497 OFFCURVE",
"287 505 OFFCURVE",
"251 505 CURVE SMOOTH",
"226 505 OFFCURVE",
"202 501 OFFCURVE",
"181 494 CURVE SMOOTH",
"160 487 OFFCURVE",
"142 477 OFFCURVE",
"126 465 CURVE SMOOTH",
"110 453 OFFCURVE",
"98 438 OFFCURVE",
"88 422 CURVE SMOOTH",
"78 406 OFFCURVE",
"72 389 OFFCURVE",
"70 371 CURVE SMOOTH",
"67 350 OFFCURVE",
"70 333 OFFCURVE",
"76 319 CURVE SMOOTH",
"82 305 OFFCURVE",
"91 294 OFFCURVE",
"103 284 CURVE SMOOTH",
"115 274 OFFCURVE",
"128 266 OFFCURVE",
"144 260 CURVE SMOOTH",
"160 254 OFFCURVE",
"176 248 OFFCURVE",
"193 243 CURVE SMOOTH",
"210 238 OFFCURVE",
"226 232 OFFCURVE",
"242 227 CURVE SMOOTH",
"258 222 OFFCURVE",
"272 215 OFFCURVE",
"284 207 CURVE SMOOTH",
"296 199 OFFCURVE",
"305 190 OFFCURVE",
"312 179 CURVE SMOOTH",
"319 168 OFFCURVE",
"321 155 OFFCURVE",
"319 138 CURVE SMOOTH",
"317 123 OFFCURVE",
"313 109 OFFCURVE",
"306 95 CURVE SMOOTH",
"299 81 OFFCURVE",
"289 70 OFFCURVE",
"277 60 CURVE SMOOTH",
"265 50 OFFCURVE",
"251 42 OFFCURVE",
"234 36 CURVE SMOOTH",
"217 30 OFFCURVE",
"199 27 OFFCURVE",
"178 27 CURVE SMOOTH",
"140 27 OFFCURVE",
"108 32 OFFCURVE",
"82 43 CURVE",
"83 56 OFFCURVE",
"84 68 OFFCURVE",
"84 79 CURVE SMOOTH",
"84 90 OFFCURVE",
"85 99 OFFCURVE",
"85 105 CURVE SMOOTH",
"85 117 LINE",
"86 133 OFFCURVE",
"81 141 OFFCURVE",
"67 141 CURVE SMOOTH",
"42 141 LINE",
"28 20 LINE",
"74 2 OFFCURVE",
"121 -8 OFFCURVE",
"171 -8 CURVE SMOOTH",
"199 -8 OFFCURVE",
"224 -4 OFFCURVE",
"247 4 CURVE SMOOTH",
"270 12 OFFCURVE",
"288 23 OFFCURVE",
"305 37 CURVE SMOOTH",
"322 51 OFFCURVE",
"335 66 OFFCURVE",
"345 85 CURVE SMOOTH",
"355 104 OFFCURVE",
"362 124 OFFCURVE",
"365 146 CURVE",
"367 166 OFFCURVE",
"365 183 OFFCURVE",
"359 197 CURVE SMOOTH"
);
}
);
width = 416;
}
);
note = s;
unicode = 0073;
},
{
glyphname = t;
layers = (
{
layerId = "18B4A443-2C69-4DCB-9619-77A7DD6AC8EC";
name = Light;
paths = (
{
closed = 1;
nodes = (
"181 -8 OFFCURVE",
"202 -3 OFFCURVE",
"223 5 CURVE SMOOTH",
"244 13 OFFCURVE",
"261 24 OFFCURVE",
"275 38 CURVE",
"265 60 LINE",
"263 63 OFFCURVE",
"260 64 OFFCURVE",
"257 64 CURVE SMOOTH",
"255 64 OFFCURVE",
"251 63 OFFCURVE",
"247 59 CURVE SMOOTH",
"243 55 OFFCURVE",
"237 52 OFFCURVE",
"230 48 CURVE SMOOTH",
"223 44 OFFCURVE",
"215 40 OFFCURVE",
"206 36 CURVE SMOOTH",
"197 32 OFFCURVE",
"187 31 OFFCURVE",
"175 31 CURVE SMOOTH",
"165 31 OFFCURVE",
"156 33 OFFCURVE",
"148 36 CURVE SMOOTH",
"140 39 OFFCURVE",
"133 44 OFFCURVE",
"128 50 CURVE SMOOTH",
"123 56 OFFCURVE",
"119 64 OFFCURVE",
"117 74 CURVE SMOOTH",
"115 84 OFFCURVE",
"114 95 OFFCURVE",
"116 109 CURVE SMOOTH",
"157 446 LINE",
"314 446 LINE",
"318 482 LINE",
"162 482 LINE",
"185 672 LINE",
"162 672 LINE SMOOTH",
"158 672 OFFCURVE",
"155 670 OFFCURVE",
"153 668 CURVE SMOOTH",
"151 666 OFFCURVE",
"149 663 OFFCURVE",
"148 660 CURVE",
"115 482 LINE",
"29 476 LINE",
"27 458 LINE",
"27 454 OFFCURVE",
"27 452 OFFCURVE",
"29 450 CURVE SMOOTH",
"31 448 OFFCURVE",
"34 446 OFFCURVE",
"38 446 CURVE SMOOTH",
"109 446 LINE",
"67 106 LINE SMOOTH",
"62 67 OFFCURVE",
"68 39 OFFCURVE",
"85 20 CURVE SMOOTH",
"102 1 OFFCURVE",
"126 -8 OFFCURVE",
"160 -8 CURVE SMOOTH"
);
}
);
width = 332;
}
);
note = t;
unicode = 0074;
},
{
glyphname = u;
layers = (
{
layerId = "18B4A443-2C69-4DCB-9619-77A7DD6AC8EC";
name = Light;
paths = (
{
closed = 1;
nodes = (
"489 38 LINE",
"481 38 LINE SMOOTH",
"478 38 OFFCURVE",
"473 39 OFFCURVE",
"466 39 CURVE SMOOTH",
"459 39 OFFCURVE",
"451 40 OFFCURVE",
"442 40 CURVE",
"498 498 LINE",
"450 497 LINE",
"378 497 LINE",
"376 478 LINE SMOOTH",
"375 467 OFFCURVE",
"380 461 OFFCURVE",
"393 460 CURVE",
"399 460 LINE SMOOTH",
"401 460 OFFCURVE",
"403 459 OFFCURVE",
"406 459 CURVE SMOOTH",
"421 459 LINE SMOOTH",
"428 459 OFFCURVE",
"437 458 OFFCURVE",
"446 458 CURVE",
"404 124 LINE",
"378 95 OFFCURVE",
"350 72 OFFCURVE",
"320 55 CURVE SMOOTH",
"290 39 OFFCURVE",
"258 30 OFFCURVE",
"226 30 CURVE SMOOTH",
"182 30 OFFCURVE",
"151 44 OFFCURVE",
"133 70 CURVE SMOOTH",
"115 97 OFFCURVE",
"109 133 OFFCURVE",
"115 180 CURVE SMOOTH",
"154 498 LINE",
"106 497 LINE",
"34 497 LINE",
"32 478 LINE SMOOTH",
"31 467 OFFCURVE",
"36 461 OFFCURVE",
"49 460 CURVE",
"55 460 LINE SMOOTH",
"57 460 OFFCURVE",
"59 459 OFFCURVE",
"62 459 CURVE SMOOTH",
"77 459 LINE SMOOTH",
"84 459 OFFCURVE",
"93 458 OFFCURVE",
"102 458 CURVE",
"67 180 LINE SMOOTH",
"63 151 OFFCURVE",
"64 125 OFFCURVE",
"68 102 CURVE SMOOTH",
"72 79 OFFCURVE",
"80 59 OFFCURVE",
"92 43 CURVE SMOOTH",
"104 27 OFFCURVE",
"119 14 OFFCURVE",
"139 5 CURVE SMOOTH",
"159 -4 OFFCURVE",
"182 -8 OFFCURVE",
"210 -8 CURVE SMOOTH",
"247 -8 OFFCURVE",
"282 1 OFFCURVE",
"314 18 CURVE SMOOTH",
"346 35 OFFCURVE",
"375 58 OFFCURVE",
"402 87 CURVE",
"398 13 LINE",
"397 4 OFFCURVE",
"402 0 OFFCURVE",
"411 0 CURVE SMOOTH",
"437 0 LINE",
"509 0 LINE",
"511 20 LINE SMOOTH",
"512 31 OFFCURVE",
"507 37 OFFCURVE",
"494 38 CURVE"
);
}
);
width = 564;
}
);
note = u;
unicode = 0075;
},
{
glyphname = v;
layers = (
{
layerId = "18B4A443-2C69-4DCB-9619-77A7DD6AC8EC";
name = Light;
paths = (
{
closed = 1;
nodes = (
"528 497 LINE",
"492 497 LINE",
"392 497 LINE",
"390 478 LINE SMOOTH",
"389 467 OFFCURVE",
"394 461 OFFCURVE",
"407 460 CURVE",
"413 460 LINE SMOOTH",
"415 460 OFFCURVE",
"417 459 OFFCURVE",
"420 459 CURVE SMOOTH",
"435 459 LINE SMOOTH",
"442 459 OFFCURVE",
"450 458 OFFCURVE",
"459 458 CURVE",
"261 93 LINE SMOOTH",
"257 86 OFFCURVE",
"254 78 OFFCURVE",
"251 71 CURVE SMOOTH",
"248 64 OFFCURVE",
"245 57 OFFCURVE",
"243 50 CURVE",
"243 52 OFFCURVE",
"243 55 OFFCURVE",
"242 60 CURVE SMOOTH",
"241 65 OFFCURVE",
"240 69 OFFCURVE",
"240 71 CURVE",
"239 78 OFFCURVE",
"238 85 OFFCURVE",
"236 93 CURVE",
"128 458 LINE",
"139 458 OFFCURVE",
"148 459 OFFCURVE",
"157 459 CURVE SMOOTH",
"166 459 OFFCURVE",
"172 460 OFFCURVE",
"174 460 CURVE SMOOTH",
"180 460 LINE",
"193 461 OFFCURVE",
"201 467 OFFCURVE",
"202 478 CURVE SMOOTH",
"204 497 LINE",
"104 497 LINE",
"66 497 LINE",
"30 497 LINE",
"28 478 LINE SMOOTH",
"27 467 OFFCURVE",
"32 461 OFFCURVE",
"45 460 CURVE",
"45 460 OFFCURVE",
"56 460 OFFCURVE",
"78 459 CURVE",
"215 0 LINE",
"257 0 LINE",
"507 459 LINE",
"525 459 LINE SMOOTH",
"531 459 OFFCURVE",
"535 460 OFFCURVE",
"537 460 CURVE SMOOTH",
"542 460 LINE",
"555 461 OFFCURVE",
"563 467 OFFCURVE",
"564 478 CURVE SMOOTH",
"566 497 LINE"
);
}
);
width = 581;
}
);
note = v;
unicode = 0076;
},
{
glyphname = w;
layers = (
{
layerId = "18B4A443-2C69-4DCB-9619-77A7DD6AC8EC";
name = Light;
paths = (
{
closed = 1;
nodes = (
"785 497 LINE",
"750 497 LINE",
"653 497 LINE",
"651 478 LINE SMOOTH",
"650 467 OFFCURVE",
"655 461 OFFCURVE",
"668 460 CURVE",
"673 460 LINE SMOOTH",
"675 460 OFFCURVE",
"678 459 OFFCURVE",
"681 459 CURVE SMOOTH",
"696 459 LINE SMOOTH",
"703 459 OFFCURVE",
"711 458 OFFCURVE",
"720 458 CURVE",
"558 93 LINE",
"554 85 OFFCURVE",
"551 78 OFFCURVE",
"549 71 CURVE SMOOTH",
"547 64 OFFCURVE",
"544 57 OFFCURVE",
"542 50 CURVE",
"541 64 OFFCURVE",
"538 78 OFFCURVE",
"535 93 CURVE SMOOTH",
"452 489 LINE",
"451 496 OFFCURVE",
"446 500 OFFCURVE",
"439 500 CURVE SMOOTH",
"420 500 LINE SMOOTH",
"413 500 OFFCURVE",
"407 496 OFFCURVE",
"404 489 CURVE SMOOTH",
"222 93 LINE SMOOTH",
"218 85 OFFCURVE",
"216 78 OFFCURVE",
"213 71 CURVE SMOOTH",
"204 50 LINE",
"204 52 OFFCURVE",
"204 59 OFFCURVE",
"203 71 CURVE",
"203 78 OFFCURVE",
"201 85 OFFCURVE",
"200 93 CURVE",
"128 458 LINE",
"139 458 OFFCURVE",
"149 459 OFFCURVE",
"158 459 CURVE SMOOTH",
"167 459 OFFCURVE",
"172 460 OFFCURVE",
"174 460 CURVE SMOOTH",
"180 460 LINE",
"193 461 OFFCURVE",
"201 467 OFFCURVE",
"202 478 CURVE",
"205 497 LINE",
"107 498 LINE",
"70 497 LINE",
"31 497 LINE",
"28 478 LINE",
"27 467 OFFCURVE",
"33 461 OFFCURVE",
"46 460 CURVE",
"50 460 LINE",
"55 460 LINE SMOOTH",
"57 460 OFFCURVE",
"61 459 OFFCURVE",
"65 459 CURVE SMOOTH",
"79 459 LINE",
"176 0 LINE",
"209 0 LINE SMOOTH",
"215 0 OFFCURVE",
"220 4 OFFCURVE",
"223 11 CURVE SMOOTH",
"410 415 LINE",
"412 420 OFFCURVE",
"414 424 OFFCURVE",
"416 429 CURVE SMOOTH",
"418 434 OFFCURVE",
"419 439 OFFCURVE",
"421 444 CURVE",
"421 439 OFFCURVE",
"422 434 OFFCURVE",
"423 429 CURVE SMOOTH",
"424 424 OFFCURVE",
"425 420 OFFCURVE",
"426 415 CURVE SMOOTH",
"513 11 LINE",
"514 4 OFFCURVE",
"518 0 OFFCURVE",
"523 0 CURVE SMOOTH",
"558 0 LINE",
"768 459 LINE",
"786 459 LINE SMOOTH",
"792 459 OFFCURVE",
"796 460 OFFCURVE",
"798 460 CURVE SMOOTH",
"803 460 LINE",
"816 461 OFFCURVE",
"824 467 OFFCURVE",
"825 478 CURVE SMOOTH",
"827 497 LINE"
);
}
);
width = 842;
}
);
note = w;
unicode = 0077;
},
{
glyphname = x;
layers = (
{
layerId = "18B4A443-2C69-4DCB-9619-77A7DD6AC8EC";
name = Light;
paths = (
{
closed = 1;
nodes = (
"469 38 OFFCURVE",
"459 38 OFFCURVE",
"442 39 CURVE",
"315 257 LINE",
"486 459 LINE",
"507 460 OFFCURVE",
"517 460 OFFCURVE",
"517 460 CURVE",
"530 461 OFFCURVE",
"538 467 OFFCURVE",
"539 478 CURVE",
"542 497 LINE",
"519 497 LINE",
"475 497 LINE",
"469 497 LINE",
"394 497 LINE",
"391 478 LINE",
"390 467 OFFCURVE",
"396 461 OFFCURVE",
"409 460 CURVE",
"410 460 OFFCURVE",
"419 460 OFFCURVE",
"435 459 CURVE",
"299 294 LINE SMOOTH",
"294 288 OFFCURVE",
"290 282 OFFCURVE",
"288 276 CURVE",
"184 459 LINE",
"199 460 OFFCURVE",
"206 460 OFFCURVE",
"208 460 CURVE",
"221 461 OFFCURVE",
"229 467 OFFCURVE",
"230 478 CURVE",
"233 497 LINE",
"157 497 LINE",
"153 497 LINE",
"153 497 LINE",
"108 497 LINE",
"85 497 LINE",
"82 478 LINE",
"81 467 OFFCURVE",
"87 461 OFFCURVE",
"100 460 CURVE",
"100 460 OFFCURVE",
"110 460 OFFCURVE",
"130 459 CURVE",
"251 255 LINE",
"71 39 LINE",
"53 38 OFFCURVE",
"45 38 OFFCURVE",
"44 38 CURVE",
"31 37 OFFCURVE",
"23 31 OFFCURVE",
"22 20 CURVE SMOOTH",
"20 0 LINE",
"65 0 LINE",
"92 0 LINE",
"167 0 LINE",
"170 20 LINE",
"171 31 OFFCURVE",
"165 37 OFFCURVE",
"152 38 CURVE",
"151 38 OFFCURVE",
"141 38 OFFCURVE",
"122 39 CURVE",
"270 216 LINE SMOOTH",
"274 221 OFFCURVE",
"277 225 OFFCURVE",
"279 232 CURVE",
"389 39 LINE",
"372 38 OFFCURVE",
"362 38 OFFCURVE",
"361 38 CURVE",
"348 37 OFFCURVE",
"340 31 OFFCURVE",
"339 20 CURVE SMOOTH",
"337 0 LINE",
"413 0 LINE",
"439 0 LINE",
"485 0 LINE",
"487 20 LINE SMOOTH",
"488 31 OFFCURVE",
"483 37 OFFCURVE",
"470 38 CURVE"
);
}
);
width = 556;
}
);
note = x;
unicode = 0078;
},
{
glyphname = y;
layers = (
{
layerId = "18B4A443-2C69-4DCB-9619-77A7DD6AC8EC";
name = Light;
paths = (
{
closed = 1;
nodes = (
"527 497 LINE",
"491 497 LINE",
"391 497 LINE",
"388 478 LINE",
"387 467 OFFCURVE",
"393 461 OFFCURVE",
"406 460 CURVE",
"411 460 LINE SMOOTH",
"413 460 OFFCURVE",
"415 459 OFFCURVE",
"418 459 CURVE SMOOTH",
"433 459 LINE SMOOTH",
"440 459 OFFCURVE",
"448 458 OFFCURVE",
"457 458 CURVE",
"259 98 LINE",
"256 93 OFFCURVE",
"254 88 OFFCURVE",
"252 83 CURVE",
"249 78 OFFCURVE",
"247 73 OFFCURVE",
"245 68 CURVE",
"242 83 LINE",
"239 98 LINE",
"127 458 LINE",
"138 458 OFFCURVE",
"149 459 OFFCURVE",
"157 459 CURVE SMOOTH",
"165 459 OFFCURVE",
"171 460 OFFCURVE",
"173 460 CURVE SMOOTH",
"179 460 LINE",
"192 461 OFFCURVE",
"200 467 OFFCURVE",
"201 478 CURVE",
"204 497 LINE",
"103 497 LINE",
"102 497 LINE",
"63 497 LINE",
"30 497 LINE",
"27 478 LINE",
"26 467 OFFCURVE",
"32 461 OFFCURVE",
"45 460 CURVE",
"45 460 OFFCURVE",
"55 460 OFFCURVE",
"75 459 CURVE",
"215 18 LINE",
"103 -176 LINE",
"137 -176 LINE SMOOTH",
"143 -176 OFFCURVE",
"147 -174 OFFCURVE",
"151 -171 CURVE SMOOTH",
"155 -168 OFFCURVE",
"158 -165 OFFCURVE",
"161 -160 CURVE SMOOTH",
"506 459 LINE",
"524 459 LINE SMOOTH",
"530 459 OFFCURVE",
"533 460 OFFCURVE",
"535 460 CURVE SMOOTH",
"540 460 LINE",
"553 461 OFFCURVE",
"561 467 OFFCURVE",
"562 478 CURVE",
"565 497 LINE"
);
}
);
width = 579;
}
);
note = y;
unicode = 0079;
},
{
glyphname = z;
layers = (
{
layerId = "18B4A443-2C69-4DCB-9619-77A7DD6AC8EC";
name = Light;
paths = (
{
closed = 1;
nodes = (
"393 125 LINE SMOOTH",
"379 125 OFFCURVE",
"372 117 OFFCURVE",
"369 101 CURVE",
"369 100 OFFCURVE",
"367 97 OFFCURVE",
"366 91 CURVE SMOOTH",
"365 85 OFFCURVE",
"363 78 OFFCURVE",
"361 68 CURVE SMOOTH",
"359 58 OFFCURVE",
"357 48 OFFCURVE",
"355 37 CURVE",
"83 37 LINE",
"446 458 LINE SMOOTH",
"451 464 OFFCURVE",
"454 470 OFFCURVE",
"455 477 CURVE SMOOTH",
"458 497 LINE",
"98 497 LINE",
"97 493 LINE",
"82 368 LINE",
"106 368 LINE SMOOTH",
"120 368 OFFCURVE",
"128 376 OFFCURVE",
"131 392 CURVE",
"131 393 OFFCURVE",
"132 397 OFFCURVE",
"133 403 CURVE SMOOTH",
"134 409 OFFCURVE",
"137 417 OFFCURVE",
"139 427 CURVE SMOOTH",
"141 437 OFFCURVE",
"143 449 OFFCURVE",
"145 460 CURVE",
"397 460 LINE",
"33 37 LINE SMOOTH",
"27 30 OFFCURVE",
"24 25 OFFCURVE",
"23 19 CURVE SMOOTH",
"20 0 LINE",
"376 0 LINE",
"384 0 LINE",
"402 0 LINE",
"417 125 LINE",
"398 125 LINE"
);
}
);
width = 477;
}
);
note = z;
unicode = 007A;
},
{
color = 4;
glyphname = braceleft;
lastChange = "2015-10-08 21:18:13 +0000";
layers = (
{
layerId = "18B4A443-2C69-4DCB-9619-77A7DD6AC8EC";
name = Light;
paths = (
{
closed = 1;
nodes = (
"111 247 OFFCURVE",
"88 169 CURVE SMOOTH",
"91 178 OFFCURVE",
"60 83 OFFCURVE",
"55 65 CURVE SMOOTH",
"23 -49 OFFCURVE",
"58 -132 OFFCURVE",
"166 -132 CURVE SMOOTH",
"194 -132 LINE",
"196 -111 LINE",
"196 -104 OFFCURVE",
"191 -100 OFFCURVE",
"185 -100 CURVE SMOOTH",
"169 -100 LINE SMOOTH",
"89 -100 OFFCURVE",
"70 -30 OFFCURVE",
"96 63 CURVE SMOOTH",
"106 98 OFFCURVE",
"117 126 OFFCURVE",
"129 169 CURVE SMOOTH",
"148 238 OFFCURVE",
"147 297 OFFCURVE",
"77 313 CURVE",
"137 325 OFFCURVE",
"173 385 OFFCURVE",
"165 457 CURVE SMOOTH",
"161 493 OFFCURVE",
"161 514 OFFCURVE",
"158 563 CURVE SMOOTH",
"152 655 OFFCURVE",
"190 726 OFFCURVE",
"270 726 CURVE SMOOTH",
"287 726 LINE SMOOTH",
"293 726 OFFCURVE",
"299 731 OFFCURVE",
"300 738 CURVE",
"303 758 LINE",
"276 758 LINE SMOOTH",
"171 758 OFFCURVE",
"109 680 OFFCURVE",
"116 562 CURVE SMOOTH",
"118 521 OFFCURVE",
"122 479 OFFCURVE",
"123 457 CURVE SMOOTH",
"128 380 OFFCURVE",
"103 328 OFFCURVE",
"34 328 CURVE",
"30 298 LINE",
"98 298 OFFCURVE"
);
}
);
width = 318;
}
);
note = braceleft;
unicode = 007B;
},
{
color = 4;
glyphname = bar;
lastChange = "2015-10-08 15:03:34 +0000";
layers = (
{
layerId = "18B4A443-2C69-4DCB-9619-77A7DD6AC8EC";
name = Light;
paths = (
{
closed = 1;
nodes = (
"84 758 LINE",
"84 -176 LINE",
"121 -176 LINE",
"121 758 LINE"
);
}
);
width = 205;
}
);
note = bar;
unicode = 007C;
},
{
color = 4;
glyphname = braceright;
lastChange = "2015-10-08 21:18:37 +0000";
layers = (
{
layerId = "18B4A443-2C69-4DCB-9619-77A7DD6AC8EC";
name = Light;
paths = (
{
closed = 1;
nodes = (
"209 379 OFFCURVE",
"232 457 CURVE SMOOTH",
"229 448 OFFCURVE",
"260 543 OFFCURVE",
"265 561 CURVE SMOOTH",
"297 675 OFFCURVE",
"262 758 OFFCURVE",
"154 758 CURVE SMOOTH",
"126 758 LINE",
"124 737 LINE",
"124 730 OFFCURVE",
"129 726 OFFCURVE",
"135 726 CURVE SMOOTH",
"151 726 LINE SMOOTH",
"231 726 OFFCURVE",
"250 656 OFFCURVE",
"224 563 CURVE SMOOTH",
"214 528 OFFCURVE",
"203 500 OFFCURVE",
"191 457 CURVE SMOOTH",
"172 388 OFFCURVE",
"173 329 OFFCURVE",
"243 313 CURVE",
"183 301 OFFCURVE",
"147 241 OFFCURVE",
"155 169 CURVE SMOOTH",
"159 133 OFFCURVE",
"159 112 OFFCURVE",
"162 63 CURVE SMOOTH",
"168 -29 OFFCURVE",
"130 -100 OFFCURVE",
"50 -100 CURVE SMOOTH",
"33 -100 LINE SMOOTH",
"27 -100 OFFCURVE",
"21 -105 OFFCURVE",
"20 -112 CURVE",
"17 -132 LINE",
"44 -132 LINE SMOOTH",
"149 -132 OFFCURVE",
"211 -54 OFFCURVE",
"204 64 CURVE SMOOTH",
"202 105 OFFCURVE",
"198 147 OFFCURVE",
"197 169 CURVE SMOOTH",
"192 246 OFFCURVE",
"217 298 OFFCURVE",
"286 298 CURVE",
"290 328 LINE",
"222 328 OFFCURVE"
);
}
);
width = 326;
}
);
note = braceright;
unicode = 007D;
},
{
color = 4;
glyphname = asciitilde;
lastChange = "2015-10-08 21:19:11 +0000";
layers = (
{
layerId = "18B4A443-2C69-4DCB-9619-77A7DD6AC8EC";
name = Light;
paths = (
{
closed = 1;
nodes = (
"321 284 OFFCURVE",
"264 346 OFFCURVE",
"190 346 CURVE SMOOTH",
"117 346 OFFCURVE",
"64 289 OFFCURVE",
"56 217 CURVE",
"95 217 LINE",
"102 269 OFFCURVE",
"137 307 OFFCURVE",
"188 307 CURVE SMOOTH",
"239 307 OFFCURVE",
"319 244 OFFCURVE",
"382 244 CURVE SMOOTH",
"455 244 OFFCURVE",
"509 303 OFFCURVE",
"516 374 CURVE",
"477 374 LINE",
"470 325 OFFCURVE",
"439 284 OFFCURVE",
"384 284 CURVE SMOOTH"
);
}
);
width = 571;
}
);
note = asciitilde;
unicode = 007E;
},
{
color = 4;
glyphname = exclamdown;
lastChange = "2015-10-08 21:20:29 +0000";
layers = (
{
layerId = "18B4A443-2C69-4DCB-9619-77A7DD6AC8EC";
name = Light;
paths = (
{
closed = 1;
nodes = (
"37 -176 LINE",
"84 -176 LINE",
"117 99 LINE",
"132 277 LINE",
"100 277 LINE",
"71 99 LINE"
);
},
{
closed = 1;
nodes = (
"156 413 OFFCURVE",
"180 435 OFFCURVE",
"182 460 CURVE SMOOTH",
"185 484 OFFCURVE",
"168 506 OFFCURVE",
"142 506 CURVE SMOOTH",
"116 506 OFFCURVE",
"92 484 OFFCURVE",
"90 460 CURVE SMOOTH",
"88 435 OFFCURVE",
"105 413 OFFCURVE",
"131 413 CURVE SMOOTH"
);
}
);
width = 224;
}
);
note = exclamdown;
unicode = 00A1;
},
{
color = 4;
glyphname = cent;
lastChange = "2015-10-08 21:21:34 +0000";
layers = (
{
layerId = "18B4A443-2C69-4DCB-9619-77A7DD6AC8EC";
name = Light;
paths = (
{
closed = 1;
nodes = (
"387 80 LINE SMOOTH",
"382 87 OFFCURVE",
"373 86 OFFCURVE",
"362 77 CURVE SMOOTH",
"317 40 OFFCURVE",
"274 32 OFFCURVE",
"217 32 CURVE",
"236 139 LINE",
"292 467 LINE",
"293 468 LINE",
"317 468 OFFCURVE",
"344 462 OFFCURVE",
"374 451 CURVE",
"371 373 LINE",
"370 357 OFFCURVE",
"376 349 OFFCURVE",
"390 349 CURVE SMOOTH",
"414 349 LINE",
"429 474 LINE",
"389 487 OFFCURVE",
"326 502 OFFCURVE",
"299 505 CURVE",
"320 624 LINE",
"302 624 LINE SMOOTH",
"292 624 OFFCURVE",
"287 618 OFFCURVE",
"285 608 CURVE",
"267 505 LINE",
"267 504 LINE",
"141 495 OFFCURVE",
"56 390 OFFCURVE",
"37 249 CURVE SMOOTH",
"23 131 OFFCURVE",
"62 19 OFFCURVE",
"179 -3 CURVE",
"168 -68 LINE",
"158 -126 LINE",
"176 -126 LINE SMOOTH",
"185 -126 OFFCURVE",
"191 -120 OFFCURVE",
"193 -111 CURVE",
"211 -6 LINE",
"281 -6 OFFCURVE",
"351 11 OFFCURVE",
"398 64 CURVE"
);
},
{
closed = 1;
nodes = (
"75 152 OFFCURVE",
"86 249 CURVE SMOOTH",
"99 360 OFFCURVE",
"159 453 OFFCURVE",
"261 466 CURVE",
"186 37 LINE",
"98 59 OFFCURVE"
);
}
);
width = 458;
}
);
note = cent;
unicode = 00A2;
},
{
color = 4;
glyphname = sterling;
lastChange = "2015-10-08 21:22:40 +0000";
layers = (
{
layerId = "18B4A443-2C69-4DCB-9619-77A7DD6AC8EC";
name = Light;
paths = (
{
closed = 1;
nodes = (
"51 316 LINE",
"151 316 LINE",
"131 153 LINE SMOOTH",
"124 97 OFFCURVE",
"83 49 OFFCURVE",
"28 32 CURVE",
"24 0 LINE",
"509 0 LINE SMOOTH",
"522 0 OFFCURVE",
"531 9 OFFCURVE",
"534 22 CURVE",
"536 42 LINE",
"143 42 LINE SMOOTH",
"124 42 OFFCURVE",
"106 40 OFFCURVE",
"98 38 CURVE",
"145 66 OFFCURVE",
"173 104 OFFCURVE",
"181 164 CURVE SMOOTH",
"200 316 LINE",
"424 316 LINE SMOOTH",
"434 316 OFFCURVE",
"441 322 OFFCURVE",
"441 330 CURVE",
"443 350 LINE",
"204 350 LINE",
"222 496 LINE SMOOTH",
"234 599 OFFCURVE",
"296 674 OFFCURVE",
"401 674 CURVE SMOOTH",
"466 674 OFFCURVE",
"499 651 OFFCURVE",
"528 592 CURVE",
"534 583 OFFCURVE",
"544 582 OFFCURVE",
"553 586 CURVE",
"573 597 LINE",
"548 676 OFFCURVE",
"490 715 OFFCURVE",
"406 715 CURVE SMOOTH",
"276 715 OFFCURVE",
"190 627 OFFCURVE",
"173 496 CURVE SMOOTH",
"155 349 LINE",
"73 349 LINE SMOOTH",
"66 349 OFFCURVE",
"56 346 OFFCURVE",
"53 332 CURVE"
);
}
);
width = 600;
}
);
note = sterling;
unicode = 00A3;
},
{
color = 4;
glyphname = currency;
lastChange = "2015-10-08 21:23:11 +0000";
layers = (
{
layerId = "18B4A443-2C69-4DCB-9619-77A7DD6AC8EC";
name = Light;
paths = (
{
closed = 1;
nodes = (
"91 298 OFFCURVE",
"100 258 OFFCURVE",
"121 226 CURVE",
"35 150 LINE",
"56 125 LINE",
"143 202 LINE",
"172 177 OFFCURVE",
"208 164 OFFCURVE",
"247 164 CURVE SMOOTH",
"286 164 OFFCURVE",
"329 179 OFFCURVE",
"360 202 CURVE",
"427 125 LINE",
"456 150 LINE",
"388 227 LINE",
"412 253 OFFCURVE",
"434 294 OFFCURVE",
"440 335 CURVE SMOOTH",
"446 374 OFFCURVE",
"436 411 OFFCURVE",
"414 444 CURVE",
"500 521 LINE",
"479 546 LINE",
"392 469 LINE",
"362 494 OFFCURVE",
"328 507 OFFCURVE",
"289 507 CURVE SMOOTH",
"248 507 OFFCURVE",
"208 493 OFFCURVE",
"175 468 CURVE",
"108 545 LINE",
"80 520 LINE",
"148 443 LINE",
"118 411 OFFCURVE",
"102 379 OFFCURVE",
"96 336 CURVE SMOOTH"
);
},
{
closed = 1;
nodes = (
"139 402 OFFCURVE",
"208 472 OFFCURVE",
"284 472 CURVE SMOOTH",
"357 472 OFFCURVE",
"412 415 OFFCURVE",
"404 336 CURVE SMOOTH",
"396 263 OFFCURVE",
"324 200 OFFCURVE",
"251 200 CURVE SMOOTH",
"180 200 OFFCURVE",
"123 259 OFFCURVE",
"132 335 CURVE SMOOTH"
);
}
);
width = 538;
}
);
note = currency;
unicode = 00A4;
},
{
color = 4;
glyphname = yen;
lastChange = "2015-10-08 21:24:04 +0000";
layers = (
{
layerId = "18B4A443-2C69-4DCB-9619-77A7DD6AC8EC";
name = Light;
paths = (
{
closed = 1;
nodes = (
"46 308 LINE",
"43 279 LINE",
"226 279 LINE",
"219 220 LINE",
"36 220 LINE",
"32 191 LINE",
"215 191 LINE",
"192 0 LINE",
"239 0 LINE",
"262 191 LINE",
"446 191 LINE",
"449 220 LINE",
"266 220 LINE",
"273 279 LINE",
"456 279 LINE",
"460 308 LINE",
"286 308 LINE",
"547 708 LINE",
"507 708 LINE SMOOTH",
"499 708 OFFCURVE",
"489 701 OFFCURVE",
"486 695 CURVE",
"273 362 LINE",
"266 349 OFFCURVE",
"260 335 OFFCURVE",
"256 326 CURVE",
"255 335 OFFCURVE",
"251 349 OFFCURVE",
"247 362 CURVE",
"115 695 LINE SMOOTH",
"112 703 OFFCURVE",
"106 708 OFFCURVE",
"97 708 CURVE SMOOTH",
"57 708 LINE",
"219 308 LINE"
);
}
);
width = 569;
}
);
note = yen;
unicode = 00A5;
},
{
color = 4;
glyphname = brokenbar;
lastChange = "2015-10-08 21:24:10 +0000";
layers = (
{
layerId = "18B4A443-2C69-4DCB-9619-77A7DD6AC8EC";
name = Light;
paths = (
{
closed = 1;
nodes = (
"140 758 LINE",
"92 370 LINE",
"130 370 LINE",
"178 758 LINE"
);
},
{
closed = 1;
nodes = (
"73 212 LINE",
"26 -176 LINE",
"63 -176 LINE",
"111 212 LINE"
);
}
);
width = 210;
}
);
note = brokenbar;
unicode = 00A6;
},
{
color = 4;
glyphname = section;
lastChange = "2015-10-08 21:26:52 +0000";
layers = (
{
layerId = "18B4A443-2C69-4DCB-9619-77A7DD6AC8EC";
name = Light;
paths = (
{
closed = 1;
nodes = (
"439 662 LINE",
"403 700 OFFCURVE",
"355 716 OFFCURVE",
"300 716 CURVE SMOOTH",
"214 716 OFFCURVE",
"128 662 OFFCURVE",
"119 580 CURVE SMOOTH",
"114 536 OFFCURVE",
"133 500 OFFCURVE",
"168 475 CURVE",
"110 456 OFFCURVE",
"64 418 OFFCURVE",
"57 357 CURVE SMOOTH",
"48 280 OFFCURVE",
"105 247 OFFCURVE",
"191 209 CURVE SMOOTH",
"269 174 OFFCURVE",
"334 149 OFFCURVE",
"326 80 CURVE SMOOTH",
"318 10 OFFCURVE",
"258 -31 OFFCURVE",
"184 -31 CURVE SMOOTH",
"135 -31 OFFCURVE",
"104 -17 OFFCURVE",
"69 12 CURVE SMOOTH",
"60 20 OFFCURVE",
"49 23 OFFCURVE",
"39 12 CURVE",
"25 -5 LINE",
"67 -47 OFFCURVE",
"116 -66 OFFCURVE",
"176 -66 CURVE SMOOTH",
"277 -66 OFFCURVE",
"355 -8 OFFCURVE",
"369 88 CURVE SMOOTH",
"375 132 OFFCURVE",
"358 161 OFFCURVE",
"322 190 CURVE",
"373 211 OFFCURVE",
"413 253 OFFCURVE",
"419 311 CURVE",
"430 387 OFFCURVE",
"369 426 OFFCURVE",
"293 463 CURVE SMOOTH",
"215 500 OFFCURVE",
"155 523 OFFCURVE",
"162 582 CURVE SMOOTH",
"172 644 OFFCURVE",
"233 679 OFFCURVE",
"297 679 CURVE SMOOTH",
"342 679 OFFCURVE",
"354 673 OFFCURVE",
"402 645 CURVE",
"409 639 OFFCURVE",
"418 635 OFFCURVE",
"427 646 CURVE SMOOTH"
);
},
{
closed = 1;
nodes = (
"105 413 OFFCURVE",
"144 438 OFFCURVE",
"194 459 CURVE",
"203 454 OFFCURVE",
"241 436 OFFCURVE",
"279 418 CURVE SMOOTH",
"339 389 OFFCURVE",
"384 363 OFFCURVE",
"376 301 CURVE SMOOTH",
"371 254 OFFCURVE",
"342 225 OFFCURVE",
"298 206 CURVE",
"282 216 OFFCURVE",
"240 236 OFFCURVE",
"207 251 CURVE SMOOTH",
"141 281 OFFCURVE",
"93 311 OFFCURVE",
"100 363 CURVE"
);
}
);
width = 471;
}
);
note = section;
unicode = 00A7;
},
{
color = 4;
glyphname = dieresis;
lastChange = "2015-10-08 21:26:59 +0000";
layers = (
{
anchors = (
{
name = _top;
position = "{194, 498}";
},
{
name = top;
position = "{194, 716}";
}
);
layerId = "18B4A443-2C69-4DCB-9619-77A7DD6AC8EC";
name = Light;
paths = (
{
closed = 1;
nodes = (
"315 635 OFFCURVE",
"336 653 OFFCURVE",
"338 676 CURVE SMOOTH",
"340 698 OFFCURVE",
"325 716 OFFCURVE",
"303 716 CURVE SMOOTH",
"280 716 OFFCURVE",
"259 698 OFFCURVE",
"257 676 CURVE SMOOTH",
"255 653 OFFCURVE",
"270 635 OFFCURVE",
"293 635 CURVE SMOOTH"
);
},
{
closed = 1;
nodes = (
"107 635 OFFCURVE",
"128 653 OFFCURVE",
"130 676 CURVE SMOOTH",
"132 698 OFFCURVE",
"117 716 OFFCURVE",
"95 716 CURVE SMOOTH",
"72 716 OFFCURVE",
"51 698 OFFCURVE",
"49 676 CURVE SMOOTH",
"47 653 OFFCURVE",
"62 635 OFFCURVE",
"85 635 CURVE SMOOTH"
);
}
);
width = 377;
}
);
note = dieresis;
unicode = 00A8;
},
{
color = 4;
glyphname = copyright;
lastChange = "2015-10-08 21:29:08 +0000";
layers = (
{
layerId = "18B4A443-2C69-4DCB-9619-77A7DD6AC8EC";
name = Light;
paths = (
{
closed = 1;
nodes = (
"481 177 OFFCURVE",
"440 166 OFFCURVE",
"387 166 CURVE SMOOTH",
"281 166 OFFCURVE",
"219 240 OFFCURVE",
"234 354 CURVE SMOOTH",
"250 470 OFFCURVE",
"330 544 OFFCURVE",
"442 544 CURVE SMOOTH",
"487 544 OFFCURVE",
"522 534 OFFCURVE",
"554 508 CURVE SMOOTH",
"560 503 OFFCURVE",
"569 499 OFFCURVE",
"577 508 CURVE",
"591 524 LINE",
"554 561 OFFCURVE",
"506 580 OFFCURVE",
"444 580 CURVE SMOOTH",
"314 580 OFFCURVE",
"206 489 OFFCURVE",
"190 354 CURVE SMOOTH",
"174 222 OFFCURVE",
"250 129 OFFCURVE",
"381 129 CURVE SMOOTH",
"448 129 OFFCURVE",
"502 145 OFFCURVE",
"556 194 CURVE",
"542 209 LINE",
"539 212 OFFCURVE",
"533 215 OFFCURVE",
"523 207 CURVE SMOOTH"
);
},
{
closed = 1;
nodes = (
"19 156 OFFCURVE",
"161 -7 OFFCURVE",
"360 -7 CURVE SMOOTH",
"556 -7 OFFCURVE",
"740 151 OFFCURVE",
"765 354 CURVE SMOOTH",
"789 553 OFFCURVE",
"648 715 OFFCURVE",
"449 715 CURVE SMOOTH",
"251 715 OFFCURVE",
"68 552 OFFCURVE",
"44 354 CURVE SMOOTH"
);
},
{
closed = 1;
nodes = (
"97 539 OFFCURVE",
"261 688 OFFCURVE",
"445 688 CURVE SMOOTH",
"630 688 OFFCURVE",
"761 536 OFFCURVE",
"737 354 CURVE SMOOTH",
"713 168 OFFCURVE",
"548 20 OFFCURVE",
"363 20 CURVE SMOOTH",
"178 20 OFFCURVE",
"50 173 OFFCURVE",
"73 354 CURVE SMOOTH"
);
}
);
width = 807;
}
);
note = copyright;
unicode = 00A9;
},
{
color = 4;
glyphname = ordfeminine;
lastChange = "2015-10-08 21:35:33 +0000";
layers = (
{
layerId = "18B4A443-2C69-4DCB-9619-77A7DD6AC8EC";
name = Light;
paths = (
{
closed = 1;
nodes = (
"272 420 LINE",
"295 608 LINE SMOOTH",
"303 670 OFFCURVE",
"275 715 OFFCURVE",
"205 715 CURVE SMOOTH",
"159 715 OFFCURVE",
"125 700 OFFCURVE",
"89 668 CURVE",
"94 657 LINE",
"99 647 OFFCURVE",
"108 649 OFFCURVE",
"117 656 CURVE SMOOTH",
"136 671 OFFCURVE",
"168 685 OFFCURVE",
"198 685 CURVE SMOOTH",
"247 685 OFFCURVE",
"265 657 OFFCURVE",
"259 607 CURVE SMOOTH",
"256 582 LINE",
"179 581 OFFCURVE",
"57 563 OFFCURVE",
"51 490 CURVE",
"44 447 OFFCURVE",
"72 415 OFFCURVE",
"125 415 CURVE SMOOTH",
"170 415 OFFCURVE",
"208 432 OFFCURVE",
"243 463 CURVE",
"244 429 LINE",
"244 423 OFFCURVE",
"246 419 OFFCURVE",
"256 419 CURVE"
);
},
{
closed = 1;
nodes = (
"107 441 OFFCURVE",
"81 457 OFFCURVE",
"85 492 CURVE SMOOTH",
"90 543 OFFCURVE",
"177 554 OFFCURVE",
"253 557 CURVE",
"244 488 LINE",
"216 463 OFFCURVE",
"178 441 OFFCURVE",
"138 441 CURVE SMOOTH"
);
}
);
width = 343;
}
);
note = ordfeminine;
unicode = 00AA;
},
{
color = 4;
glyphname = guillemotleft;
lastChange = "2015-10-08 21:34:07 +0000";
layers = (
{
layerId = "18B4A443-2C69-4DCB-9619-77A7DD6AC8EC";
name = Light;
paths = (
{
closed = 1;
nodes = (
"43 256 LINE",
"140 67 LINE",
"156 74 LINE",
"166 79 OFFCURVE",
"168 89 OFFCURVE",
"164 98 CURVE SMOOTH",
"90 246 LINE",
"87 253 OFFCURVE",
"84 257 OFFCURVE",
"81 260 CURVE",
"84 263 OFFCURVE",
"89 267 OFFCURVE",
"94 274 CURVE SMOOTH",
"203 420 LINE SMOOTH",
"208 426 OFFCURVE",
"212 438 OFFCURVE",
"202 444 CURVE SMOOTH",
"188 452 LINE",
"44 263 LINE"
);
},
{
closed = 1;
nodes = (
"170 256 LINE",
"268 67 LINE",
"284 74 LINE",
"293 79 OFFCURVE",
"295 91 OFFCURVE",
"291 99 CURVE SMOOTH",
"218 246 LINE",
"215 253 OFFCURVE",
"211 257 OFFCURVE",
"208 260 CURVE",
"211 263 OFFCURVE",
"216 267 OFFCURVE",
"221 274 CURVE SMOOTH",
"331 421 LINE SMOOTH",
"338 431 OFFCURVE",
"338 439 OFFCURVE",
"329 445 CURVE",
"315 452 LINE",
"171 263 LINE"
);
}
);
width = 376;
}
);
note = guillemotleft;
unicode = 00AB;
},
{
color = 4;
glyphname = logicalnot;
lastChange = "2015-10-08 21:29:24 +0000";
layers = (
{
layerId = "18B4A443-2C69-4DCB-9619-77A7DD6AC8EC";
name = Light;
paths = (
{
closed = 1;
nodes = (
"62 354 LINE",
"58 317 LINE",
"431 317 LINE",
"413 170 LINE",
"454 170 LINE",
"476 354 LINE"
);
}
);
width = 540;
}
);
note = logicalnot;
unicode = 00AC;
},
{
color = 4;
glyphname = uni00AD;
lastChange = "2015-10-08 21:29:31 +0000";
layers = (
{
layerId = "18B4A443-2C69-4DCB-9619-77A7DD6AC8EC";
name = Light;
paths = (
{
closed = 1;
nodes = (
"69 317 LINE",
"64 276 LINE",
"296 276 LINE",
"301 317 LINE"
);
}
);
width = 363;
}
);
note = uni00AD;
unicode = 00AD;
},
{
color = 4;
glyphname = registered;
lastChange = "2015-10-09 07:38:03 +0000";
layers = (
{
layerId = "18B4A443-2C69-4DCB-9619-77A7DD6AC8EC";
name = Light;
paths = (
{
closed = 1;
nodes = (
"19 156 OFFCURVE",
"161 -7 OFFCURVE",
"360 -7 CURVE SMOOTH",
"555 -7 OFFCURVE",
"740 151 OFFCURVE",
"765 354 CURVE SMOOTH",
"789 553 OFFCURVE",
"648 715 OFFCURVE",
"449 715 CURVE SMOOTH",
"251 715 OFFCURVE",
"67 551 OFFCURVE",
"44 354 CURVE SMOOTH"
);
},
{
closed = 1;
nodes = (
"97 539 OFFCURVE",
"260 688 OFFCURVE",
"445 688 CURVE SMOOTH",
"630 688 OFFCURVE",
"761 536 OFFCURVE",
"737 354 CURVE SMOOTH",
"713 168 OFFCURVE",
"548 20 OFFCURVE",
"363 20 CURVE SMOOTH",
"178 20 OFFCURVE",
"50 173 OFFCURVE",
"73 354 CURVE SMOOTH"
);
},
{
closed = 1;
nodes = (
"310 328 LINE",
"365 328 LINE SMOOTH",
"379 328 OFFCURVE",
"388 326 OFFCURVE",
"394 316 CURVE",
"507 141 LINE SMOOTH",
"510 136 OFFCURVE",
"513 133 OFFCURVE",
"522 133 CURVE SMOOTH",
"562 133 LINE",
"442 317 LINE",
"438 325 OFFCURVE",
"431 334 OFFCURVE",
"424 337 CURVE",
"495 346 OFFCURVE",
"553 386 OFFCURVE",
"562 459 CURVE SMOOTH",
"573 545 OFFCURVE",
"514 576 OFFCURVE",
"421 576 CURVE SMOOTH",
"298 576 LINE",
"244 133 LINE",
"286 133 LINE"
);
},
{
closed = 1;
nodes = (
"314 360 LINE",
"336 542 LINE",
"417 542 LINE SMOOTH",
"486 542 OFFCURVE",
"529 524 OFFCURVE",
"520 454 CURVE SMOOTH",
"511 388 OFFCURVE",
"459 360 OFFCURVE",
"388 360 CURVE SMOOTH"
);
}
);
width = 807;
}
);
note = registered;
unicode = 00AE;
},
{
color = 4;
glyphname = macron;
lastChange = "2015-10-08 21:29:38 +0000";
layers = (
{
layerId = "18B4A443-2C69-4DCB-9619-77A7DD6AC8EC";
name = Light;
paths = (
{
closed = 1;
nodes = (
"71 658 LINE",
"68 626 LINE",
"340 626 LINE",
"344 658 LINE"
);
}
);
width = 398;
}
);
note = macron;
unicode = 00AF;
},
{
color = 4;
glyphname = degree;
lastChange = "2015-10-08 21:30:13 +0000";
layers = (
{
layerId = "18B4A443-2C69-4DCB-9619-77A7DD6AC8EC";
name = Light;
paths = (
{
closed = 1;
nodes = (
"43 490 OFFCURVE",
"101 418 OFFCURVE",
"186 418 CURVE SMOOTH",
"266 418 OFFCURVE",
"343 481 OFFCURVE",
"355 567 CURVE SMOOTH",
"367 649 OFFCURVE",
"306 716 OFFCURVE",
"223 716 CURVE SMOOTH",
"143 716 OFFCURVE",
"66 654 OFFCURVE",
"54 567 CURVE SMOOTH"
);
},
{
closed = 1;
nodes = (
"98 628 OFFCURVE",
"149 682 OFFCURVE",
"219 682 CURVE SMOOTH",
"285 682 OFFCURVE",
"327 632 OFFCURVE",
"319 567 CURVE SMOOTH",
"310 506 OFFCURVE",
"258 452 OFFCURVE",
"191 452 CURVE SMOOTH",
"130 452 OFFCURVE",
"82 500 OFFCURVE",
"90 567 CURVE SMOOTH"
);
}
);
width = 398;
}
);
note = degree;
unicode = 00B0;
},
{
color = 4;
glyphname = plusminus;
lastChange = "2015-10-08 21:29:43 +0000";
layers = (
{
layerId = "18B4A443-2C69-4DCB-9619-77A7DD6AC8EC";
name = Light;
paths = (
{
closed = 1;
nodes = (
"350 576 LINE",
"311 576 LINE",
"286 374 LINE",
"71 374 LINE",
"66 337 LINE",
"281 337 LINE",
"257 136 LINE",
"296 136 LINE",
"320 337 LINE",
"536 337 LINE",
"540 374 LINE",
"325 374 LINE"
);
},
{
closed = 1;
nodes = (
"34 76 LINE",
"30 40 LINE",
"500 40 LINE",
"504 76 LINE"
);
}
);
width = 574;
}
);
note = plusminus;
unicode = 00B1;
},
{
color = 4;
glyphname = twosuperior;
lastChange = "2015-10-08 21:49:46 +0000";
layers = (
{
layerId = "18B4A443-2C69-4DCB-9619-77A7DD6AC8EC";
name = Light;
paths = (
{
closed = 1;
nodes = (
"275 528 LINE SMOOTH",
"263 528 OFFCURVE",
"258 521 OFFCURVE",
"254 507 CURVE",
"248 483 LINE",
"131 483 LINE SMOOTH",
"119 483 OFFCURVE",
"101 481 OFFCURVE",
"91 478 CURVE",
"208 583 LINE",
"272 641 OFFCURVE",
"293 664 OFFCURVE",
"300 714 CURVE SMOOTH",
"308 775 OFFCURVE",
"268 812 OFFCURVE",
"206 812 CURVE SMOOTH",
"147 812 OFFCURVE",
"97 778 OFFCURVE",
"79 713 CURVE",
"98 709 LINE",
"105 709 OFFCURVE",
"111 709 OFFCURVE",
"116 719 CURVE SMOOTH",
"137 760 OFFCURVE",
"162 781 OFFCURVE",
"201 781 CURVE SMOOTH",
"241 781 OFFCURVE",
"268 760 OFFCURVE",
"264 712 CURVE SMOOTH",
"260 672 OFFCURVE",
"226 636 OFFCURVE",
"182 596 CURVE SMOOTH",
"50 477 LINE",
"47 475 OFFCURVE",
"41 469 OFFCURVE",
"41 460 CURVE",
"40 450 LINE",
"276 450 LINE",
"286 528 LINE"
);
}
);
width = 338;
}
);
note = twosuperior;
unicode = 00B2;
},
{
color = 4;
glyphname = threesuperior;
lastChange = "2015-10-08 21:51:02 +0000";
layers = (
{
layerId = "18B4A443-2C69-4DCB-9619-77A7DD6AC8EC";
name = Light;
paths = (
{
closed = 1;
nodes = (
"139 812 OFFCURVE",
"91 778 OFFCURVE",
"72 712 CURVE",
"84 710 LINE SMOOTH",
"97 707 OFFCURVE",
"104 709 OFFCURVE",
"108 719 CURVE SMOOTH",
"123 756 OFFCURVE",
"149 781 OFFCURVE",
"193 781 CURVE SMOOTH",
"237 781 OFFCURVE",
"259 758 OFFCURVE",
"255 714 CURVE",
"248 665 OFFCURVE",
"210 646 OFFCURVE",
"157 644 CURVE",
"154 620 LINE",
"211 620 OFFCURVE",
"247 603 OFFCURVE",
"242 549 CURVE SMOOTH",
"237 510 OFFCURVE",
"197 476 OFFCURVE",
"150 476 CURVE SMOOTH",
"107 476 OFFCURVE",
"85 496 OFFCURVE",
"76 534 CURVE SMOOTH",
"74 542 OFFCURVE",
"67 549 OFFCURVE",
"53 543 CURVE",
"40 538 LINE",
"52 472 OFFCURVE",
"82 446 OFFCURVE",
"148 446 CURVE SMOOTH",
"213 446 OFFCURVE",
"271 489 OFFCURVE",
"279 551 CURVE SMOOTH",
"285 593 OFFCURVE",
"263 622 OFFCURVE",
"214 634 CURVE",
"252 645 OFFCURVE",
"284 673 OFFCURVE",
"290 720 CURVE SMOOTH",
"298 777 OFFCURVE",
"254 812 OFFCURVE",
"198 812 CURVE SMOOTH"
);
}
);
width = 328;
}
);
note = threesuperior;
unicode = 00B3;
},
{
color = 4;
glyphname = acute;
lastChange = "2015-10-08 21:30:27 +0000";
layers = (
{
layerId = "18B4A443-2C69-4DCB-9619-77A7DD6AC8EC";
name = Light;
paths = (
{
closed = 1;
nodes = (
"228 716 LINE",
"181 716 LINE SMOOTH",
"167 716 OFFCURVE",
"156 711 OFFCURVE",
"149 700 CURVE",
"56 580 LINE",
"84 580 LINE SMOOTH",
"93 580 OFFCURVE",
"98 583 OFFCURVE",
"104 589 CURVE SMOOTH"
);
}
);
width = 273;
}
);
note = acute;
unicode = 00B4;
},
{
color = 4;
glyphname = mu;
lastChange = "2015-10-08 21:48:24 +0000";
layers = (
{
layerId = "18B4A443-2C69-4DCB-9619-77A7DD6AC8EC";
name = Light;
paths = (
{
closed = 1;
nodes = (
"165 498 LINE",
"117 498 LINE",
"37 -155 LINE SMOOTH",
"36 -164 OFFCURVE",
"40 -176 OFFCURVE",
"56 -176 CURVE SMOOTH",
"80 -176 LINE",
"100 -12 LINE",
"105 42 OFFCURVE",
"106 40 OFFCURVE",
"106 72 CURVE",
"124 23 OFFCURVE",
"166 -3 OFFCURVE",
"230 -3 CURVE SMOOTH",
"302 -3 OFFCURVE",
"359 30 OFFCURVE",
"412 87 CURVE",
"408 13 LINE",
"407 4 OFFCURVE",
"412 0 OFFCURVE",
"421 0 CURVE SMOOTH",
"447 0 LINE",
"508 498 LINE",
"460 498 LINE",
"414 124 LINE",
"367 71 OFFCURVE",
"307 30 OFFCURVE",
"237 30 CURVE SMOOTH",
"148 30 OFFCURVE",
"114 88 OFFCURVE",
"126 180 CURVE SMOOTH"
);
}
);
width = 557;
}
);
note = mu;
unicode = 00B5;
},
{
color = 4;
glyphname = paragraph;
lastChange = "2015-10-08 21:48:43 +0000";
layers = (
{
layerId = "18B4A443-2C69-4DCB-9619-77A7DD6AC8EC";
name = Light;
paths = (
{
closed = 1;
nodes = (
"646 708 LINE",
"284 708 LINE SMOOTH",
"160 708 OFFCURVE",
"54 645 OFFCURVE",
"41 532 CURVE SMOOTH",
"29 419 OFFCURVE",
"114 350 OFFCURVE",
"240 350 CURVE",
"185 -95 LINE",
"228 -95 LINE",
"322 666 LINE",
"486 666 LINE",
"392 -95 LINE",
"435 -95 LINE",
"528 666 LINE",
"641 666 LINE"
);
}
);
width = 668;
}
);
note = paragraph;
unicode = 00B6;
},
{
color = 4;
glyphname = periodcentered;
lastChange = "2015-10-08 21:32:19 +0000";
layers = (
{
layerId = "18B4A443-2C69-4DCB-9619-77A7DD6AC8EC";
name = Light;
paths = (
{
closed = 1;
nodes = (
"136 245 OFFCURVE",
"163 269 OFFCURVE",
"165 297 CURVE SMOOTH",
"168 324 OFFCURVE",
"149 348 OFFCURVE",
"121 348 CURVE SMOOTH",
"92 348 OFFCURVE",
"65 324 OFFCURVE",
"63 297 CURVE SMOOTH",
"61 269 OFFCURVE",
"80 245 OFFCURVE",
"108 245 CURVE SMOOTH"
);
}
);
width = 226;
}
);
note = periodcentered;
unicode = 00B7;
},
{
color = 4;
glyphname = cedilla;
lastChange = "2015-10-08 22:06:30 +0000";
layers = (
{
layerId = "18B4A443-2C69-4DCB-9619-77A7DD6AC8EC";
name = Light;
paths = (
{
closed = 1;
nodes = (
"100 -64 LINE",
"140 -71 OFFCURVE",
"189 -74 OFFCURVE",
"184 -113 CURVE SMOOTH",
"180 -142 OFFCURVE",
"155 -154 OFFCURVE",
"124 -154 CURVE SMOOTH",
"108 -154 OFFCURVE",
"87 -148 OFFCURVE",
"74 -139 CURVE SMOOTH",
"71 -137 OFFCURVE",
"64 -132 OFFCURVE",
"59 -142 CURVE SMOOTH",
"52 -156 LINE",
"73 -171 OFFCURVE",
"95 -177 OFFCURVE",
"122 -177 CURVE SMOOTH",
"173 -177 OFFCURVE",
"218 -155 OFFCURVE",
"222 -113 CURVE SMOOTH",
"226 -72 OFFCURVE",
"196 -55 OFFCURVE",
"139 -45 CURVE",
"156 -8 LINE",
"167 15 LINE",
"135 15 LINE",
"125 -7 LINE"
);
}
);
width = 285;
}
);
note = cedilla;
unicode = 00B8;
},
{
color = 4;
glyphname = onesuperior;
lastChange = "2015-10-08 21:51:15 +0000";
layers = (
{
layerId = "18B4A443-2C69-4DCB-9619-77A7DD6AC8EC";
name = Light;
paths = (
{
closed = 1;
nodes = (
"48 474 LINE",
"45 450 LINE",
"234 450 LINE",
"237 474 LINE",
"164 474 LINE",
"205 809 LINE",
"176 809 LINE",
"59 717 LINE",
"68 702 LINE",
"73 696 OFFCURVE",
"79 696 OFFCURVE",
"85 700 CURVE",
"164 763 LINE",
"160 744 LINE",
"127 474 LINE"
);
}
);
width = 270;
}
);
note = onesuperior;
unicode = 00B9;
},
{
color = 4;
glyphname = ordmasculine;
lastChange = "2015-10-08 21:51:46 +0000";
layers = (
{
layerId = "18B4A443-2C69-4DCB-9619-77A7DD6AC8EC";
name = Light;
paths = (
{
closed = 1;
nodes = (
"127 714 OFFCURVE",
"70 657 OFFCURVE",
"57 564 CURVE SMOOTH",
"46 476 OFFCURVE",
"88 414 OFFCURVE",
"182 414 CURVE SMOOTH",
"269 414 OFFCURVE",
"331 468 OFFCURVE",
"343 564 CURVE SMOOTH",
"354 651 OFFCURVE",
"312 714 OFFCURVE",
"219 714 CURVE SMOOTH"
);
},
{
closed = 1;
nodes = (
"114 442 OFFCURVE",
"85 489 OFFCURVE",
"95 564 CURVE SMOOTH",
"104 636 OFFCURVE",
"141 686 OFFCURVE",
"216 686 CURVE SMOOTH",
"287 686 OFFCURVE",
"315 637 OFFCURVE",
"305 564 CURVE SMOOTH",
"296 493 OFFCURVE",
"259 442 OFFCURVE",
"186 442 CURVE SMOOTH"
);
}
);
width = 388;
}
);
note = ordmasculine;
unicode = 00BA;
},
{
color = 4;
glyphname = guillemotright;
lastChange = "2015-10-08 21:34:40 +0000";
layers = (
{
layerId = "18B4A443-2C69-4DCB-9619-77A7DD6AC8EC";
name = Light;
paths = (
{
closed = 1;
nodes = (
"333 263 LINE",
"236 452 LINE",
"220 445 LINE",
"210 440 OFFCURVE",
"208 430 OFFCURVE",
"212 421 CURVE SMOOTH",
"286 273 LINE",
"289 266 OFFCURVE",
"292 262 OFFCURVE",
"295 259 CURVE",
"292 256 OFFCURVE",
"287 252 OFFCURVE",
"282 245 CURVE SMOOTH",
"173 99 LINE SMOOTH",
"168 93 OFFCURVE",
"164 81 OFFCURVE",
"174 75 CURVE SMOOTH",
"188 67 LINE",
"332 256 LINE"
);
},
{
closed = 1;
nodes = (
"206 263 LINE",
"108 452 LINE",
"92 445 LINE",
"83 440 OFFCURVE",
"81 428 OFFCURVE",
"85 420 CURVE SMOOTH",
"158 273 LINE",
"161 266 OFFCURVE",
"165 262 OFFCURVE",
"168 259 CURVE",
"165 256 OFFCURVE",
"160 252 OFFCURVE",
"155 245 CURVE SMOOTH",
"45 98 LINE SMOOTH",
"38 88 OFFCURVE",
"38 80 OFFCURVE",
"47 74 CURVE",
"61 67 LINE",
"205 256 LINE"
);
}
);
width = 376;
}
);
note = guillemotright;
unicode = 00BB;
},
{
color = 4;
glyphname = onequarter;
lastChange = "2015-10-08 22:04:29 +0000";
layers = (
{
components = (
{
name = onesuperior;
transform = "{1, 0, 0, 1, -12, -99}";
},
{
name = foursuperior;
}
);
layerId = "18B4A443-2C69-4DCB-9619-77A7DD6AC8EC";
name = Light;
paths = (
{
closed = 1;
nodes = (
"595 708 LINE",
"574 708 LINE SMOOTH",
"562 708 OFFCURVE",
"551 701 OFFCURVE",
"544 690 CURVE SMOOTH",
"59 0 LINE",
"79 0 LINE SMOOTH",
"93 0 OFFCURVE",
"101 5 OFFCURVE",
"109 16 CURVE SMOOTH"
);
}
);
width = 642;
}
);
note = onequarter;
unicode = 00BC;
},
{
color = 4;
glyphname = onehalf;
lastChange = "2015-10-08 22:05:03 +0000";
layers = (
{
components = (
{
name = onesuperior;
transform = "{1, 0, 0, 1, -10, -97}";
},
{
name = twosuperior;
transform = "{1, 0, 0, 1, 307, -449}";
}
);
layerId = "18B4A443-2C69-4DCB-9619-77A7DD6AC8EC";
name = Light;
paths = (
{
closed = 1;
nodes = (
"574 708 LINE",
"553 708 LINE SMOOTH",
"546 708 OFFCURVE",
"542 706 OFFCURVE",
"537 703 CURVE SMOOTH",
"532 700 OFFCURVE",
"528 696 OFFCURVE",
"524 690 CURVE SMOOTH",
"39 0 LINE",
"59 0 LINE SMOOTH",
"65 0 OFFCURVE",
"70 1 OFFCURVE",
"75 3 CURVE SMOOTH",
"80 5 OFFCURVE",
"84 10 OFFCURVE",
"88 16 CURVE SMOOTH"
);
}
);
width = 649;
}
);
note = onehalf;
unicode = 00BD;
},
{
color = 4;
glyphname = threequarters;
lastChange = "2015-10-08 22:05:54 +0000";
layers = (
{
components = (
{
name = threesuperior;
transform = "{1, 0, 0, 1, -8, -99}";
},
{
name = foursuperior;
transform = "{1, 0, 0, 1, 33, 0}";
}
);
layerId = "18B4A443-2C69-4DCB-9619-77A7DD6AC8EC";
name = Light;
paths = (
{
closed = 1;
nodes = (
"632 707 LINE",
"611 707 LINE SMOOTH",
"597 707 OFFCURVE",
"589 701 OFFCURVE",
"581 690 CURVE SMOOTH",
"97 0 LINE",
"117 0 LINE SMOOTH",
"129 0 OFFCURVE",
"139 5 OFFCURVE",
"146 15 CURVE SMOOTH"
);
}
);
width = 676;
}
);
note = threequarters;
unicode = 00BE;
},
{
color = 4;
glyphname = questiondown;
lastChange = "2015-10-08 22:02:24 +0000";
layers = (
{
layerId = "18B4A443-2C69-4DCB-9619-77A7DD6AC8EC";
name = Light;
paths = (
{
closed = 1;
nodes = (
"349 -96 LINE SMOOTH",
"342 -85 OFFCURVE",
"333 -87 OFFCURVE",
"324 -95 CURVE SMOOTH",
"288 -127 OFFCURVE",
"242 -142 OFFCURVE",
"195 -142 CURVE SMOOTH",
"126 -142 OFFCURVE",
"72 -102 OFFCURVE",
"80 -28 CURVE SMOOTH",
"88 32 OFFCURVE",
"123 67 OFFCURVE",
"176 99 CURVE SMOOTH",
"222 127 OFFCURVE",
"261 150 OFFCURVE",
"267 190 CURVE",
"275 277 LINE",
"243 277 LINE",
"227 196 LINE SMOOTH",
"223 170 OFFCURVE",
"203 157 OFFCURVE",
"175 140 CURVE SMOOTH",
"95 91 OFFCURVE",
"43 50 OFFCURVE",
"34 -32 CURVE SMOOTH",
"23 -124 OFFCURVE",
"94 -182 OFFCURVE",
"187 -182 CURVE SMOOTH",
"249 -182 OFFCURVE",
"311 -155 OFFCURVE",
"359 -112 CURVE"
);
},
{
closed = 1;
nodes = (
"302 412 OFFCURVE",
"326 434 OFFCURVE",
"328 459 CURVE SMOOTH",
"331 483 OFFCURVE",
"313 505 OFFCURVE",
"288 505 CURVE SMOOTH",
"262 505 OFFCURVE",
"237 483 OFFCURVE",
"236 459 CURVE SMOOTH",
"234 434 OFFCURVE",
"251 412 OFFCURVE",
"276 412 CURVE SMOOTH"
);
}
);
width = 398;
}
);
note = questiondown;
unicode = 00BF;
},
{
color = 6;
glyphname = AE;
lastChange = "2015-10-08 14:46:28 +0000";
layers = (
{
components = (
{
name = serifBottom;
transform = "{1, 0, 0, 1, -55, 0}";
},
{
name = serifBottom;
transform = "{1, 0, 0, 1, 431, 0}";
}
);
layerId = "18B4A443-2C69-4DCB-9619-77A7DD6AC8EC";
name = Light;
paths = (
{
closed = 1;
nodes = (
"542 257 LINE",
"270 257 LINE",
"515 621 LINE SMOOTH",
"522 632 OFFCURVE",
"536 657 OFFCURVE",
"540 668 CURVE"
);
},
{
closed = 1;
nodes = (
"915 0 LINE",
"933 147 LINE",
"908 147 LINE SMOOTH",
"894 147 OFFCURVE",
"887 138 OFFCURVE",
"884 122 CURVE",
"870 43 LINE",
"591 43 LINE",
"590 338 LINE",
"865 338 LINE",
"870 379 LINE",
"590 379 LINE",
"589 665 LINE",
"947 665 LINE",
"941 585 LINE",
"940 569 OFFCURVE",
"945 561 OFFCURVE",
"959 561 CURVE SMOOTH",
"984 561 LINE",
"1002 707 LINE",
"440 707 LINE",
"437 688 LINE",
"436 677 OFFCURVE",
"442 671 OFFCURVE",
"455 670 CURVE",
"495 669 LINE",
"75 46 LINE",
"42 0 LINE",
"100 0 LINE",
"129 46 LINE",
"245 219 LINE",
"543 219 LINE",
"544 0 LINE"
);
}
);
width = 1012;
}
);
note = AE;
unicode = 00C6;
},
{
glyphname = Egrave;
layers = (
{
layerId = "18B4A443-2C69-4DCB-9619-77A7DD6AC8EC";
name = Light;
paths = (
{
closed = 1;
nodes = (
"188 707 LINE",
"103 707 LINE",
"101 688 LINE SMOOTH",
"100 677 OFFCURVE",
"106 671 OFFCURVE",
"119 670 CURVE",
"128 670 LINE SMOOTH",
"133 670 OFFCURVE",
"140 669 OFFCURVE",
"150 669 CURVE SMOOTH",
"160 669 OFFCURVE",
"171 668 OFFCURVE",
"183 668 CURVE",
"106 40 LINE",
"94 40 OFFCURVE",
"83 39 OFFCURVE",
"73 39 CURVE SMOOTH",
"63 39 OFFCURVE",
"55 38 OFFCURVE",
"50 38 CURVE SMOOTH",
"41 38 LINE",
"28 37 OFFCURVE",
"20 31 OFFCURVE",
"19 20 CURVE",
"16 0 LINE",
"101 0 LINE",
"525 0 LINE",
"530 43 LINE",
"543 147 LINE",
"518 147 LINE SMOOTH",
"504 147 OFFCURVE",
"497 138 OFFCURVE",
"494 122 CURVE",
"494 120 OFFCURVE",
"493 116 OFFCURVE",
"492 109 CURVE SMOOTH",
"491 102 OFFCURVE",
"489 92 OFFCURVE",
"486 77 CURVE SMOOTH",
"483 62 OFFCURVE",
"481 52 OFFCURVE",
"480 43 CURVE",
"157 43 LINE",
"194 338 LINE",
"475 338 LINE",
"480 379 LINE",
"199 379 LINE",
"234 665 LINE",
"557 665 LINE",
"554 621 OFFCURVE",
"552 594 OFFCURVE",
"551 585 CURVE",
"550 569 OFFCURVE",
"555 561 OFFCURVE",
"569 561 CURVE SMOOTH",
"594 561 LINE",
"606 665 LINE",
"612 707 LINE"
);
},
{
closed = 1;
nodes = (
"279 885 LINE",
"412 777 LINE",
"415 774 OFFCURVE",
"418 773 OFFCURVE",
"421 772 CURVE SMOOTH",
"424 771 OFFCURVE",
"426 771 OFFCURVE",
"430 771 CURVE SMOOTH",
"466 771 LINE",
"365 874 LINE SMOOTH",
"361 878 OFFCURVE",
"357 881 OFFCURVE",
"353 883 CURVE SMOOTH",
"349 885 OFFCURVE",
"343 885 OFFCURVE",
"335 885 CURVE SMOOTH"
);
}
);
width = 622;
}
);
note = Egrave;
unicode = 00C8;
},
{
glyphname = Eacute;
layers = (
{
layerId = "18B4A443-2C69-4DCB-9619-77A7DD6AC8EC";
name = Light;
paths = (
{
closed = 1;
nodes = (
"188 707 LINE",
"103 707 LINE",
"101 688 LINE SMOOTH",
"100 677 OFFCURVE",
"106 671 OFFCURVE",
"119 670 CURVE",
"128 670 LINE SMOOTH",
"133 670 OFFCURVE",
"140 669 OFFCURVE",
"150 669 CURVE SMOOTH",
"160 669 OFFCURVE",
"171 668 OFFCURVE",
"183 668 CURVE",
"106 40 LINE",
"94 40 OFFCURVE",
"83 39 OFFCURVE",
"73 39 CURVE SMOOTH",
"63 39 OFFCURVE",
"55 38 OFFCURVE",
"50 38 CURVE SMOOTH",
"41 38 LINE",
"28 37 OFFCURVE",
"20 31 OFFCURVE",
"19 20 CURVE",
"16 0 LINE",
"101 0 LINE",
"525 0 LINE",
"530 43 LINE",
"543 147 LINE",
"518 147 LINE SMOOTH",
"504 147 OFFCURVE",
"497 138 OFFCURVE",
"494 122 CURVE",
"494 120 OFFCURVE",
"493 116 OFFCURVE",
"492 109 CURVE SMOOTH",
"491 102 OFFCURVE",
"489 92 OFFCURVE",
"486 77 CURVE SMOOTH",
"483 62 OFFCURVE",
"481 52 OFFCURVE",
"480 43 CURVE",
"157 43 LINE",
"194 338 LINE",
"475 338 LINE",
"480 379 LINE",
"199 379 LINE",
"234 665 LINE",
"557 665 LINE",
"554 621 OFFCURVE",
"552 594 OFFCURVE",
"551 585 CURVE",
"550 569 OFFCURVE",
"555 561 OFFCURVE",
"569 561 CURVE SMOOTH",
"594 561 LINE",
"606 665 LINE",
"612 707 LINE"
);
},
{
closed = 1;
nodes = (
"570 885 LINE",
"514 885 LINE SMOOTH",
"506 885 OFFCURVE",
"500 885 OFFCURVE",
"496 883 CURVE SMOOTH",
"492 881 OFFCURVE",
"487 878 OFFCURVE",
"482 874 CURVE SMOOTH",
"356 771 LINE",
"391 771 LINE SMOOTH",
"395 771 OFFCURVE",
"398 771 OFFCURVE",
"401 772 CURVE SMOOTH",
"404 773 OFFCURVE",
"407 775 OFFCURVE",
"411 777 CURVE"
);
}
);
width = 622;
}
);
note = Eacute;
unicode = 00C9;
},
{
glyphname = Ecircumflex;
layers = (
{
layerId = "18B4A443-2C69-4DCB-9619-77A7DD6AC8EC";
name = Light;
paths = (
{
closed = 1;
nodes = (
"188 707 LINE",
"103 707 LINE",
"101 688 LINE SMOOTH",
"100 677 OFFCURVE",
"106 671 OFFCURVE",
"119 670 CURVE",
"128 670 LINE SMOOTH",
"133 670 OFFCURVE",
"140 669 OFFCURVE",
"150 669 CURVE SMOOTH",
"160 669 OFFCURVE",
"171 668 OFFCURVE",
"183 668 CURVE",
"106 40 LINE",
"94 40 OFFCURVE",
"83 39 OFFCURVE",
"73 39 CURVE SMOOTH",
"63 39 OFFCURVE",
"55 38 OFFCURVE",
"50 38 CURVE SMOOTH",
"41 38 LINE",
"28 37 OFFCURVE",
"20 31 OFFCURVE",
"19 20 CURVE",
"16 0 LINE",
"101 0 LINE",
"525 0 LINE",
"530 43 LINE",
"543 147 LINE",
"518 147 LINE SMOOTH",
"504 147 OFFCURVE",
"497 138 OFFCURVE",
"494 122 CURVE",
"494 120 OFFCURVE",
"493 116 OFFCURVE",
"492 109 CURVE SMOOTH",
"491 102 OFFCURVE",
"489 92 OFFCURVE",
"486 77 CURVE SMOOTH",
"483 62 OFFCURVE",
"481 52 OFFCURVE",
"480 43 CURVE",
"157 43 LINE",
"194 338 LINE",
"475 338 LINE",
"480 379 LINE",
"199 379 LINE",
"234 665 LINE",
"557 665 LINE",
"554 621 OFFCURVE",
"552 594 OFFCURVE",
"551 585 CURVE",
"550 569 OFFCURVE",
"555 561 OFFCURVE",
"569 561 CURVE SMOOTH",
"594 561 LINE",
"606 665 LINE",
"612 707 LINE"
);
},
{
closed = 1;
nodes = (
"552 771 LINE",
"447 870 LINE",
"402 870 LINE",
"272 771 LINE",
"309 771 LINE SMOOTH",
"312 771 OFFCURVE",
"315 771 OFFCURVE",
"318 772 CURVE SMOOTH",
"321 773 OFFCURVE",
"323 774 OFFCURVE",
"326 776 CURVE SMOOTH",
"412 837 LINE SMOOTH",
"415 839 OFFCURVE",
"417 841 OFFCURVE",
"418 842 CURVE SMOOTH",
"419 843 OFFCURVE",
"420 843 OFFCURVE",
"421 844 CURVE",
"424 842 LINE",
"429 837 LINE",
"499 776 LINE",
"501 774 OFFCURVE",
"504 773 OFFCURVE",
"507 772 CURVE SMOOTH",
"510 771 OFFCURVE",
"512 771 OFFCURVE",
"515 771 CURVE SMOOTH"
);
}
);
width = 622;
}
);
note = Ecircumflex;
unicode = 00CA;
},
{
glyphname = Edieresis;
layers = (
{
layerId = "18B4A443-2C69-4DCB-9619-77A7DD6AC8EC";
name = Light;
paths = (
{
closed = 1;
nodes = (
"188 707 LINE",
"103 707 LINE",
"101 688 LINE SMOOTH",
"100 677 OFFCURVE",
"106 671 OFFCURVE",
"119 670 CURVE",
"128 670 LINE SMOOTH",
"133 670 OFFCURVE",
"140 669 OFFCURVE",
"150 669 CURVE SMOOTH",
"160 669 OFFCURVE",
"171 668 OFFCURVE",
"183 668 CURVE",
"106 40 LINE",
"94 40 OFFCURVE",
"83 39 OFFCURVE",
"73 39 CURVE SMOOTH",
"63 39 OFFCURVE",
"55 38 OFFCURVE",
"50 38 CURVE SMOOTH",
"41 38 LINE",
"28 37 OFFCURVE",
"20 31 OFFCURVE",
"19 20 CURVE",
"16 0 LINE",
"101 0 LINE",
"525 0 LINE",
"530 43 LINE",
"543 147 LINE",
"518 147 LINE SMOOTH",
"504 147 OFFCURVE",
"497 138 OFFCURVE",
"494 122 CURVE",
"494 120 OFFCURVE",
"493 116 OFFCURVE",
"492 109 CURVE SMOOTH",
"491 102 OFFCURVE",
"489 92 OFFCURVE",
"486 77 CURVE SMOOTH",
"483 62 OFFCURVE",
"481 52 OFFCURVE",
"480 43 CURVE",
"157 43 LINE",
"194 338 LINE",
"475 338 LINE",
"480 379 LINE",
"199 379 LINE",
"234 665 LINE",
"557 665 LINE",
"554 621 OFFCURVE",
"552 594 OFFCURVE",
"551 585 CURVE",
"550 569 OFFCURVE",
"555 561 OFFCURVE",
"569 561 CURVE SMOOTH",
"594 561 LINE",
"606 665 LINE",
"612 707 LINE"
);
},
{
closed = 1;
nodes = (
"357 837 OFFCURVE",
"356 843 OFFCURVE",
"354 848 CURVE SMOOTH",
"352 853 OFFCURVE",
"350 857 OFFCURVE",
"347 861 CURVE SMOOTH",
"344 865 OFFCURVE",
"340 868 OFFCURVE",
"335 870 CURVE SMOOTH",
"330 872 OFFCURVE",
"325 873 OFFCURVE",
"320 873 CURVE SMOOTH",
"315 873 OFFCURVE",
"309 872 OFFCURVE",
"304 870 CURVE SMOOTH",
"299 868 OFFCURVE",
"294 865 OFFCURVE",
"290 861 CURVE SMOOTH",
"286 857 OFFCURVE",
"283 853 OFFCURVE",
"280 848 CURVE SMOOTH",
"277 843 OFFCURVE",
"276 837 OFFCURVE",
"275 832 CURVE SMOOTH",
"274 827 OFFCURVE",
"274 822 OFFCURVE",
"276 817 CURVE SMOOTH",
"278 812 OFFCURVE",
"281 809 OFFCURVE",
"284 805 CURVE",
"287 802 OFFCURVE",
"290 798 OFFCURVE",
"295 796 CURVE SMOOTH",
"300 794 OFFCURVE",
"305 793 OFFCURVE",
"310 793 CURVE SMOOTH",
"315 793 OFFCURVE",
"321 794 OFFCURVE",
"326 796 CURVE SMOOTH",
"331 798 OFFCURVE",
"336 801 OFFCURVE",
"340 805 CURVE",
"344 808 OFFCURVE",
"348 812 OFFCURVE",
"351 817 CURVE SMOOTH",
"354 822 OFFCURVE",
"355 827 OFFCURVE",
"356 832 CURVE SMOOTH"
);
},
{
closed = 1;
nodes = (
"565 837 OFFCURVE",
"565 843 OFFCURVE",
"563 848 CURVE SMOOTH",
"561 853 OFFCURVE",
"558 857 OFFCURVE",
"555 861 CURVE SMOOTH",
"552 865 OFFCURVE",
"548 868 OFFCURVE",
"543 870 CURVE SMOOTH",
"538 872 OFFCURVE",
"533 873 OFFCURVE",
"528 873 CURVE SMOOTH",
"517 873 OFFCURVE",
"507 869 OFFCURVE",
"498 861 CURVE SMOOTH",
"489 853 OFFCURVE",
"484 843 OFFCURVE",
"483 832 CURVE",
"482 827 OFFCURVE",
"482 822 OFFCURVE",
"484 817 CURVE SMOOTH",
"486 812 OFFCURVE",
"489 809 OFFCURVE",
"492 805 CURVE",
"495 802 OFFCURVE",
"498 798 OFFCURVE",
"503 796 CURVE SMOOTH",
"508 794 OFFCURVE",
"513 793 OFFCURVE",
"519 793 CURVE SMOOTH",
"524 793 OFFCURVE",
"529 794 OFFCURVE",
"534 796 CURVE SMOOTH",
"539 798 OFFCURVE",
"544 801 OFFCURVE",
"548 805 CURVE",
"552 808 OFFCURVE",
"556 812 OFFCURVE",
"559 817 CURVE SMOOTH",
"562 822 OFFCURVE",
"563 827 OFFCURVE",
"564 832 CURVE SMOOTH"
);
}
);
width = 622;
}
);
note = Edieresis;
unicode = 00CB;
},
{
glyphname = Igrave;
layers = (
{
layerId = "18B4A443-2C69-4DCB-9619-77A7DD6AC8EC";
name = Light;
paths = (
{
closed = 1;
nodes = (
"299 670 LINE",
"312 671 OFFCURVE",
"320 677 OFFCURVE",
"321 688 CURVE SMOOTH",
"323 708 LINE",
"239 708 LINE",
"188 708 LINE",
"103 708 LINE",
"101 688 LINE SMOOTH",
"100 677 OFFCURVE",
"106 671 OFFCURVE",
"119 670 CURVE",
"128 670 LINE SMOOTH",
"133 670 OFFCURVE",
"140 669 OFFCURVE",
"150 669 CURVE SMOOTH",
"160 669 OFFCURVE",
"171 668 OFFCURVE",
"183 668 CURVE",
"106 40 LINE",
"94 40 OFFCURVE",
"83 39 OFFCURVE",
"73 39 CURVE SMOOTH",
"63 39 OFFCURVE",
"55 38 OFFCURVE",
"50 38 CURVE SMOOTH",
"41 38 LINE",
"28 37 OFFCURVE",
"20 31 OFFCURVE",
"19 20 CURVE",
"16 0 LINE",
"101 0 LINE",
"152 0 LINE",
"236 0 LINE",
"239 20 LINE",
"240 31 OFFCURVE",
"234 37 OFFCURVE",
"221 38 CURVE",
"212 38 LINE SMOOTH",
"207 38 OFFCURVE",
"200 39 OFFCURVE",
"190 39 CURVE SMOOTH",
"180 39 OFFCURVE",
"169 40 OFFCURVE",
"157 40 CURVE",
"234 668 LINE",
"246 668 OFFCURVE",
"257 669 OFFCURVE",
"267 669 CURVE SMOOTH",
"277 669 OFFCURVE",
"284 670 OFFCURVE",
"289 670 CURVE SMOOTH"
);
},
{
closed = 1;
nodes = (
"89 885 LINE",
"223 777 LINE",
"226 774 OFFCURVE",
"228 773 OFFCURVE",
"231 772 CURVE SMOOTH",
"234 771 OFFCURVE",
"237 771 OFFCURVE",
"241 771 CURVE SMOOTH",
"276 771 LINE",
"175 874 LINE SMOOTH",
"171 878 OFFCURVE",
"167 881 OFFCURVE",
"163 883 CURVE SMOOTH",
"159 885 OFFCURVE",
"154 885 OFFCURVE",
"146 885 CURVE SMOOTH"
);
}
);
width = 332;
}
);
note = Igrave;
unicode = 00CC;
},
{
glyphname = Iacute;
layers = (
{
layerId = "18B4A443-2C69-4DCB-9619-77A7DD6AC8EC";
name = Light;
paths = (
{
closed = 1;
nodes = (
"299 670 LINE",
"312 671 OFFCURVE",
"320 677 OFFCURVE",
"321 688 CURVE SMOOTH",
"323 708 LINE",
"239 708 LINE",
"188 708 LINE",
"103 708 LINE",
"101 688 LINE SMOOTH",
"100 677 OFFCURVE",
"106 671 OFFCURVE",
"119 670 CURVE",
"128 670 LINE SMOOTH",
"133 670 OFFCURVE",
"140 669 OFFCURVE",
"150 669 CURVE SMOOTH",
"160 669 OFFCURVE",
"171 668 OFFCURVE",
"183 668 CURVE",
"106 40 LINE",
"94 40 OFFCURVE",
"83 39 OFFCURVE",
"73 39 CURVE SMOOTH",
"63 39 OFFCURVE",
"55 38 OFFCURVE",
"50 38 CURVE SMOOTH",
"41 38 LINE",
"28 37 OFFCURVE",
"20 31 OFFCURVE",
"19 20 CURVE",
"16 0 LINE",
"101 0 LINE",
"152 0 LINE",
"236 0 LINE",
"239 20 LINE",
"240 31 OFFCURVE",
"234 37 OFFCURVE",
"221 38 CURVE",
"212 38 LINE SMOOTH",
"207 38 OFFCURVE",
"200 39 OFFCURVE",
"190 39 CURVE SMOOTH",
"180 39 OFFCURVE",
"169 40 OFFCURVE",
"157 40 CURVE",
"234 668 LINE",
"246 668 OFFCURVE",
"257 669 OFFCURVE",
"267 669 CURVE SMOOTH",
"277 669 OFFCURVE",
"284 670 OFFCURVE",
"289 670 CURVE SMOOTH"
);
},
{
closed = 1;
nodes = (
"381 885 LINE",
"325 885 LINE SMOOTH",
"317 885 OFFCURVE",
"311 885 OFFCURVE",
"307 883 CURVE SMOOTH",
"303 881 OFFCURVE",
"298 878 OFFCURVE",
"293 874 CURVE SMOOTH",
"166 771 LINE",
"201 771 LINE SMOOTH",
"205 771 OFFCURVE",
"209 771 OFFCURVE",
"212 772 CURVE SMOOTH",
"215 773 OFFCURVE",
"218 775 OFFCURVE",
"222 777 CURVE"
);
}
);
width = 384;
}
);
note = Iacute;
unicode = 00CD;
},
{
glyphname = Icircumflex;
layers = (
{
layerId = "18B4A443-2C69-4DCB-9619-77A7DD6AC8EC";
name = Light;
paths = (
{
closed = 1;
nodes = (
"299 670 LINE",
"312 671 OFFCURVE",
"320 677 OFFCURVE",
"321 688 CURVE SMOOTH",
"323 708 LINE",
"239 708 LINE",
"188 708 LINE",
"103 708 LINE",
"101 688 LINE SMOOTH",
"100 677 OFFCURVE",
"106 671 OFFCURVE",
"119 670 CURVE",
"128 670 LINE SMOOTH",
"133 670 OFFCURVE",
"140 669 OFFCURVE",
"150 669 CURVE SMOOTH",
"160 669 OFFCURVE",
"171 668 OFFCURVE",
"183 668 CURVE",
"106 40 LINE",
"94 40 OFFCURVE",
"83 39 OFFCURVE",
"73 39 CURVE SMOOTH",
"63 39 OFFCURVE",
"55 38 OFFCURVE",
"50 38 CURVE SMOOTH",
"41 38 LINE",
"28 37 OFFCURVE",
"20 31 OFFCURVE",
"19 20 CURVE",
"16 0 LINE",
"101 0 LINE",
"152 0 LINE",
"236 0 LINE",
"239 20 LINE",
"240 31 OFFCURVE",
"234 37 OFFCURVE",
"221 38 CURVE",
"212 38 LINE SMOOTH",
"207 38 OFFCURVE",
"200 39 OFFCURVE",
"190 39 CURVE SMOOTH",
"180 39 OFFCURVE",
"169 40 OFFCURVE",
"157 40 CURVE",
"234 668 LINE",
"246 668 OFFCURVE",
"257 669 OFFCURVE",
"267 669 CURVE SMOOTH",
"277 669 OFFCURVE",
"284 670 OFFCURVE",
"289 670 CURVE SMOOTH"
);
},
{
closed = 1;
nodes = (
"362 771 LINE",
"257 870 LINE",
"212 870 LINE",
"82 771 LINE",
"119 771 LINE SMOOTH",
"122 771 OFFCURVE",
"125 771 OFFCURVE",
"128 772 CURVE SMOOTH",
"131 773 OFFCURVE",
"134 774 OFFCURVE",
"137 776 CURVE SMOOTH",
"223 837 LINE SMOOTH",
"226 839 OFFCURVE",
"228 841 OFFCURVE",
"229 842 CURVE SMOOTH",
"230 843 OFFCURVE",
"231 843 OFFCURVE",
"232 844 CURVE",
"234 842 LINE",
"239 837 LINE",
"310 776 LINE",
"312 774 OFFCURVE",
"314 773 OFFCURVE",
"317 772 CURVE SMOOTH",
"320 771 OFFCURVE",
"323 771 OFFCURVE",
"326 771 CURVE SMOOTH"
);
}
);
width = 365;
}
);
note = Icircumflex;
unicode = 00CE;
},
{
glyphname = Idieresis;
layers = (
{
layerId = "18B4A443-2C69-4DCB-9619-77A7DD6AC8EC";
name = Light;
paths = (
{
closed = 1;
nodes = (
"299 670 LINE",
"312 671 OFFCURVE",
"320 677 OFFCURVE",
"321 688 CURVE SMOOTH",
"323 708 LINE",
"239 708 LINE",
"188 708 LINE",
"103 708 LINE",
"101 688 LINE SMOOTH",
"100 677 OFFCURVE",
"106 671 OFFCURVE",
"119 670 CURVE",
"128 670 LINE SMOOTH",
"133 670 OFFCURVE",
"140 669 OFFCURVE",
"150 669 CURVE SMOOTH",
"160 669 OFFCURVE",
"171 668 OFFCURVE",
"183 668 CURVE",
"106 40 LINE",
"94 40 OFFCURVE",
"83 39 OFFCURVE",
"73 39 CURVE SMOOTH",
"63 39 OFFCURVE",
"55 38 OFFCURVE",
"50 38 CURVE SMOOTH",
"41 38 LINE",
"28 37 OFFCURVE",
"20 31 OFFCURVE",
"19 20 CURVE",
"16 0 LINE",
"101 0 LINE",
"152 0 LINE",
"236 0 LINE",
"239 20 LINE",
"240 31 OFFCURVE",
"234 37 OFFCURVE",
"221 38 CURVE",
"212 38 LINE SMOOTH",
"207 38 OFFCURVE",
"200 39 OFFCURVE",
"190 39 CURVE SMOOTH",
"180 39 OFFCURVE",
"169 40 OFFCURVE",
"157 40 CURVE",
"234 668 LINE",
"246 668 OFFCURVE",
"257 669 OFFCURVE",
"267 669 CURVE SMOOTH",
"277 669 OFFCURVE",
"284 670 OFFCURVE",
"289 670 CURVE SMOOTH"
);
},
{
closed = 1;
nodes = (
"167 837 OFFCURVE",
"167 843 OFFCURVE",
"165 848 CURVE SMOOTH",
"163 853 OFFCURVE",
"160 857 OFFCURVE",
"157 861 CURVE SMOOTH",
"154 865 OFFCURVE",
"151 868 OFFCURVE",
"146 870 CURVE SMOOTH",
"141 872 OFFCURVE",
"135 873 OFFCURVE",
"130 873 CURVE SMOOTH",
"125 873 OFFCURVE",
"120 872 OFFCURVE",
"115 870 CURVE SMOOTH",
"110 868 OFFCURVE",
"105 865 OFFCURVE",
"101 861 CURVE SMOOTH",
"97 857 OFFCURVE",
"94 853 OFFCURVE",
"91 848 CURVE SMOOTH",
"88 843 OFFCURVE",
"86 837 OFFCURVE",
"85 832 CURVE SMOOTH",
"84 827 OFFCURVE",
"85 822 OFFCURVE",
"87 817 CURVE SMOOTH",
"89 812 OFFCURVE",
"91 809 OFFCURVE",
"94 805 CURVE",
"97 802 OFFCURVE",
"101 798 OFFCURVE",
"106 796 CURVE SMOOTH",
"111 794 OFFCURVE",
"116 793 OFFCURVE",
"121 793 CURVE SMOOTH",
"126 793 OFFCURVE",
"132 794 OFFCURVE",
"137 796 CURVE SMOOTH",
"142 798 OFFCURVE",
"147 801 OFFCURVE",
"151 805 CURVE",
"155 808 OFFCURVE",
"158 812 OFFCURVE",
"161 817 CURVE SMOOTH",
"164 822 OFFCURVE",
"165 827 OFFCURVE",
"166 832 CURVE SMOOTH"
);
},
{
closed = 1;
nodes = (
"375 837 OFFCURVE",
"375 843 OFFCURVE",
"373 848 CURVE SMOOTH",
"371 853 OFFCURVE",
"369 857 OFFCURVE",
"366 861 CURVE SMOOTH",
"363 865 OFFCURVE",
"359 868 OFFCURVE",
"354 870 CURVE SMOOTH",
"349 872 OFFCURVE",
"344 873 OFFCURVE",
"339 873 CURVE SMOOTH",
"328 873 OFFCURVE",
"318 869 OFFCURVE",
"309 861 CURVE SMOOTH",
"300 853 OFFCURVE",
"294 843 OFFCURVE",
"293 832 CURVE",
"292 827 OFFCURVE",
"293 822 OFFCURVE",
"295 817 CURVE SMOOTH",
"297 812 OFFCURVE",
"299 809 OFFCURVE",
"302 805 CURVE",
"305 802 OFFCURVE",
"309 798 OFFCURVE",
"314 796 CURVE SMOOTH",
"319 794 OFFCURVE",
"323 793 OFFCURVE",
"329 793 CURVE SMOOTH",
"334 793 OFFCURVE",
"340 794 OFFCURVE",
"345 796 CURVE SMOOTH",
"350 798 OFFCURVE",
"355 801 OFFCURVE",
"359 805 CURVE",
"363 808 OFFCURVE",
"366 812 OFFCURVE",
"369 817 CURVE SMOOTH",
"372 822 OFFCURVE",
"373 827 OFFCURVE",
"374 832 CURVE SMOOTH"
);
}
);
width = 377;
}
);
note = Idieresis;
unicode = 00CF;
},
{
glyphname = Eth;
layers = (
{
layerId = "18B4A443-2C69-4DCB-9619-77A7DD6AC8EC";
name = Light;
paths = (
{
closed = 1;
nodes = (
"710 545 OFFCURVE",
"692 581 OFFCURVE",
"666 612 CURVE SMOOTH",
"640 643 OFFCURVE",
"607 667 OFFCURVE",
"568 683 CURVE SMOOTH",
"529 699 OFFCURVE",
"483 707 OFFCURVE",
"433 707 CURVE SMOOTH",
"188 707 LINE",
"103 707 LINE SMOOTH",
"103 707 OFFCURVE",
"103 701 OFFCURVE",
"101 688 CURVE SMOOTH",
"99 675 OFFCURVE",
"107 671 OFFCURVE",
"119 670 CURVE",
"125 670 OFFCURVE",
"142 670 OFFCURVE",
"183 668 CURVE",
"147 374 LINE",
"39 374 LINE",
"35 342 LINE",
"143 342 LINE",
"106 40 LINE",
"65 38 OFFCURVE",
"47 38 OFFCURVE",
"41 38 CURVE",
"29 37 OFFCURVE",
"21 33 OFFCURVE",
"19 20 CURVE SMOOTH",
"17 7 OFFCURVE",
"16 0 OFFCURVE",
"16 0 CURVE",
"101 0 LINE",
"346 0 LINE SMOOTH",
"396 0 OFFCURVE",
"444 8 OFFCURVE",
"487 24 CURVE SMOOTH",
"530 40 OFFCURVE",
"569 64 OFFCURVE",
"602 95 CURVE SMOOTH",
"635 126 OFFCURVE",
"663 163 OFFCURVE",
"685 207 CURVE SMOOTH",
"707 251 OFFCURVE",
"720 299 OFFCURVE",
"727 354 CURVE SMOOTH",
"734 408 OFFCURVE",
"732 457 OFFCURVE",
"721 501 CURVE SMOOTH"
);
},
{
closed = 1;
nodes = (
"620 182 OFFCURVE",
"596 150 OFFCURVE",
"568 123 CURVE SMOOTH",
"540 96 OFFCURVE",
"507 76 OFFCURVE",
"470 62 CURVE SMOOTH",
"433 48 OFFCURVE",
"394 41 OFFCURVE",
"351 41 CURVE SMOOTH",
"157 41 LINE",
"194 342 LINE",
"396 342 LINE",
"400 374 LINE",
"198 374 LINE",
"234 666 LINE",
"428 666 LINE SMOOTH",
"471 666 OFFCURVE",
"509 659 OFFCURVE",
"542 645 CURVE SMOOTH",
"575 631 OFFCURVE",
"602 611 OFFCURVE",
"624 584 CURVE SMOOTH",
"646 557 OFFCURVE",
"661 525 OFFCURVE",
"670 486 CURVE SMOOTH",
"679 447 OFFCURVE",
"680 403 OFFCURVE",
"674 354 CURVE SMOOTH",
"668 304 OFFCURVE",
"656 260 OFFCURVE",
"638 221 CURVE SMOOTH"
);
}
);
width = 763;
}
);
note = Eth;
unicode = 00D0;
},
{
glyphname = Ntilde;
layers = (
{
layerId = "18B4A443-2C69-4DCB-9619-77A7DD6AC8EC";
name = Light;
paths = (
{
closed = 1;
nodes = (
"734 707 LINE",
"689 707 LINE",
"602 707 LINE",
"600 688 LINE SMOOTH",
"599 677 OFFCURVE",
"604 671 OFFCURVE",
"617 670 CURVE",
"627 670 LINE SMOOTH",
"632 670 OFFCURVE",
"641 669 OFFCURVE",
"651 669 CURVE SMOOTH",
"661 669 OFFCURVE",
"672 668 OFFCURVE",
"684 668 CURVE",
"616 114 LINE SMOOTH",
"615 105 OFFCURVE",
"614 95 OFFCURVE",
"614 85 CURVE",
"231 698 LINE",
"229 702 OFFCURVE",
"226 705 OFFCURVE",
"223 706 CURVE SMOOTH",
"220 707 OFFCURVE",
"218 708 OFFCURVE",
"213 708 CURVE SMOOTH",
"188 708 LINE",
"103 708 LINE",
"101 688 LINE SMOOTH",
"100 677 OFFCURVE",
"106 671 OFFCURVE",
"119 670 CURVE",
"128 670 LINE SMOOTH",
"133 670 OFFCURVE",
"140 669 OFFCURVE",
"150 669 CURVE SMOOTH",
"160 669 OFFCURVE",
"171 668 OFFCURVE",
"183 668 CURVE",
"106 40 LINE",
"94 40 OFFCURVE",
"83 39 OFFCURVE",
"73 39 CURVE SMOOTH",
"63 39 OFFCURVE",
"55 38 OFFCURVE",
"50 38 CURVE SMOOTH",
"41 38 LINE",
"28 37 OFFCURVE",
"20 31 OFFCURVE",
"19 20 CURVE",
"16 0 LINE",
"101 0 LINE",
"145 0 LINE",
"232 0 LINE",
"234 20 LINE SMOOTH",
"235 31 OFFCURVE",
"229 37 OFFCURVE",
"216 38 CURVE",
"206 38 LINE SMOOTH",
"201 38 OFFCURVE",
"193 39 OFFCURVE",
"183 39 CURVE SMOOTH",
"173 39 OFFCURVE",
"162 40 OFFCURVE",
"150 40 CURVE",
"218 595 LINE SMOOTH",
"219 604 OFFCURVE",
"220 614 OFFCURVE",
"220 624 CURVE",
"605 10 LINE",
"609 3 OFFCURVE",
"614 0 OFFCURVE",
"622 0 CURVE SMOOTH",
"647 0 LINE",
"729 668 LINE",
"741 668 OFFCURVE",
"752 669 OFFCURVE",
"762 669 CURVE SMOOTH",
"772 669 OFFCURVE",
"779 670 OFFCURVE",
"784 670 CURVE SMOOTH",
"793 670 LINE",
"806 671 OFFCURVE",
"814 677 OFFCURVE",
"815 688 CURVE",
"818 707 LINE"
);
},
{
closed = 1;
nodes = (
"542 808 OFFCURVE",
"533 811 OFFCURVE",
"525 816 CURVE SMOOTH",
"517 821 OFFCURVE",
"510 827 OFFCURVE",
"501 833 CURVE SMOOTH",
"492 839 OFFCURVE",
"483 845 OFFCURVE",
"474 850 CURVE SMOOTH",
"465 855 OFFCURVE",
"454 858 OFFCURVE",
"443 858 CURVE SMOOTH",
"432 858 OFFCURVE",
"421 856 OFFCURVE",
"412 852 CURVE SMOOTH",
"403 848 OFFCURVE",
"395 843 OFFCURVE",
"388 835 CURVE SMOOTH",
"381 827 OFFCURVE",
"375 818 OFFCURVE",
"371 808 CURVE SMOOTH",
"367 798 OFFCURVE",
"363 787 OFFCURVE",
"362 776 CURVE",
"390 776 LINE",
"392 790 OFFCURVE",
"398 802 OFFCURVE",
"406 811 CURVE SMOOTH",
"414 820 OFFCURVE",
"426 825 OFFCURVE",
"440 825 CURVE SMOOTH",
"449 825 OFFCURVE",
"457 822 OFFCURVE",
"465 817 CURVE SMOOTH",
"473 812 OFFCURVE",
"481 806 OFFCURVE",
"490 800 CURVE SMOOTH",
"499 794 OFFCURVE",
"508 788 OFFCURVE",
"517 783 CURVE SMOOTH",
"526 778 OFFCURVE",
"537 775 OFFCURVE",
"548 775 CURVE SMOOTH",
"559 775 OFFCURVE",
"570 777 OFFCURVE",
"579 781 CURVE SMOOTH",
"588 785 OFFCURVE",
"596 791 OFFCURVE",
"603 799 CURVE",
"610 806 OFFCURVE",
"615 815 OFFCURVE",
"619 825 CURVE SMOOTH",
"623 835 OFFCURVE",
"626 845 OFFCURVE",
"627 857 CURVE",
"600 857 LINE",
"598 843 OFFCURVE",
"593 831 OFFCURVE",
"585 822 CURVE SMOOTH",
"577 813 OFFCURVE",
"565 808 OFFCURVE",
"551 808 CURVE SMOOTH"
);
}
);
width = 826;
}
);
note = Ntilde;
unicode = 00D1;
},
{
glyphname = Ograve;
layers = (
{
layerId = "18B4A443-2C69-4DCB-9619-77A7DD6AC8EC";
name = Light;
paths = (
{
closed = 1;
nodes = (
"719 408 OFFCURVE",
"717 458 OFFCURVE",
"706 502 CURVE SMOOTH",
"695 546 OFFCURVE",
"677 584 OFFCURVE",
"651 616 CURVE SMOOTH",
"625 648 OFFCURVE",
"592 673 OFFCURVE",
"553 690 CURVE SMOOTH",
"514 707 OFFCURVE",
"469 716 OFFCURVE",
"419 716 CURVE SMOOTH",
"369 716 OFFCURVE",
"322 707 OFFCURVE",
"279 690 CURVE SMOOTH",
"236 673 OFFCURVE",
"198 648 OFFCURVE",
"164 616 CURVE SMOOTH",
"130 584 OFFCURVE",
"102 546 OFFCURVE",
"80 502 CURVE SMOOTH",
"58 458 OFFCURVE",
"44 408 OFFCURVE",
"37 354 CURVE SMOOTH",
"30 299 OFFCURVE",
"33 249 OFFCURVE",
"44 205 CURVE SMOOTH",
"55 161 OFFCURVE",
"73 123 OFFCURVE",
"99 91 CURVE SMOOTH",
"125 59 OFFCURVE",
"158 35 OFFCURVE",
"197 18 CURVE SMOOTH",
"236 1 OFFCURVE",
"280 -8 OFFCURVE",
"330 -8 CURVE SMOOTH",
"380 -8 OFFCURVE",
"428 1 OFFCURVE",
"471 18 CURVE SMOOTH",
"514 35 OFFCURVE",
"552 59 OFFCURVE",
"586 91 CURVE SMOOTH",
"620 123 OFFCURVE",
"647 161 OFFCURVE",
"669 205 CURVE SMOOTH",
"691 249 OFFCURVE",
"705 299 OFFCURVE",
"712 354 CURVE SMOOTH"
);
},
{
closed = 1;
nodes = (
"653 304 OFFCURVE",
"640 260 OFFCURVE",
"622 221 CURVE SMOOTH",
"604 182 OFFCURVE",
"580 148 OFFCURVE",
"552 121 CURVE SMOOTH",
"524 94 OFFCURVE",
"492 72 OFFCURVE",
"455 58 CURVE SMOOTH",
"418 44 OFFCURVE",
"378 37 OFFCURVE",
"335 37 CURVE SMOOTH",
"293 37 OFFCURVE",
"256 44 OFFCURVE",
"223 58 CURVE SMOOTH",
"190 72 OFFCURVE",
"162 94 OFFCURVE",
"140 121 CURVE SMOOTH",
"118 148 OFFCURVE",
"103 182 OFFCURVE",
"94 221 CURVE SMOOTH",
"85 260 OFFCURVE",
"84 304 OFFCURVE",
"90 354 CURVE SMOOTH",
"96 403 OFFCURVE",
"108 448 OFFCURVE",
"127 487 CURVE SMOOTH",
"146 526 OFFCURVE",
"169 560 OFFCURVE",
"198 587 CURVE SMOOTH",
"227 614 OFFCURVE",
"258 636 OFFCURVE",
"295 650 CURVE SMOOTH",
"332 664 OFFCURVE",
"371 672 OFFCURVE",
"413 672 CURVE SMOOTH",
"456 672 OFFCURVE",
"494 664 OFFCURVE",
"527 650 CURVE SMOOTH",
"560 636 OFFCURVE",
"588 614 OFFCURVE",
"609 587 CURVE SMOOTH",
"630 560 OFFCURVE",
"646 526 OFFCURVE",
"655 487 CURVE SMOOTH",
"664 448 OFFCURVE",
"665 403 OFFCURVE",
"659 354 CURVE SMOOTH"
);
},
{
closed = 1;
nodes = (
"294 885 LINE",
"427 777 LINE",
"430 774 OFFCURVE",
"432 773 OFFCURVE",
"435 772 CURVE SMOOTH",
"438 771 OFFCURVE",
"441 771 OFFCURVE",
"445 771 CURVE SMOOTH",
"481 771 LINE",
"379 874 LINE SMOOTH",
"375 878 OFFCURVE",
"371 881 OFFCURVE",
"367 883 CURVE SMOOTH",
"363 885 OFFCURVE",
"358 885 OFFCURVE",
"350 885 CURVE SMOOTH"
);
}
);
width = 747;
}
);
note = Ograve;
unicode = 00D2;
},
{
glyphname = Oacute;
layers = (
{
layerId = "18B4A443-2C69-4DCB-9619-77A7DD6AC8EC";
name = Light;
paths = (
{
closed = 1;
nodes = (
"719 408 OFFCURVE",
"717 458 OFFCURVE",
"706 502 CURVE SMOOTH",
"695 546 OFFCURVE",
"677 584 OFFCURVE",
"651 616 CURVE SMOOTH",
"625 648 OFFCURVE",
"592 673 OFFCURVE",
"553 690 CURVE SMOOTH",
"514 707 OFFCURVE",
"469 716 OFFCURVE",
"419 716 CURVE SMOOTH",
"369 716 OFFCURVE",
"322 707 OFFCURVE",
"279 690 CURVE SMOOTH",
"236 673 OFFCURVE",
"198 648 OFFCURVE",
"164 616 CURVE SMOOTH",
"130 584 OFFCURVE",
"102 546 OFFCURVE",
"80 502 CURVE SMOOTH",
"58 458 OFFCURVE",
"44 408 OFFCURVE",
"37 354 CURVE SMOOTH",
"30 299 OFFCURVE",
"33 249 OFFCURVE",
"44 205 CURVE SMOOTH",
"55 161 OFFCURVE",
"73 123 OFFCURVE",
"99 91 CURVE SMOOTH",
"125 59 OFFCURVE",
"158 35 OFFCURVE",
"197 18 CURVE SMOOTH",
"236 1 OFFCURVE",
"280 -8 OFFCURVE",
"330 -8 CURVE SMOOTH",
"380 -8 OFFCURVE",
"428 1 OFFCURVE",
"471 18 CURVE SMOOTH",
"514 35 OFFCURVE",
"552 59 OFFCURVE",
"586 91 CURVE SMOOTH",
"620 123 OFFCURVE",
"647 161 OFFCURVE",
"669 205 CURVE SMOOTH",
"691 249 OFFCURVE",
"705 299 OFFCURVE",
"712 354 CURVE SMOOTH"
);
},
{
closed = 1;
nodes = (
"653 304 OFFCURVE",
"640 260 OFFCURVE",
"622 221 CURVE SMOOTH",
"604 182 OFFCURVE",
"580 148 OFFCURVE",
"552 121 CURVE SMOOTH",
"524 94 OFFCURVE",
"492 72 OFFCURVE",
"455 58 CURVE SMOOTH",
"418 44 OFFCURVE",
"378 37 OFFCURVE",
"335 37 CURVE SMOOTH",
"293 37 OFFCURVE",
"256 44 OFFCURVE",
"223 58 CURVE SMOOTH",
"190 72 OFFCURVE",
"162 94 OFFCURVE",
"140 121 CURVE SMOOTH",
"118 148 OFFCURVE",
"103 182 OFFCURVE",
"94 221 CURVE SMOOTH",
"85 260 OFFCURVE",
"84 304 OFFCURVE",
"90 354 CURVE SMOOTH",
"96 403 OFFCURVE",
"108 448 OFFCURVE",
"127 487 CURVE SMOOTH",
"146 526 OFFCURVE",
"169 560 OFFCURVE",
"198 587 CURVE SMOOTH",
"227 614 OFFCURVE",
"258 636 OFFCURVE",
"295 650 CURVE SMOOTH",
"332 664 OFFCURVE",
"371 672 OFFCURVE",
"413 672 CURVE SMOOTH",
"456 672 OFFCURVE",
"494 664 OFFCURVE",
"527 650 CURVE SMOOTH",
"560 636 OFFCURVE",
"588 614 OFFCURVE",
"609 587 CURVE SMOOTH",
"630 560 OFFCURVE",
"646 526 OFFCURVE",
"655 487 CURVE SMOOTH",
"664 448 OFFCURVE",
"665 403 OFFCURVE",
"659 354 CURVE SMOOTH"
);
},
{
closed = 1;
nodes = (
"585 885 LINE",
"529 885 LINE SMOOTH",
"521 885 OFFCURVE",
"515 885 OFFCURVE",
"511 883 CURVE SMOOTH",
"507 881 OFFCURVE",
"502 878 OFFCURVE",
"497 874 CURVE SMOOTH",
"371 771 LINE",
"406 771 LINE SMOOTH",
"410 771 OFFCURVE",
"413 771 OFFCURVE",
"416 772 CURVE SMOOTH",
"419 773 OFFCURVE",
"422 775 OFFCURVE",
"426 777 CURVE"
);
}
);
width = 747;
}
);
note = Oacute;
unicode = 00D3;
},
{
glyphname = Ocircumflex;
layers = (
{
layerId = "18B4A443-2C69-4DCB-9619-77A7DD6AC8EC";
name = Light;
paths = (
{
closed = 1;
nodes = (
"719 408 OFFCURVE",
"717 458 OFFCURVE",
"706 502 CURVE SMOOTH",
"695 546 OFFCURVE",
"677 584 OFFCURVE",
"651 616 CURVE SMOOTH",
"625 648 OFFCURVE",
"592 673 OFFCURVE",
"553 690 CURVE SMOOTH",
"514 707 OFFCURVE",
"469 716 OFFCURVE",
"419 716 CURVE SMOOTH",
"369 716 OFFCURVE",
"322 707 OFFCURVE",
"279 690 CURVE SMOOTH",
"236 673 OFFCURVE",
"198 648 OFFCURVE",
"164 616 CURVE SMOOTH",
"130 584 OFFCURVE",
"102 546 OFFCURVE",
"80 502 CURVE SMOOTH",
"58 458 OFFCURVE",
"44 408 OFFCURVE",
"37 354 CURVE SMOOTH",
"30 299 OFFCURVE",
"33 249 OFFCURVE",
"44 205 CURVE SMOOTH",
"55 161 OFFCURVE",
"73 123 OFFCURVE",
"99 91 CURVE SMOOTH",
"125 59 OFFCURVE",
"158 35 OFFCURVE",
"197 18 CURVE SMOOTH",
"236 1 OFFCURVE",
"280 -8 OFFCURVE",
"330 -8 CURVE SMOOTH",
"380 -8 OFFCURVE",
"428 1 OFFCURVE",
"471 18 CURVE SMOOTH",
"514 35 OFFCURVE",
"552 59 OFFCURVE",
"586 91 CURVE SMOOTH",
"620 123 OFFCURVE",
"647 161 OFFCURVE",
"669 205 CURVE SMOOTH",
"691 249 OFFCURVE",
"705 299 OFFCURVE",
"712 354 CURVE SMOOTH"
);
},
{
closed = 1;
nodes = (
"653 304 OFFCURVE",
"640 260 OFFCURVE",
"622 221 CURVE SMOOTH",
"604 182 OFFCURVE",
"580 148 OFFCURVE",
"552 121 CURVE SMOOTH",
"524 94 OFFCURVE",
"492 72 OFFCURVE",
"455 58 CURVE SMOOTH",
"418 44 OFFCURVE",
"378 37 OFFCURVE",
"335 37 CURVE SMOOTH",
"293 37 OFFCURVE",
"256 44 OFFCURVE",
"223 58 CURVE SMOOTH",
"190 72 OFFCURVE",
"162 94 OFFCURVE",
"140 121 CURVE SMOOTH",
"118 148 OFFCURVE",
"103 182 OFFCURVE",
"94 221 CURVE SMOOTH",
"85 260 OFFCURVE",
"84 304 OFFCURVE",
"90 354 CURVE SMOOTH",
"96 403 OFFCURVE",
"108 448 OFFCURVE",
"127 487 CURVE SMOOTH",
"146 526 OFFCURVE",
"169 560 OFFCURVE",
"198 587 CURVE SMOOTH",
"227 614 OFFCURVE",
"258 636 OFFCURVE",
"295 650 CURVE SMOOTH",
"332 664 OFFCURVE",
"371 672 OFFCURVE",
"413 672 CURVE SMOOTH",
"456 672 OFFCURVE",
"494 664 OFFCURVE",
"527 650 CURVE SMOOTH",
"560 636 OFFCURVE",
"588 614 OFFCURVE",
"609 587 CURVE SMOOTH",
"630 560 OFFCURVE",
"646 526 OFFCURVE",
"655 487 CURVE SMOOTH",
"664 448 OFFCURVE",
"665 403 OFFCURVE",
"659 354 CURVE SMOOTH"
);
},
{
closed = 1;
nodes = (
"567 771 LINE",
"461 870 LINE",
"416 870 LINE",
"287 771 LINE",
"324 771 LINE SMOOTH",
"327 771 OFFCURVE",
"329 771 OFFCURVE",
"332 772 CURVE SMOOTH",
"335 773 OFFCURVE",
"338 774 OFFCURVE",
"341 776 CURVE",
"427 838 LINE",
"430 840 OFFCURVE",
"432 841 OFFCURVE",
"433 842 CURVE SMOOTH",
"434 843 OFFCURVE",
"435 843 OFFCURVE",
"436 844 CURVE",
"438 842 LINE SMOOTH",
"439 841 OFFCURVE",
"441 840 OFFCURVE",
"443 838 CURVE",
"514 776 LINE",
"516 774 OFFCURVE",
"518 773 OFFCURVE",
"521 772 CURVE SMOOTH",
"524 771 OFFCURVE",
"527 771 OFFCURVE",
"530 771 CURVE SMOOTH"
);
}
);
width = 747;
}
);
note = Ocircumflex;
unicode = 00D4;
},
{
glyphname = Otilde;
layers = (
{
layerId = "18B4A443-2C69-4DCB-9619-77A7DD6AC8EC";
name = Light;
paths = (
{
closed = 1;
nodes = (
"719 408 OFFCURVE",
"717 458 OFFCURVE",
"706 502 CURVE SMOOTH",
"695 546 OFFCURVE",
"677 584 OFFCURVE",
"651 616 CURVE SMOOTH",
"625 648 OFFCURVE",
"592 673 OFFCURVE",
"553 690 CURVE SMOOTH",
"514 707 OFFCURVE",
"469 716 OFFCURVE",
"419 716 CURVE SMOOTH",
"369 716 OFFCURVE",
"322 707 OFFCURVE",
"279 690 CURVE SMOOTH",
"236 673 OFFCURVE",
"198 648 OFFCURVE",
"164 616 CURVE SMOOTH",
"130 584 OFFCURVE",
"102 546 OFFCURVE",
"80 502 CURVE SMOOTH",
"58 458 OFFCURVE",
"44 408 OFFCURVE",
"37 354 CURVE SMOOTH",
"30 299 OFFCURVE",
"33 249 OFFCURVE",
"44 205 CURVE SMOOTH",
"55 161 OFFCURVE",
"73 123 OFFCURVE",
"99 91 CURVE SMOOTH",
"125 59 OFFCURVE",
"158 35 OFFCURVE",
"197 18 CURVE SMOOTH",
"236 1 OFFCURVE",
"280 -8 OFFCURVE",
"330 -8 CURVE SMOOTH",
"380 -8 OFFCURVE",
"428 1 OFFCURVE",
"471 18 CURVE SMOOTH",
"514 35 OFFCURVE",
"552 59 OFFCURVE",
"586 91 CURVE SMOOTH",
"620 123 OFFCURVE",
"647 161 OFFCURVE",
"669 205 CURVE SMOOTH",
"691 249 OFFCURVE",
"705 299 OFFCURVE",
"712 354 CURVE SMOOTH"
);
},
{
closed = 1;
nodes = (
"653 304 OFFCURVE",
"640 260 OFFCURVE",
"622 221 CURVE SMOOTH",
"604 182 OFFCURVE",
"580 148 OFFCURVE",
"552 121 CURVE SMOOTH",
"524 94 OFFCURVE",
"492 72 OFFCURVE",
"455 58 CURVE SMOOTH",
"418 44 OFFCURVE",
"378 37 OFFCURVE",
"335 37 CURVE SMOOTH",
"293 37 OFFCURVE",
"256 44 OFFCURVE",
"223 58 CURVE SMOOTH",
"190 72 OFFCURVE",
"162 94 OFFCURVE",
"140 121 CURVE SMOOTH",
"118 148 OFFCURVE",
"103 182 OFFCURVE",
"94 221 CURVE SMOOTH",
"85 260 OFFCURVE",
"84 304 OFFCURVE",
"90 354 CURVE SMOOTH",
"96 403 OFFCURVE",
"108 448 OFFCURVE",
"127 487 CURVE SMOOTH",
"146 526 OFFCURVE",
"169 560 OFFCURVE",
"198 587 CURVE SMOOTH",
"227 614 OFFCURVE",
"258 636 OFFCURVE",
"295 650 CURVE SMOOTH",
"332 664 OFFCURVE",
"371 672 OFFCURVE",
"413 672 CURVE SMOOTH",
"456 672 OFFCURVE",
"494 664 OFFCURVE",
"527 650 CURVE SMOOTH",
"560 636 OFFCURVE",
"588 614 OFFCURVE",
"609 587 CURVE SMOOTH",
"630 560 OFFCURVE",
"646 526 OFFCURVE",
"655 487 CURVE SMOOTH",
"664 448 OFFCURVE",
"665 403 OFFCURVE",
"659 354 CURVE SMOOTH"
);
},
{
closed = 1;
nodes = (
"482 808 OFFCURVE",
"474 811 OFFCURVE",
"466 816 CURVE SMOOTH",
"458 821 OFFCURVE",
"450 827 OFFCURVE",
"441 833 CURVE SMOOTH",
"432 839 OFFCURVE",
"423 845 OFFCURVE",
"414 850 CURVE SMOOTH",
"405 855 OFFCURVE",
"394 858 OFFCURVE",
"383 858 CURVE SMOOTH",
"372 858 OFFCURVE",
"361 856 OFFCURVE",
"352 852 CURVE SMOOTH",
"343 848 OFFCURVE",
"335 843 OFFCURVE",
"328 835 CURVE SMOOTH",
"321 827 OFFCURVE",
"315 818 OFFCURVE",
"311 808 CURVE SMOOTH",
"307 798 OFFCURVE",
"303 787 OFFCURVE",
"302 776 CURVE",
"330 776 LINE",
"332 790 OFFCURVE",
"338 802 OFFCURVE",
"346 811 CURVE SMOOTH",
"354 820 OFFCURVE",
"366 825 OFFCURVE",
"380 825 CURVE SMOOTH",
"389 825 OFFCURVE",
"397 822 OFFCURVE",
"405 817 CURVE SMOOTH",
"413 812 OFFCURVE",
"422 806 OFFCURVE",
"431 800 CURVE SMOOTH",
"440 794 OFFCURVE",
"448 788 OFFCURVE",
"457 783 CURVE SMOOTH",
"466 778 OFFCURVE",
"477 775 OFFCURVE",
"488 775 CURVE SMOOTH",
"499 775 OFFCURVE",
"510 777 OFFCURVE",
"519 781 CURVE SMOOTH",
"528 785 OFFCURVE",
"536 791 OFFCURVE",
"543 799 CURVE",
"550 806 OFFCURVE",
"555 815 OFFCURVE",
"559 825 CURVE SMOOTH",
"563 835 OFFCURVE",
"567 845 OFFCURVE",
"568 857 CURVE",
"541 857 LINE",
"539 843 OFFCURVE",
"533 831 OFFCURVE",
"525 822 CURVE SMOOTH",
"517 813 OFFCURVE",
"505 808 OFFCURVE",
"491 808 CURVE SMOOTH"
);
}
);
width = 747;
}
);
note = Otilde;
unicode = 00D5;
},
{
glyphname = Odieresis;
layers = (
{
layerId = "18B4A443-2C69-4DCB-9619-77A7DD6AC8EC";
name = Light;
paths = (
{
closed = 1;
nodes = (
"719 408 OFFCURVE",
"717 458 OFFCURVE",
"706 502 CURVE SMOOTH",
"695 546 OFFCURVE",
"677 584 OFFCURVE",
"651 616 CURVE SMOOTH",
"625 648 OFFCURVE",
"592 673 OFFCURVE",
"553 690 CURVE SMOOTH",
"514 707 OFFCURVE",
"469 716 OFFCURVE",
"419 716 CURVE SMOOTH",
"369 716 OFFCURVE",
"322 707 OFFCURVE",
"279 690 CURVE SMOOTH",
"236 673 OFFCURVE",
"198 648 OFFCURVE",
"164 616 CURVE SMOOTH",
"130 584 OFFCURVE",
"102 546 OFFCURVE",
"80 502 CURVE SMOOTH",
"58 458 OFFCURVE",
"44 408 OFFCURVE",
"37 354 CURVE SMOOTH",
"30 299 OFFCURVE",
"33 249 OFFCURVE",
"44 205 CURVE SMOOTH",
"55 161 OFFCURVE",
"73 123 OFFCURVE",
"99 91 CURVE SMOOTH",
"125 59 OFFCURVE",
"158 35 OFFCURVE",
"197 18 CURVE SMOOTH",
"236 1 OFFCURVE",
"280 -8 OFFCURVE",
"330 -8 CURVE SMOOTH",
"380 -8 OFFCURVE",
"428 1 OFFCURVE",
"471 18 CURVE SMOOTH",
"514 35 OFFCURVE",
"552 59 OFFCURVE",
"586 91 CURVE SMOOTH",
"620 123 OFFCURVE",
"647 161 OFFCURVE",
"669 205 CURVE SMOOTH",
"691 249 OFFCURVE",
"705 299 OFFCURVE",
"712 354 CURVE SMOOTH"
);
},
{
closed = 1;
nodes = (
"653 304 OFFCURVE",
"640 260 OFFCURVE",
"622 221 CURVE SMOOTH",
"604 182 OFFCURVE",
"580 148 OFFCURVE",
"552 121 CURVE SMOOTH",
"524 94 OFFCURVE",
"492 72 OFFCURVE",
"455 58 CURVE SMOOTH",
"418 44 OFFCURVE",
"378 37 OFFCURVE",
"335 37 CURVE SMOOTH",
"293 37 OFFCURVE",
"256 44 OFFCURVE",
"223 58 CURVE SMOOTH",
"190 72 OFFCURVE",
"162 94 OFFCURVE",
"140 121 CURVE SMOOTH",
"118 148 OFFCURVE",
"103 182 OFFCURVE",
"94 221 CURVE SMOOTH",
"85 260 OFFCURVE",
"84 304 OFFCURVE",
"90 354 CURVE SMOOTH",
"96 403 OFFCURVE",
"108 448 OFFCURVE",
"127 487 CURVE SMOOTH",
"146 526 OFFCURVE",
"169 560 OFFCURVE",
"198 587 CURVE SMOOTH",
"227 614 OFFCURVE",
"258 636 OFFCURVE",
"295 650 CURVE SMOOTH",
"332 664 OFFCURVE",
"371 672 OFFCURVE",
"413 672 CURVE SMOOTH",
"456 672 OFFCURVE",
"494 664 OFFCURVE",
"527 650 CURVE SMOOTH",
"560 636 OFFCURVE",
"588 614 OFFCURVE",
"609 587 CURVE SMOOTH",
"630 560 OFFCURVE",
"646 526 OFFCURVE",
"655 487 CURVE SMOOTH",
"664 448 OFFCURVE",
"665 403 OFFCURVE",
"659 354 CURVE SMOOTH"
);
},
{
closed = 1;
nodes = (
"372 837 OFFCURVE",
"371 843 OFFCURVE",
"369 848 CURVE SMOOTH",
"367 853 OFFCURVE",
"365 857 OFFCURVE",
"362 861 CURVE SMOOTH",
"359 865 OFFCURVE",
"355 868 OFFCURVE",
"350 870 CURVE SMOOTH",
"345 872 OFFCURVE",
"340 874 OFFCURVE",
"335 874 CURVE SMOOTH",
"330 874 OFFCURVE",
"324 872 OFFCURVE",
"319 870 CURVE SMOOTH",
"314 868 OFFCURVE",
"309 865 OFFCURVE",
"305 861 CURVE SMOOTH",
"301 857 OFFCURVE",
"298 853 OFFCURVE",
"295 848 CURVE SMOOTH",
"292 843 OFFCURVE",
"291 837 OFFCURVE",
"290 832 CURVE SMOOTH",
"289 827 OFFCURVE",
"289 822 OFFCURVE",
"291 817 CURVE SMOOTH",
"293 812 OFFCURVE",
"295 809 OFFCURVE",
"298 805 CURVE",
"301 802 OFFCURVE",
"305 798 OFFCURVE",
"310 796 CURVE SMOOTH",
"315 794 OFFCURVE",
"320 793 OFFCURVE",
"325 793 CURVE SMOOTH",
"330 793 OFFCURVE",
"336 794 OFFCURVE",
"341 796 CURVE SMOOTH",
"346 798 OFFCURVE",
"351 801 OFFCURVE",
"355 805 CURVE",
"359 808 OFFCURVE",
"362 812 OFFCURVE",
"365 817 CURVE SMOOTH",
"368 822 OFFCURVE",
"370 827 OFFCURVE",
"371 832 CURVE SMOOTH"
);
},
{
closed = 1;
nodes = (
"580 837 OFFCURVE",
"579 843 OFFCURVE",
"577 848 CURVE SMOOTH",
"575 853 OFFCURVE",
"573 857 OFFCURVE",
"570 861 CURVE SMOOTH",
"567 865 OFFCURVE",
"563 868 OFFCURVE",
"558 870 CURVE SMOOTH",
"553 872 OFFCURVE",
"548 873 OFFCURVE",
"543 873 CURVE SMOOTH",
"532 873 OFFCURVE",
"522 869 OFFCURVE",
"513 861 CURVE SMOOTH",
"504 853 OFFCURVE",
"499 843 OFFCURVE",
"498 832 CURVE",
"497 827 OFFCURVE",
"497 822 OFFCURVE",
"499 817 CURVE SMOOTH",
"501 812 OFFCURVE",
"503 809 OFFCURVE",
"506 805 CURVE",
"509 802 OFFCURVE",
"513 798 OFFCURVE",
"518 796 CURVE SMOOTH",
"523 794 OFFCURVE",
"527 793 OFFCURVE",
"533 793 CURVE SMOOTH",
"538 793 OFFCURVE",
"544 794 OFFCURVE",
"549 796 CURVE SMOOTH",
"554 798 OFFCURVE",
"559 801 OFFCURVE",
"563 805 CURVE",
"567 808 OFFCURVE",
"570 812 OFFCURVE",
"573 817 CURVE SMOOTH",
"576 822 OFFCURVE",
"578 827 OFFCURVE",
"579 832 CURVE SMOOTH"
);
}
);
width = 747;
}
);
note = Odieresis;
unicode = 00D6;
},
{
color = 4;
glyphname = multiply;
lastChange = "2015-10-08 21:31:38 +0000";
layers = (
{
layerId = "18B4A443-2C69-4DCB-9619-77A7DD6AC8EC";
name = Light;
paths = (
{
closed = 1;
nodes = (
"476 518 LINE",
"453 545 LINE",
"248 362 LINE",
"86 546 LINE",
"57 519 LINE",
"218 335 LINE",
"8 148 LINE",
"31 122 LINE",
"241 309 LINE",
"405 123 LINE",
"434 149 LINE",
"270 335 LINE"
);
}
);
width = 486;
}
);
note = multiply;
unicode = 00D7;
},
{
color = 4;
glyphname = Oslash;
lastChange = "2015-10-09 07:35:40 +0000";
layers = (
{
layerId = "18B4A443-2C69-4DCB-9619-77A7DD6AC8EC";
name = Light;
paths = (
{
closed = 1;
nodes = (
"734 460 OFFCURVE",
"716 557 OFFCURVE",
"649 629 CURVE",
"745 740 LINE",
"717 740 LINE SMOOTH",
"705 740 OFFCURVE",
"700 735 OFFCURVE",
"690 725 CURVE",
"626 650 LINE",
"572 695 OFFCURVE",
"502 716 OFFCURVE",
"428 716 CURVE SMOOTH",
"223 716 OFFCURVE",
"73 563 OFFCURVE",
"46 354 CURVE SMOOTH",
"34 248 OFFCURVE",
"52 145 OFFCURVE",
"125 72 CURVE",
"18 -52 LINE",
"40 -52 LINE SMOOTH",
"54 -52 OFFCURVE",
"63 -47 OFFCURVE",
"72 -36 CURVE SMOOTH",
"149 52 LINE",
"202 12 OFFCURVE",
"270 -8 OFFCURVE",
"339 -8 CURVE SMOOTH",
"544 -8 OFFCURVE",
"695 141 OFFCURVE",
"721 354 CURVE SMOOTH"
);
},
{
closed = 1;
nodes = (
"122 539 OFFCURVE",
"243 672 OFFCURVE",
"422 672 CURVE SMOOTH",
"484 672 OFFCURVE",
"550 652 OFFCURVE",
"593 613 CURVE",
"159 110 LINE",
"104 170 OFFCURVE",
"86 259 OFFCURVE",
"99 354 CURVE SMOOTH"
);
},
{
closed = 1;
nodes = (
"647 174 OFFCURVE",
"528 37 OFFCURVE",
"344 37 CURVE SMOOTH",
"285 37 OFFCURVE",
"229 50 OFFCURVE",
"181 89 CURVE",
"615 590 LINE",
"666 530 OFFCURVE",
"678 442 OFFCURVE",
"668 354 CURVE SMOOTH"
);
}
);
width = 763;
}
);
note = Oslash;
unicode = 00D8;
},
{
glyphname = Ugrave;
layers = (
{
layerId = "18B4A443-2C69-4DCB-9619-77A7DD6AC8EC";
name = Light;
paths = (
{
closed = 1;
nodes = (
"661 707 LINE",
"610 707 LINE",
"513 707 LINE",
"511 688 LINE SMOOTH",
"510 677 OFFCURVE",
"515 671 OFFCURVE",
"528 670 CURVE",
"541 670 LINE SMOOTH",
"548 670 OFFCURVE",
"557 669 OFFCURVE",
"569 669 CURVE SMOOTH",
"581 669 OFFCURVE",
"593 668 OFFCURVE",
"605 668 CURVE",
"556 270 LINE SMOOTH",
"552 237 OFFCURVE",
"543 207 OFFCURVE",
"530 178 CURVE SMOOTH",
"517 149 OFFCURVE",
"499 124 OFFCURVE",
"478 103 CURVE SMOOTH",
"457 82 OFFCURVE",
"432 66 OFFCURVE",
"404 54 CURVE SMOOTH",
"376 42 OFFCURVE",
"344 36 OFFCURVE",
"310 36 CURVE SMOOTH",
"276 36 OFFCURVE",
"246 42 OFFCURVE",
"221 54 CURVE SMOOTH",
"196 66 OFFCURVE",
"176 83 OFFCURVE",
"160 104 CURVE SMOOTH",
"144 125 OFFCURVE",
"132 150 OFFCURVE",
"126 178 CURVE SMOOTH",
"120 206 OFFCURVE",
"119 237 OFFCURVE",
"123 270 CURVE SMOOTH",
"171 668 LINE",
"183 668 OFFCURVE",
"195 669 OFFCURVE",
"207 669 CURVE SMOOTH",
"219 669 OFFCURVE",
"229 670 OFFCURVE",
"236 670 CURVE SMOOTH",
"249 670 LINE",
"262 671 OFFCURVE",
"270 677 OFFCURVE",
"271 688 CURVE SMOOTH",
"273 707 LINE",
"176 707 LINE",
"125 707 LINE",
"41 707 LINE",
"38 688 LINE",
"37 677 OFFCURVE",
"43 671 OFFCURVE",
"56 670 CURVE",
"65 670 LINE SMOOTH",
"70 670 OFFCURVE",
"77 669 OFFCURVE",
"87 669 CURVE SMOOTH",
"97 669 OFFCURVE",
"108 668 OFFCURVE",
"120 668 CURVE",
"71 270 LINE SMOOTH",
"66 231 OFFCURVE",
"68 195 OFFCURVE",
"76 161 CURVE SMOOTH",
"84 127 OFFCURVE",
"99 97 OFFCURVE",
"119 72 CURVE SMOOTH",
"139 47 OFFCURVE",
"165 27 OFFCURVE",
"196 13 CURVE SMOOTH",
"227 -1 OFFCURVE",
"264 -8 OFFCURVE",
"305 -8 CURVE SMOOTH",
"346 -8 OFFCURVE",
"384 -1 OFFCURVE",
"419 13 CURVE SMOOTH",
"454 27 OFFCURVE",
"485 47 OFFCURVE",
"511 72 CURVE SMOOTH",
"537 97 OFFCURVE",
"559 127 OFFCURVE",
"575 161 CURVE SMOOTH",
"591 195 OFFCURVE",
"602 231 OFFCURVE",
"607 270 CURVE SMOOTH",
"656 668 LINE",
"668 668 OFFCURVE",
"679 669 OFFCURVE",
"689 669 CURVE SMOOTH",
"699 669 OFFCURVE",
"706 670 OFFCURVE",
"711 670 CURVE SMOOTH",
"721 670 LINE",
"734 671 OFFCURVE",
"742 677 OFFCURVE",
"743 688 CURVE SMOOTH",
"745 707 LINE"
);
},
{
closed = 1;
nodes = (
"268 885 LINE",
"401 777 LINE",
"404 774 OFFCURVE",
"406 773 OFFCURVE",
"409 772 CURVE SMOOTH",
"412 771 OFFCURVE",
"415 771 OFFCURVE",
"419 771 CURVE SMOOTH",
"455 771 LINE",
"353 874 LINE SMOOTH",
"349 878 OFFCURVE",
"346 881 OFFCURVE",
"342 883 CURVE SMOOTH",
"338 885 OFFCURVE",
"332 885 OFFCURVE",
"324 885 CURVE SMOOTH"
);
}
);
width = 753;
}
);
note = Ugrave;
unicode = 00D9;
},
